<svg id="Capa_1" enable-background="new 0 0 512 512" height="512" viewBox="0 0 512 512" width="512" xmlns="http://www.w3.org/2000/svg"><g><path d="m509.803 150.69-148.492-148.493c-2.929-2.929-7.677-2.929-10.607 0-9.916 9.916-15.377 23.1-15.377 37.123 0 11.274 3.536 22.002 10.073 30.929l-120.916 101.46c-23.428-21.076-53.406-32.602-85.157-32.602-34.056 0-66.074 13.262-90.156 37.344-2.929 2.929-2.929 7.678 0 10.606l121.976 121.976-157.774 157.774c-10.461 10.46-15.312 25.246-12.659 38.585.592 2.976 2.917 5.302 5.894 5.894 2.413.48 4.872.714 7.346.714 11.2 0 22.671-4.805 31.239-13.373l157.774-157.774 121.975 121.976c1.465 1.465 3.384 2.197 5.304 2.197 1.919 0 3.839-.732 5.304-2.197 24.081-24.082 37.344-56.1 37.344-90.156 0-31.75-11.532-61.725-32.605-85.153l101.462-120.92c8.927 6.537 19.655 10.073 30.929 10.073 14.023 0 27.208-5.461 37.124-15.376 2.928-2.93 2.928-7.679-.001-10.607zm-475.216 337.331c-5.498 5.498-12.638 8.698-19.578 8.971.273-6.94 3.474-14.081 8.971-19.578l157.774-157.774 10.606 10.607zm295.175-211.292-79.065-79.065c-2.929-2.929-7.678-2.929-10.606 0-2.929 2.929-2.929 7.678 0 10.606l84.852 84.853c21.249 21.249 32.951 49.5 32.951 79.549 0 27.538-9.825 53.562-27.82 74.074l-264.818-264.817c44.138-38.66 111.538-36.953 153.621 5.128 2.75 2.75 7.146 2.942 10.124.442l126.563-106.196 75.133 75.133zm142.918-115.057c-10.018 0-19.435-3.9-26.517-10.983l-84.853-84.852c-7.083-7.083-10.983-16.5-10.983-26.517 0-7.468 2.168-14.604 6.208-20.686l136.831 136.832c-6.083 4.039-13.218 6.206-20.686 6.206z"/></g></svg>