<svg id="Capa_1" enable-background="new 0 0 512 512" height="512" viewBox="0 0 512 512" width="512" xmlns="http://www.w3.org/2000/svg"><g><g><path d="m512 184.903c0-15.874-11.257-29.853-26.767-33.237l-323.851-70.657c-83.026-18.117-161.382 45.163-161.382 129.968 0 18.758 15.261 34.018 34.019 34.018h2.332v55.758c0 4.143 3.357 7.5 7.5 7.5s7.5-3.357 7.5-7.5v-14.5h254.316c4.143 0 7.5-3.357 7.5-7.5s-3.357-7.5-7.5-7.5h-213.817v-26.258h258.52c-7.373 7.694-12.923 17.242-15.83 28.034l-7.191 26.701c-5.08 18.864-22.273 32.04-41.811 32.04h-183.718c-4.143 0-7.5 3.357-7.5 7.5s3.357 7.5 7.5 7.5h183.717c26.306 0 49.455-17.739 56.295-43.14l7.191-26.701c5.874-21.813 25.756-37.049 48.348-37.049h67.813c17.543 0 31.815 14.272 31.815 31.815v131.82c0 8.595-6.992 15.587-15.588 15.587h-450.824c-8.595 0-15.587-6.992-15.587-15.587v-41.159c0-8.595 6.992-15.587 15.587-15.587h36.166c4.143 0 7.5-3.357 7.5-7.5s-3.357-7.5-7.5-7.5h-36.166c-16.865.001-30.587 13.723-30.587 30.588v41.159c0 16.865 13.722 30.587 30.587 30.587h450.825c16.866 0 30.588-13.722 30.588-30.587v-131.82c0-.004 0-.009 0-.013 0-.002 0-.004 0-.007zm-435.15 86.35h-25.499v-26.258h25.499zm420.15-33.859c-8.358-7.758-19.539-12.514-31.815-12.514h-67.813c-8.863 0-17.4 1.815-25.217 5.114h-338.136c-10.487 0-19.019-8.531-19.019-19.019 0-75.395 69.668-131.349 143.185-115.311l323.852 70.657c8.671 1.893 14.964 9.707 14.964 18.582v52.491z"/><path d="m462.855 311.17c0-21.874-17.796-39.67-39.67-39.67s-39.67 17.796-39.67 39.67c0 21.875 17.796 39.671 39.67 39.671s39.67-17.796 39.67-39.671zm-64.339 0c0-13.604 11.066-24.67 24.67-24.67s24.67 11.066 24.67 24.67-11.066 24.671-24.67 24.671-24.67-11.068-24.67-24.671z"/></g></g></svg>