<?xml version="1.0" encoding="UTF-8"?>
<svg width="512px" height="436px" viewBox="0 0 512 436" version="1.1" xmlns="http://www.w3.org/2000/svg" xmlns:xlink="http://www.w3.org/1999/xlink">
    <title>画板</title>
    <g id="画板" stroke="none" stroke-width="1" fill="none" fill-rule="evenodd">
        <g id="illustration-01" fill="#878787" fill-rule="nonzero">
            <path d="M200.786,386.651 L29.416,386.651 C21.478,386.651 15.021,380.194 15.021,372.256 L15.021,202.479 C15.021,198.331 11.659,194.969 7.511,194.969 C3.363,194.969 0,198.33 0,202.479 L0,372.256 C0,388.476 13.196,401.672 29.416,401.672 L200.786,401.672 C204.934,401.672 208.296,398.31 208.296,394.162 C208.296,390.013 204.934,386.651 200.786,386.651 Z" id="路径"></path>
            <path d="M52.758,224.921 L99.512,224.921 C107.329,224.921 113.689,218.562 113.689,210.744 L113.689,163.99 C113.689,156.173 107.33,149.813 99.512,149.813 L52.758,149.813 C44.941,149.813 38.581,156.172 38.581,163.99 L38.581,210.744 C38.582,218.561 44.941,224.921 52.758,224.921 Z M53.602,164.834 L98.668,164.834 L98.668,209.9 L53.602,209.9 L53.602,164.834 Z" id="形状"></path>
            <path d="M194.282,149.813 L147.527,149.813 C139.71,149.813 133.35,156.172 133.35,163.99 L133.35,210.744 C133.35,218.561 139.709,224.921 147.527,224.921 L194.282,224.921 C202.099,224.921 208.459,218.562 208.459,210.744 L208.459,163.99 C208.459,156.172 202.099,149.813 194.282,149.813 L194.282,149.813 Z M193.438,209.9 L148.371,209.9 L148.371,164.834 L193.438,164.834 L193.438,209.9 Z" id="形状"></path>
            <path d="M242.296,224.921 L289.05,224.921 C296.867,224.921 303.227,218.562 303.227,210.744 L303.227,163.99 C303.227,156.173 296.868,149.813 289.05,149.813 L242.296,149.813 C234.479,149.813 228.119,156.172 228.119,163.99 L228.119,210.744 C228.12,218.561 234.479,224.921 242.296,224.921 L242.296,224.921 Z M243.14,164.834 L288.206,164.834 L288.206,209.9 L243.14,209.9 L243.14,164.834 Z" id="形状"></path>
            <path d="M38.582,330.301 C38.582,338.118 44.941,344.478 52.759,344.478 L99.513,344.478 C107.33,344.478 113.69,338.119 113.69,330.301 L113.69,283.547 C113.69,275.73 107.331,269.37 99.513,269.37 L52.758,269.37 C44.941,269.37 38.581,275.729 38.581,283.547 L38.581,330.301 L38.582,330.301 Z M53.602,284.39 L98.668,284.39 L98.668,329.456 L53.602,329.456 L53.602,284.39 Z" id="形状"></path>
            <path d="M194.282,269.37 L147.527,269.37 C139.71,269.37 133.35,275.729 133.35,283.547 L133.35,330.301 C133.35,338.118 139.709,344.478 147.527,344.478 L194.282,344.478 C202.099,344.478 208.459,338.119 208.459,330.301 L208.459,283.547 C208.459,275.729 202.099,269.37 194.282,269.37 Z M193.438,329.457 L148.371,329.457 L148.371,284.39 L193.438,284.39 L193.438,329.457 Z" id="形状"></path>
            <path d="M511.806,361.763 C511.726,342.896 500.516,325.792 483.247,318.19 C473.825,314.042 459.321,310.963 446.673,308.87 C446.666,308.869 446.66,308.867 446.653,308.865 C446.644,308.864 446.636,308.864 446.628,308.862 C440.575,307.861 434.948,307.086 430.512,306.529 C430.121,306.48 429.826,306.151 429.824,305.762 L429.748,287.759 C442.493,278.09 449.454,265.118 451.427,250.952 C459.057,249.337 464.784,242.534 464.75,234.435 L464.706,224.133 C464.687,219.549 462.82,215.285 459.644,212.19 L459.538,187.141 C459.467,170.128 450.249,155.258 436.578,147.16 C436.578,130.532 436.578,83.798 436.578,66.908 C436.578,50.688 423.382,37.492 407.162,37.492 L389.234,37.492 L389.234,29.831 C389.234,13.492 375.941,0.199 359.602,0.199 C343.263,0.199 329.97,13.492 329.97,29.831 L329.97,37.492 L295.024,37.492 L295.024,29.831 C295.024,13.492 281.731,0.199 265.392,0.199 C249.053,0.199 235.76,13.492 235.76,29.831 L235.76,37.492 L200.813,37.492 L200.813,29.831 C200.813,13.492 187.52,0.199 171.181,0.199 C154.842,0.199 141.549,13.492 141.549,29.831 L141.549,37.492 L106.603,37.492 L106.603,29.831 C106.603,13.492 93.31,0.199 76.971,0.199 C60.632,0.199 47.343,13.492 47.343,29.831 L47.343,37.492 L29.416,37.492 C13.196,37.492 0,50.688 0,66.908 L0,167.349 C0,171.497 3.362,174.859 7.51,174.859 C11.658,174.859 15.02,171.497 15.02,167.349 L15.02,118.725 L421.557,118.725 L421.557,141.49 C418.74,140.957 415.839,140.667 412.871,140.667 C412.805,140.667 412.737,140.667 412.672,140.667 L372.285,140.838 C362.252,140.879 353.281,147.078 349.661,156.365 C336.56,156.904 326.094,167.759 326.151,180.977 L326.285,212.753 C323.137,215.875 321.305,220.153 321.324,224.737 L321.368,235.041 C321.402,243.139 327.187,249.894 334.829,251.445 C336.907,265.501 343.92,278.456 356.817,288.068 L356.893,306.07 C356.895,306.459 356.603,306.792 356.213,306.844 C351.776,307.438 346.149,308.262 340.1,309.315 C340.096,309.316 340.093,309.316 340.089,309.316 C340.086,309.316 340.083,309.317 340.08,309.318 C327.448,311.517 312.965,314.72 303.576,318.948 C303.458,319.001 303.343,319.059 303.226,319.114 L303.226,283.547 C303.226,275.73 296.867,269.37 289.049,269.37 L242.295,269.37 C234.478,269.37 228.118,275.729 228.118,283.547 L228.118,330.301 C228.118,338.118 234.477,344.478 242.295,344.478 L278.945,344.478 C276.612,350.18 275.358,356.374 275.385,362.761 L275.485,386.651 L235.89,386.651 C231.742,386.651 228.38,390.013 228.38,394.161 C228.38,398.309 231.742,401.671 235.89,401.671 L275.551,401.671 L275.581,408.755 C275.644,423.754 287.822,435.8 302.706,435.8 L302.823,435.8 L484.923,435.8 L484.955,435.8 C500.184,435.735 512.062,422.524 511.999986,407.758 L511.806,361.763 Z M288.206,329.457 L243.14,329.457 L243.14,284.39 L288.206,284.39 L288.206,329.457 Z M344.992,29.831 C344.992,21.774 351.546,15.22 359.603,15.22 C367.66,15.22 374.214,21.774 374.214,29.831 L374.214,60.174 C374.214,68.231 367.66,74.785 359.603,74.785 C351.546,74.785 344.992,68.231 344.992,60.174 L344.992,29.831 Z M250.783,29.831 C250.783,21.774 257.337,15.22 265.394,15.22 C273.451,15.22 280.005,21.774 280.005,29.831 L280.005,60.174 C280.005,68.231 273.451,74.785 265.394,74.785 C257.337,74.785 250.783,68.231 250.783,60.174 L250.783,29.831 Z M156.573,29.831 C156.573,21.774 163.127,15.22 171.184,15.22 C179.241,15.22 185.795,21.774 185.795,29.831 L185.795,60.174 C185.795,68.231 179.241,74.785 171.184,74.785 C163.127,74.785 156.573,68.231 156.573,60.174 L156.573,29.831 Z M62.363,29.831 C62.363,21.774 68.917,15.22 76.974,15.22 C85.031,15.22 91.585,21.774 91.585,29.831 L91.585,60.174 C91.585,68.231 85.031,74.785 76.974,74.785 C68.917,74.785 62.363,68.231 62.363,60.174 L62.363,29.831 Z M15.021,103.705 L15.021,66.908 C15.021,58.97 21.478,52.513 29.416,52.513 L47.343,52.513 L47.343,60.174 C47.343,76.513 60.636,89.806 76.975,89.806 C93.314,89.806 106.607,76.513 106.607,60.174 L106.607,52.513 L141.553,52.513 L141.553,60.174 C141.553,76.513 154.846,89.806 171.185,89.806 C187.524,89.806 200.817,76.513 200.817,60.174 L200.817,52.513 L235.764,52.513 L235.764,60.174 C235.764,76.513 249.057,89.806 265.396,89.806 C281.735,89.806 295.028,76.513 295.028,60.174 L295.028,52.513 L329.974,52.513 L329.974,60.174 C329.974,76.513 343.267,89.806 359.606,89.806 C375.945,89.806 389.238,76.513 389.238,60.174 L389.238,52.513 L407.166,52.513 C415.104,52.513 421.561,58.97 421.561,66.908 L421.561,103.705 L15.021,103.705 Z M350.639,171.365 C356.462,171.341 361.642,167.648 363.526,162.175 C364.822,158.413 368.367,155.875 372.349,155.859 L412.736,155.688 L412.871,155.688 C430.26,155.688 444.445,169.798 444.518,187.204 L444.612,209.496 C442.149,210.179 439.393,211.291 436.808,213.104 L436.738,196.291 C436.686,184.093 426.749,174.208 414.553,174.208 C414.522,174.208 414.488,174.208 414.457,174.208 L414.29,174.209 C411.109,174.223 407.957,174.722 404.922,175.692 C397,178.223 388.655,178.264 380.7,175.794 C377.697,174.862 374.584,174.39 371.435,174.39 C371.392,174.39 371.35,174.39 371.308,174.39 L371.141,174.391 C358.912,174.443 349.006,184.433 349.058,196.662 L349.118,210.664 C346.463,209.944 343.742,209.515 341.293,209.262 L341.173899,180.915 C341.15,175.671 345.397,171.388 350.639,171.365 L350.639,171.365 Z M349.241,244.061 C349.137,239.988 345.805,236.743 341.735,236.743 C341.724,236.743 341.713,236.743 341.703,236.743 L338.186,236.758 C338.183,236.758 338.181,236.758 338.178,236.758 C337.195,236.758 336.393,235.961 336.389,234.977 L336.344988,224.674 C336.344988,224.418 336.407,224.198 336.492,223.995 C341.817,224.241 347.246,225.313 348.566,226.523 C350.323,228.24 352.635,229.148 354.989,229.148 C356.198,229.148 357.417,228.908 358.578,228.418 C361.993,226.972 364.191,223.639 364.177,219.925 L364.078,196.598 C364.061,192.652 367.258,189.428 371.213,189.411 C371.333,189.419 373.56,189.306 376.248,190.14 C387.04,193.489 398.637,193.468 409.494,190 C412.11,189.165 414.429,189.236 414.53,189.228 L414.561,189.228 C418.492,189.228 421.7,192.418 421.716,196.353 L421.814,219.685 C421.82,220.953 422.234,225.253 427.318,227.354 C428.801,227.968 439.737,230.926 444.574,226.116 C445.93,224.768 447.956,224.068 449.61,223.728 C449.651,223.874 449.684,224.026 449.685,224.196 L449.729015,234.499 C449.733,235.486 448.934,236.292 447.948,236.295 L444.431,236.31 C440.346,236.328 437.023,239.606 436.953,243.69 C436.725,256.845 430.936,269.083 418.182,277.565 C410.512,282.472 402.767,285.143 393.27,285.305 C383.843,285.224 375.977,282.627 368.307,277.782 C355.573,269.472 349.58,257.266 349.241,244.061 L349.241,244.061 Z M371.874,296.403 C378.598,298.959 385.739,300.275 393.252,300.327 L393.304,300.327 C393.342,300.327 393.38,300.327 393.419,300.326 C400.931,300.211 408.061,298.835 414.763,296.223 L414.803,305.826 C414.814,308.488 415.508,311.006 416.705,313.224 L393.451,327.905 L370.074,313.421 C371.253,311.193 371.926,308.668 371.914,306.006 L371.874,296.403 Z M369.614,420.78 L326.813,420.78 L326.718,398.34 C326.7,394.202 323.341,390.861 319.209,390.861 C319.198,390.861 319.187,390.861 319.177,390.861 C315.029,390.879 311.68,394.255 311.698,398.403 L311.793,420.781 L302.792,420.781 C302.774,420.781 302.758,420.781 302.74,420.781 C296.058,420.781 290.63,415.388 290.602,408.693 L290.407703,362.698 C290.353,349.755 297.943,337.959 309.745,332.646 C314.895,330.326 322.196,328.313 329.736,326.647 C330.171,327.953 330.788,329.211 331.633,330.362 L348.31,353.081 C351.92,357.999 357.24,361.143 363.29,361.933 C365.917,362.276 368.53,362.17 371.267,361.524 L377.286,371.897 L369.614,420.78 Z M370.624,345.525 C369.126,346.73 367.209,347.298 365.237,347.038 C363.292,346.784 361.581,345.774 360.42,344.191 L345.35,323.661 C349.201,323.02 352.713,322.495 355.557,322.095 L380.519,337.561 L370.624,345.525 Z M384.819,420.78 L392.538,371.596 C392.806,369.883 392.446,368.098 391.615,366.66 L384.199,353.88 L393.516,346.381 L402.852,353.806 L395.525,366.633 C394.659,368.151 394.363,369.966 394.639,371.599 L402.866,420.78 L384.819,420.78 Z M431.296,321.776 C434.142,322.152 437.658,322.648 441.513,323.256 L426.574,343.957 C425.425,345.55 423.719,346.575 421.772,346.844 C419.764,347.116 417.845,346.54 416.368,345.362 L406.441,337.467 L431.296,321.776 Z M484.91,420.78 L475.894,420.78 L475.796,397.711 C475.778,393.573 472.419,390.232 468.287,390.232 C468.276,390.232 468.265,390.232 468.255,390.232 C464.107,390.25 460.758,393.626 460.776,397.774 L460.873,420.78 L418.096,420.78 L409.896,371.759 L415.832,361.367 C418.491,361.977 421.094,362.099 423.822,361.724 C429.875,360.89 435.178,357.702 438.754,352.747 L455.282,329.844 C456.119,328.685 456.726,327.42 457.151,326.108 C464.707,327.71 472.026,329.661 477.196,331.937 C489.041,337.152 496.731,348.884 496.786,361.826 L496.980094,407.822 C497.006,414.458 491.648,420.74 484.91,420.78 L484.91,420.78 Z" id="形状"></path>
        </g>
    </g>
</svg>