<svg id="Layer_1" enable-background="new 0 0 70 70" height="512" viewBox="0 0 70 70" width="512" xmlns="http://www.w3.org/2000/svg"><path d="m43.2651367 4.7856445c-3.3417969-3.5107422-8.9702148-3.7060547-12.5488281-.4375l-7.0908203 6.4804688c-1.237793 1.1308594-2.8374024 1.8544922-4.6254883 2.0922851-8.1982422 1.0927734-10.2387695 5.1113281-10.3212891 5.2817383-.1870117.3847656-.1083984.8452148.1948242 1.1464844l4.6325073 4.6017456c-.8826904 1.2302246-1.3673706 2.6983032-1.3673706 4.2302856 0 4.0107422 3.2626953 7.2734375 7.2734375 7.2734375 1.5610352 0 3.0403442-.4963989 4.2643433-1.4006958l4.9334106 4.9006958c.1943359.1933594.4492188.2905273.7045898.2905273.2397461 0 .4794922-.0854492.6704102-.2578125 2.7407227-2.4760742 3.8344727-6.425293 4.269043-9.3027344.1138306-.7528076.3309326-1.4814453.6422119-2.1670532l10.414978 6.5218506c.0171509 1.2979736.3427734 2.5211792.9061279 3.6032715l-9.3848267 17.5869751c-.7193604-.1353149-1.4585571-.2139893-2.2166748-.2139893-6.2697144 0-11.4202881 4.8436279-11.9286499 10.984375h-8.9766235c-.5522461 0-1 .4477539-1 1s.4477539 1 1 1h41.7949219c.5522461 0 1-.4477539 1-1s-.4477539-1-1-1h-8.9609985c-.1339111-1.6174927-.5886841-3.1430054-1.3033447-4.5154419l10.618103-19.882019c3.2243042-1.0526733 5.5627441-4.0912476 5.5627441-7.6704102 0-4.4492188-3.6098633-8.0688477-8.0473633-8.0688477-.47052 0-.9291382.0488281-1.3778076.1265259l-10.5914307-6.6221924 2.2001953-2.5907593c2.9765626-3.5048826 2.8300783-8.6601561-.3403319-11.9912108zm-23.8530273 28.6689453c-2.9077148 0-5.2734375-2.3657227-5.2734375-5.2734375 0-1.0006104.2841797-1.9645996.8085327-2.798584l7.2910767 7.2426758c-.8302613.5383912-1.8043213.8293457-2.8261719.8293457zm5.2750244 32.5454102c.5009155-5.0371094 4.7618408-8.984375 9.9285889-8.984375s9.4276733 3.9472656 9.9285888 8.984375zm19.3097534-6.4324341c-1.3439941-1.6939697-3.1350098-3.0101318-5.1941528-3.7819824l8.7111206-16.3245239c1.472168 1.5594482 3.5518799 2.5394287 5.8606567 2.5394287.0014648 0 .0028076-.0002441.0042725-.0002441zm15.4249878-25.635437c0 2.8218384-1.9321289 5.1928711-4.536438 5.8688965-.0004883.0001221-.0009155.0002441-.0014038.0003662-.4835205.1253662-.9875488.1990967-1.5095215.1990967-3.3461914 0-6.0688477-2.722168-6.0688477-6.0683594 0-2.8862915 2.0273438-5.3041382 4.7316284-5.9154663.0055542-.0013428.0109253-.0028076.0164185-.0042725.4257812-.0950317.8667603-.1491089 1.3208008-.1491089 3.3344727 0 6.0473633 2.7226563 6.0473633 6.0688477zm-9.8626099-7.1069336c-1.9363403 1.0436401-3.3917236 2.8579102-3.9719238 5.0270996l-9.6359253-6.0339966c.055603-.0699463.1004639-.1469727.1584473-.215271l3.9866333-4.6943359zm-14.9738159-2.5166015c-.3273926.3856812-.6188965.7963257-.883667 1.2225952-.0100098.0142212-.0254517.0217896-.03479.0366821-.0178833.0286255-.0195312.0612183-.0341797.0908203-.6853638 1.1394653-1.1557617 2.3999634-1.3564453 3.7270508-.2856445 1.8896484-1.0410156 5.203125-2.9716797 7.4399414l-4.8309326-4.7988892c-.0079956-.008728-.0103149-.0202637-.0186768-.0287476-.0095215-.0097046-.022522-.0126953-.0322876-.0219116l-8.8668213-8.8080444c-.0067749-.0067749-.0089722-.0159912-.0159302-.022583-.0054321-.0050659-.0126343-.0063477-.0181274-.0112915l-4.6366577-4.605896c.8457031-.9707031 3.1518555-2.9282227 8.3789062-3.625 2.1948242-.2919922 4.1694336-1.1904297 5.7104492-2.5981445l7.0908203-6.4804688c2.7802734-2.5405273 7.1552734-2.3886719 9.7509766.3398438 2.4638672 2.5883789 2.5776367 6.5942383.2646484 9.3173828z"/></svg>