<?xml version="1.0" encoding="UTF-8"?>
<svg width="128px" height="128px" viewBox="0 0 128 128" version="1.1" xmlns="http://www.w3.org/2000/svg" xmlns:xlink="http://www.w3.org/1999/xlink">
    <title>烤-Icon</title>
    <g id="烤-Icon" stroke="none" stroke-width="1" fill="none" fill-rule="evenodd">
        <g id="编组" transform="translate(0.000000, 22.821705)">
            <polygon id="Fill-87" fill="#F8D4CC" points="0.56855814 75.7621085 97.5542574 75.7621085 97.5542574 0.414065116 0.56855814 0.414065116"></polygon>
            <path d="M97.811845,76.020093 L0.310573643,76.020093 L0.310573643,0.156775194 L97.811845,0.156775194 L97.811845,76.020093 Z M0.825550388,75.5051163 L97.295876,75.5051163 L97.295876,0.671751938 L0.825550388,0.671751938 L0.825550388,75.5051163 L0.825550388,75.5051163 Z" id="Fill-89" fill="#0E60A8"></path>
            <polygon id="Fill-90" fill="#FFFFFF" points="11.000062 63.7836899 85.5752434 63.7836899 85.5752434 13.165445 11.000062 13.165445"></polygon>
            <path d="M85.8334264,64.0416744 L10.7430698,64.0416744 L10.7430698,12.908155 L85.8334264,12.908155 L85.8334264,64.0416744 Z M11.2580465,63.5266977 L85.3174574,63.5266977 L85.3174574,13.4231318 L11.2580465,13.4231318 L11.2580465,63.5266977 L11.2580465,63.5266977 Z" id="Fill-91" fill="#0E60A8"></path>
            <polygon id="Fill-92" fill="#EF856B" points="97.5538605 75.7621085 126.921327 75.7621085 126.921327 0.414065116 97.5538605 0.414065116"></polygon>
            <path d="M127.179411,76.020093 L97.295876,76.020093 L97.295876,0.156775194 L127.179411,0.156775194 L127.179411,76.020093 Z M97.811845,75.5051163 L126.663442,75.5051163 L126.663442,0.671751938 L97.811845,0.671751938 L97.811845,75.5051163 L97.811845,75.5051163 Z" id="Fill-93" fill="#0E60A8"></path>
            <polygon id="Fill-94" fill="#FFFFFF" points="102.191628 21.6657364 118.421135 21.6657364 118.421135 13.1657327 102.191628 13.1657327"></polygon>
            <path d="M118.678822,21.9227287 L101.933643,21.9227287 L101.933643,12.908155 L118.678822,12.908155 L118.678822,21.9227287 Z M102.449612,21.4077519 L118.163845,21.4077519 L118.163845,13.4231318 L102.449612,13.4231318 L102.449612,21.4077519 L102.449612,21.4077519 Z" id="Fill-95" fill="#0E60A8"></path>
            <path d="M115.328992,45.2355969 C115.328992,45.5531163 115.298233,45.8666667 115.236713,46.1782326 C115.175194,46.4888062 115.082915,46.7914419 114.96186,47.084155 C114.840806,47.3768682 114.691969,47.6556899 114.515349,47.9196279 C114.338729,48.1835659 114.138295,48.4266667 113.914047,48.651907 C113.690791,48.8751628 113.445705,49.0755969 113.18276,49.2522171 C112.918822,49.4288372 112.64,49.5766822 112.347287,49.6987287 C112.054574,49.8197829 111.751938,49.912062 111.441364,49.9735814 C111.129798,50.036093 110.815256,50.0658605 110.498729,50.0658605 C110.181209,50.0658605 109.866667,50.036093 109.556093,49.9735814 C109.244527,49.912062 108.942884,49.8197829 108.649178,49.6987287 C108.356465,49.5766822 108.078636,49.4288372 107.814698,49.2522171 C107.55076,49.0755969 107.306667,48.8751628 107.082419,48.651907 C106.858171,48.4266667 106.657736,48.1835659 106.482109,47.9196279 C106.305488,47.6556899 106.156651,47.3768682 106.035597,47.084155 C105.91355,46.7914419 105.822264,46.4888062 105.760744,46.1782326 C105.698233,45.8666667 105.667473,45.5531163 105.667473,45.2355969 C105.667473,44.9180775 105.698233,44.6045271 105.760744,44.2929612 C105.822264,43.9813953 105.91355,43.6797519 106.035597,43.3870388 C106.156651,43.0933333 106.305488,42.8155039 106.482109,42.5515659 C106.657736,42.2876279 106.858171,42.0435349 107.082419,41.8192868 C107.306667,41.5950388 107.55076,41.3946047 107.814698,41.2189767 C108.078636,41.0423566 108.356465,40.8935194 108.649178,40.7724651 C108.942884,40.6504186 109.244527,40.5591318 109.556093,40.4976124 C109.866667,40.4351008 110.181209,40.4043411 110.498729,40.4043411 C110.815256,40.4043411 111.129798,40.4351008 111.441364,40.4976124 C111.751938,40.5591318 112.054574,40.6504186 112.347287,40.7724651 C112.64,40.8935194 112.918822,41.0423566 113.18276,41.2189767 C113.445705,41.3946047 113.690791,41.5950388 113.914047,41.8192868 C114.138295,42.0435349 114.338729,42.2876279 114.515349,42.5515659 C114.691969,42.8155039 114.840806,43.0933333 114.96186,43.3870388 C115.082915,43.6797519 115.175194,43.9813953 115.236713,44.2929612 C115.298233,44.6045271 115.328992,44.9180775 115.328992,45.2355969" id="Fill-96" fill="#FFFFFF"></path>
            <path d="M110.498729,50.323845 C107.692651,50.323845 105.409488,48.0416744 105.409488,45.2355969 C105.409488,42.4295194 107.692651,40.1473488 110.498729,40.1473488 C113.303814,40.1473488 115.586977,42.4295194 115.586977,45.2355969 C115.586977,48.0416744 113.303814,50.323845 110.498729,50.323845 Z M110.498729,40.6643101 C107.976434,40.6643101 105.925457,42.7152868 105.925457,45.2375814 C105.925457,47.7608682 107.976434,49.8108527 110.498729,49.8108527 C113.021023,49.8108527 115.072,47.7608682 115.072,45.2375814 C115.072,42.7152868 113.021023,40.6643101 110.498729,40.6643101 L110.498729,40.6643101 Z" id="Fill-97" fill="#0E60A8"></path>
            <path d="M121.510698,82.7187597 L109.145302,82.7187597 L109.145302,75.3751318 L121.510698,75.3751318 L121.510698,82.7187597 Z M109.918264,81.9457984 L120.737736,81.9457984 L120.737736,76.1490853 L109.918264,76.1490853 L109.918264,81.9457984 L109.918264,81.9457984 Z" id="Fill-98" fill="#0E60A8"></path>
            <path d="M18.9231628,82.7187597 L6.17178295,82.7187597 L6.17178295,75.3751318 L18.9231628,75.3751318 L18.9231628,82.7187597 L18.9231628,82.7187597 Z M6.94474419,81.9457984 L18.1502016,81.9457984 L18.1502016,76.1490853 L6.94474419,76.1490853 L6.94474419,81.9457984 L6.94474419,81.9457984 Z" id="Fill-99" fill="#0E60A8"></path>
            <path d="M78.1941085,37.7530543 C78.0522171,37.7530543 77.936124,37.6369612 77.936124,37.4950698 L77.936124,20.0523411 C77.936124,19.9104496 78.0522171,19.7943566 78.1941085,19.7943566 C78.336,19.7943566 78.4511008,19.9104496 78.4511008,20.0523411 L78.4511008,37.4980465 C78.4511008,37.639938 78.336,37.7530543 78.1941085,37.7530543" id="Fill-100" fill="#0F5B9D"></path>
            <path d="M78.1941085,53.1219845 C78.0522171,53.1219845 77.936124,53.0058915 77.936124,52.8649922 L77.936124,44.7206202 C77.936124,44.5787287 78.0522171,44.4626357 78.1941085,44.4626357 C78.336,44.4626357 78.4511008,44.5787287 78.4511008,44.7206202 L78.4511008,52.8649922 C78.4511008,53.0088682 78.336,53.1219845 78.1941085,53.1219845" id="Fill-101" fill="#0F5B9D"></path>
            <path d="M73.6694574,58.4533333 L49.7155969,58.4533333 C49.5737054,58.4533333 49.4576124,58.3372403 49.4576124,58.1953488 C49.4576124,58.0534574 49.5737054,57.9373643 49.7155969,57.9373643 L73.6694574,57.9373643 C73.8113488,57.9373643 73.9274419,58.0534574 73.9274419,58.1953488 C73.9274419,58.3372403 73.8113488,58.4533333 73.6694574,58.4533333" id="Fill-102" fill="#0F5B9D"></path>
            <path d="M42.7817674,58.4533333 L25.5345116,58.4533333 C25.3926202,58.4533333 25.2775194,58.3372403 25.2775194,58.1953488 C25.2775194,58.0534574 25.3926202,57.9373643 25.5345116,57.9373643 L42.7847442,57.9373643 C42.9266357,57.9373643 43.0427287,58.0534574 43.0427287,58.1953488 C43.0427287,58.3372403 42.9266357,58.4533333 42.7817674,58.4533333" id="Fill-103" fill="#0F5B9D"></path>
        </g>
    </g>
</svg>