<?xml version="1.0" encoding="UTF-8"?>
<svg width="27px" height="27px" viewBox="0 0 27 27" version="1.1" xmlns="http://www.w3.org/2000/svg" xmlns:xlink="http://www.w3.org/1999/xlink">
    <title>Hutong-Dark</title>
    <g id="Hutong-Dark" stroke="none" stroke-width="1" fill="none" fill-rule="evenodd">
        <g id="signpost" transform="translate(0.089841, -0.015282)" fill="#FFFFFF" fill-rule="nonzero">
            <path d="M26.7172315,5.10649709 L25.6234176,2.92801514 C25.4812901,2.64481144 25.1961416,2.4689392 24.8792983,2.4689392 L14.9040943,2.4689392 L14.9040943,0.813553627 C14.9040943,0.364937514 14.5391568,0 14.0905932,0 L11.8377362,0 C11.3891726,0 11.0241825,0.364937514 11.0241825,0.813553627 L11.0241825,2.4689392 L8.1867316,2.4689392 C7.9689675,2.4689392 7.79251709,2.64544218 7.79251709,2.86315371 C7.79251709,3.08086525 7.9689675,3.25736823 8.1867316,3.25736823 L24.8792983,3.25736823 C24.8961181,3.25736823 24.9112034,3.26667169 24.9188249,3.28175696 L26.0126913,5.46029148 C26.0189462,5.47274866 26.0189462,5.48757112 26.0127439,5.5000283 L24.9187723,7.67861537 C24.9112034,7.69364809 24.8961181,7.70295155 24.8792983,7.70295155 L1.99346394,7.70295155 C1.97695949,7.70295155 1.96182166,7.69385834 1.95425274,7.67919356 L0.816549658,5.50055392 C0.809874292,5.48778137 0.809874292,5.47248585 0.81660222,5.45966073 L1.95420018,3.28117878 C1.96187422,3.26646144 1.97695949,3.25736823 1.99346394,3.25736823 L6.50669448,3.25736823 C6.72445857,3.25736823 6.90090899,3.08086525 6.90090899,2.86315371 C6.90090899,2.64544218 6.72445857,2.4689392 6.50669448,2.4689392 L1.99346394,2.4689392 C1.68229729,2.4689392 1.39946152,2.64029111 1.25533669,2.91618871 L0.117791296,5.09467066 C-0.0083047857,5.33603506 -0.00825222377,5.62428471 0.117738734,5.86559656 L1.25544181,8.04423619 C1.39951408,8.32008123 1.68234985,8.49138057 1.9935165,8.49138057 L11.0242351,8.49138057 L11.0242351,10.7272602 L4.94860104,11.2898831 C4.77278137,11.3061773 4.6121521,11.4053617 4.51895979,11.5550581 L3.30236124,13.5075237 C3.16349261,13.7303337 3.1947144,14.0170591 3.37820811,14.2049155 L4.9864982,15.8498938 C5.0935143,15.9593277 5.24179151,16.0206675 5.39369551,16.0206675 C5.41671763,16.0206675 5.43995001,16.0192483 5.46307726,16.0163574 L11.02413,15.3202797 L11.02413,17.8440936 L5.40305153,17.5400753 C5.40299897,17.5400753 5.40299897,17.5400753 5.40299897,17.5400753 C5.11096486,17.5243593 4.86119054,17.7471168 4.84084907,18.0365228 L4.66776262,20.5009417 C4.64752628,20.7902951 4.86613137,21.0459564 5.15506432,21.0709233 L11.02413,21.5780934 L11.02413,26.539467 C11.02413,26.7571785 11.2005804,26.9336815 11.4183445,26.9336815 C11.6361086,26.9336815 11.812559,26.7571785 11.812559,26.539467 L11.812559,21.6462137 L14.1156127,21.8452132 L14.1156127,23.1715085 C14.1156127,23.38922 14.2920631,23.565723 14.5098272,23.565723 C14.7275913,23.565723 14.9040417,23.38922 14.9040417,23.1715085 L14.9040417,21.9133334 L19.2521752,22.2890462 C19.2672605,22.2903602 19.2822932,22.2909909 19.2973785,22.2909909 C19.4473377,22.2909909 19.5931445,22.2271282 19.6944314,22.1152238 L20.9427773,20.7365243 C21.1085577,20.5533459 21.1276902,20.2824943 20.9890318,20.0777656 L19.9456249,18.5380688 C19.8524851,18.4006193 19.6978479,18.3132088 19.5319624,18.3041682 L14.9040417,18.0538683 L14.9040417,14.8345549 L22.8291726,13.842606 C23.1349254,13.8043409 23.356579,13.5239756 23.3232022,13.2175921 L22.9925351,10.1799327 C22.9591583,9.87354921 22.6818415,9.64732264 22.3756157,9.67586377 L18.1659829,10.0657156 C17.9491649,10.0857943 17.7897445,10.2778031 17.8098232,10.494621 C17.8299018,10.711439 18.0219106,10.8704389 18.238676,10.8508333 L22.2322793,10.4809549 L22.515956,13.0871859 L5.47369477,15.2203069 L4.06309012,13.7775344 L5.13025509,12.0649088 L11.4586595,11.4788433 L11.4587646,11.4788433 L16.5653668,11.0059435 C16.7821848,10.9858649 16.9416052,10.7938561 16.9215265,10.5770381 C16.9014478,10.3602202 16.7095968,10.2008524 16.4926737,10.2208259 L14.9040943,10.3679468 L14.9040943,8.49138057 L24.8792457,8.49138057 C25.1960891,8.49138057 25.4812376,8.31550834 25.6233125,8.0323572 L26.717284,5.85377012 C26.83476,5.61981695 26.83476,5.34050283 26.7172315,5.10649709 Z M11.8126115,0.813553627 C11.8126115,0.799677277 11.8238598,0.788429023 11.8377362,0.788429023 L14.0905932,0.788429023 C14.1044696,0.788429023 14.1157178,0.799677277 14.1157178,0.813553627 L14.1157178,2.4689392 L11.8126641,2.4689392 L11.8126641,0.813553627 L11.8126115,0.813553627 Z M20.224571,20.3551349 L19.1945148,21.492838 L14.5502474,21.0915276 C14.5501948,21.0915276 14.5501422,21.0915276 14.5500897,21.0915276 L5.47174998,20.3070407 L5.60983018,18.3409615 L19.3636591,19.0847655 L20.224571,20.3551349 Z M14.1156653,18.0112931 L11.8126115,17.8867213 L11.8126115,15.2215684 L14.1156653,14.9333187 L14.1156653,18.0112931 Z M14.1156653,10.4409553 L11.8126115,10.6542516 L11.8126115,8.49138057 L14.1156653,8.49138057 L14.1156653,10.4409553 Z" id="形状"></path>
            <path d="M2.56991068,5.48015989 C2.56991068,6.12625119 3.09553003,6.65187054 3.74162133,6.65187054 C4.38771263,6.65187054 4.91333198,6.12625119 4.91333198,5.48015989 C4.91333198,4.83406858 4.38771263,4.30844924 3.74162133,4.30844924 C3.09553003,4.30844924 2.56991068,4.83406858 2.56991068,5.48015989 Z M4.12490296,5.48015989 C4.12490296,5.69151143 3.95297287,5.86344152 3.74162133,5.86344152 C3.53026979,5.86344152 3.3583397,5.69151143 3.3583397,5.48015989 C3.3583397,5.26880835 3.53026979,5.09687826 3.74162133,5.09687826 C3.95297287,5.09687826 4.12490296,5.26880835 4.12490296,5.48015989 Z" id="形状"></path>
            <path d="M24.1467952,5.48015989 C24.1467952,4.83406858 23.6211758,4.30844924 22.9750845,4.30844924 C22.3289932,4.30844924 21.8033739,4.83406858 21.8033739,5.48015989 C21.8033739,6.12625119 22.3289932,6.65187054 22.9750845,6.65187054 C23.6211758,6.65187054 24.1467952,6.12625119 24.1467952,5.48015989 L24.1467952,5.48015989 Z M22.5918029,5.48015989 C22.5918029,5.26880835 22.763733,5.09687826 22.9750845,5.09687826 C23.1864361,5.09687826 23.3583662,5.26880835 23.3583662,5.48015989 C23.3583662,5.69151143 23.1864361,5.86344152 22.9750845,5.86344152 C22.763733,5.86344152 22.5918029,5.69151143 22.5918029,5.48015989 Z" id="形状"></path>
            <path d="M14.5098798,24.4573837 C14.2921157,24.4573837 14.1156653,24.6338866 14.1156653,24.8515982 L14.1156653,26.5395196 C14.1156653,26.7572311 14.2921157,26.9337341 14.5098798,26.9337341 C14.7276439,26.9337341 14.9040943,26.7572311 14.9040943,26.5395196 L14.9040943,24.8515982 C14.9040943,24.6338866 14.7276439,24.4573837 14.5098798,24.4573837 Z" id="路径"></path>
        </g>
    </g>
</svg>