<svg id="Layer_1" enable-background="new 0 0 70 70" height="512" viewBox="0 0 70 70" width="512" xmlns="http://www.w3.org/2000/svg"><path d="m20.0380859 37.9833984c-.5522461 0-1 .4477539-1 1v11c0 .5522461.4477539 1 1 1s1-.4477539 1-1v-11c0-.5522461-.4477539-1-1-1z"/><path d="m38.1533203 37.9833984c-.5522461 0-1 .4477539-1 1v8.1987305l-7.2260742-8.8320312c-.2685547-.3271484-.7119141-.4501953-1.1103516-.3085938-.3979492.1420898-.6635742.519043-.6635742.9418945v11c0 .5522461.4477539 1 1 1s1-.4477539 1-1v-8.1987304l7.2260742 8.8320312c.1938477.2368164.4799805.3666992.7739258.3666992.112793 0 .2260742-.019043.3364258-.0581055.3979492-.1420898.6635742-.519043.6635742-.9418945v-11c0-.5522461-.4477539-1-1-1z"/><path d="m50.9267578 48.6235352-5.0558472-4.6652832 4.9581909-3.5354004c.449707-.3208008.5541992-.9453125.2338867-1.3950195-.3208008-.4487305-.9453125-.5546875-1.3950195-.2338867l-4.3798828 3.1229858v-2.9335327c0-.5522461-.4477539-1-1-1s-1 .4477539-1 1v11c0 .5522461.4477539 1 1 1s1-.4477539 1-1v-3.8415527l4.2822266 3.951416c.1923828.1772461.4355469.2651367.6777344.2651367.2695312 0 .5380859-.1083984.7353516-.3217773.3745117-.4057618.349121-1.0385743-.0566407-1.413086z"/><path d="m61.4936523 25.3417969c-.7089844-2.574707-3.0678711-4.3730469-5.7363281-4.3730469h-6.171875v-3.6376953h2.5263672c1.2319336 0 2.2338867-1.0019531 2.2338867-2.2333984v-10.8637696c0-1.2319336-1.0019531-2.2338867-2.2338867-2.2338867h-34.2236328c-1.2319336 0-2.2338867 1.0019531-2.2338867 2.2338867v10.8637695c0 1.2314453 1.0019531 2.2333984 2.2338867 2.2333984h2.5263672v3.6376954h-6.3393555c-2.6674805 0-5.0258789 1.7949219-5.7348633 4.3652344-3.5039062 12.7070312-3.5039062 25.59375 0 38.3012695.7089844 2.5698242 3.0673828 4.3647461 5.7348633 4.3647461h41.8027344c2.6005859 0 4.9389648-1.7275391 5.6865234-4.2016602.7697144-2.548584 1.3660278-5.137146 1.809021-7.7581177.0158691-.0708008.0430298-.1375122.0430298-.2130737 0-.0078125-.0042725-.0142212-.0044556-.0219727 1.6084595-9.7381591.9759522-19.9485473-1.918396-30.4633788zm-52.984375 8.7983398h52.8568115c1.147522 7.0893555 1.2088623 14.0045776.1791382 20.6870117h-53.0361938c-1.0478516-6.8861084-1.0477295-13.8010864.0002441-20.6870117zm9.1450196-19.0424805v-10.8637695c0-.1289062.1049804-.2338867.2338867-.2338867h3.2333984v3.1235352c0 .5522461.4477539 1 1 1s1-.4477539 1-1v-3.1235352h6.5854492v3.1235352c0 .5522461.4477539 1 1 1s1-.4477539 1-1v-3.1235352h6.5859375v3.1235352c0 .5522461.4477539 1 1 1s1-.4477539 1-1v-3.1235352h6.5854492v3.1235352c0 .5522461.4477539 1 1 1s1-.4477539 1-1v-3.1235352h3.2333984c.1289062 0 .2338867.1049805.2338867.2338867v10.8637695c0 .1289062-.1049805.2333984-.2338867.2333984h-34.2236327c-.1289063.0000001-.2338867-.1044921-.2338867-.2333984zm4.7602539 2.2333985h25.1708984v3.6376953h-25.1708984zm-12.1464844 8.534668c.4707031-1.7055664 2.0361328-2.8969727 3.8071289-2.8969727h41.6821289c1.7714844 0 3.3369141 1.1943359 3.8076172 2.9042969.5789795 2.1029053 1.0552368 4.1913452 1.4492798 6.2670898h-52.1724243c.3809814-2.0952148.8508911-4.1874389 1.4262695-6.274414zm49.3813477 37.3544921c-.4941407 1.6367188-2.0449219 2.7797852-3.7714844 2.7797852h-41.8027344c-1.7709961 0-3.3364258-1.1914062-3.8071289-2.8964844-.5755615-2.0876465-1.0455322-4.180542-1.4265747-6.2763672h52.3648682c-.4055176 2.1565552-.9213868 4.2889405-1.5569458 6.3930664z"/></svg>