<?xml version="1.0" encoding="UTF-8"?>
<svg width="128px" height="128px" viewBox="0 0 128 128" version="1.1" xmlns="http://www.w3.org/2000/svg" xmlns:xlink="http://www.w3.org/1999/xlink">
    <title>爆-Icon</title>
    <defs>
        <polygon id="path-1" points="0.344990476 0.304761905 116.538514 0.304761905 116.538514 127.845181 0.344990476 127.845181"></polygon>
    </defs>
    <g id="爆-Icon" stroke="none" stroke-width="1" fill="none" fill-rule="evenodd">
        <g id="编组" transform="translate(6.095238, 0.000000)">
            <mask id="mask-2" fill="white">
                <use xlink:href="#path-1"></use>
            </mask>
            <g id="Clip-70"></g>
            <polyline id="Fill-69" fill="#EBD4AD" mask="url(#mask-2)" points="1.79321905 28.3684571 86.1830095 28.3684571 116.077714 74.5362286 32.257219 74.5362286 1.79321905 28.3684571"></polyline>
            <path d="M116.538514,74.7857676 L32.1231238,74.7857676 L32.049981,74.673859 L1.32998095,28.1197714 L86.3183238,28.1197714 L86.3914667,28.2343619 L116.538514,74.7857676 Z M32.3913143,74.2866895 L115.620571,74.2866895 L86.0464762,28.6183619 L2.25767619,28.6183619 L32.3913143,74.2866895 L32.3913143,74.2866895 Z" id="Fill-71" fill="#3E1313" mask="url(#mask-2)"></path>
            <polyline id="Fill-72" fill="#EBD4AD" mask="url(#mask-2)" points="116.077714 125.638095 32.257219 127.515672 32.257219 74.5362286 116.077714 74.5362286 116.077714 125.638095"></polyline>
            <path d="M32.0085333,127.771429 L32.0085333,74.2866895 L116.327619,74.2866895 L116.327619,125.884709 L116.08381,125.890926 L32.0085333,127.771429 Z M32.5071238,74.7857676 L32.5071238,127.260038 L115.829029,125.395261 L115.829029,74.7857676 L32.5071238,74.7857676 L32.5071238,74.7857676 Z" id="Fill-73" fill="#3E1313" mask="url(#mask-2)"></path>
            <polyline id="Fill-74" fill="#EBD4AD" mask="url(#mask-2)" points="32.257219 127.515672 0.597333333 118.566644 1.79321905 28.3684571 32.257219 74.5362286 32.257219 127.515672"></polyline>
            <path d="M32.5071238,127.845181 L0.344990476,118.755718 L0.348647619,118.56384 L1.55428571,27.5541333 L32.5071238,74.4628419 L32.5071238,127.845181 Z M0.850895238,118.38147 L32.0085333,127.186164 L32.0085333,74.609981 L2.03337143,29.185219 L0.850895238,118.38147 L0.850895238,118.38147 Z" id="Fill-75" fill="#3E1313" mask="url(#mask-2)"></path>
            <polyline id="Fill-76" fill="#977F55" mask="url(#mask-2)" points="75.6809143 36.8822857 83.9131429 36.8822857 104.535771 69.0480762 95.7366857 69.0480762 75.6809143 36.8822857"></polyline>
            <path d="M104.992914,69.2976152 L95.5989333,69.2976152 L95.5257905,69.1790019 L75.2298667,36.6299429 L84.0472381,36.6299429 L84.120381,36.7457524 L104.992914,69.2976152 Z M95.8780952,68.7985371 L104.081067,68.7985371 L83.7790476,37.1321905 L76.1344,37.1321905 L95.8780952,68.7985371 L95.8780952,68.7985371 Z" id="Fill-77" fill="#3E1313" mask="url(#mask-2)"></path>
            <polyline id="Fill-78" fill="#977F55" mask="url(#mask-2)" points="56.7015619 37.0492952 64.9337905 37.0492952 85.556419 69.2142324 76.7585524 69.2142324 56.7015619 37.0492952"></polyline>
            <path d="M86.0135619,69.4637714 L76.6208,69.4637714 L76.5476571,69.34528 L56.2505143,36.7993905 L65.0691048,36.7993905 L65.1422476,36.9152 L86.0135619,69.4637714 Z M76.8963048,68.9648152 L85.0992762,68.9648152 L64.7972571,37.297981 L57.1526095,37.297981 L76.8963048,68.9648152 L76.8963048,68.9648152 Z" id="Fill-79" fill="#3E1313" mask="url(#mask-2)"></path>
            <polyline id="Fill-80" fill="#977F55" mask="url(#mask-2)" points="37.989181 37.2955429 46.2177524 37.2955429 66.8440381 69.46048 58.0449524 69.46048 37.989181 37.2955429"></polyline>
            <path d="M67.2975238,69.710019 L57.9047619,69.710019 L57.8304,69.5918933 L37.5344762,37.0432 L46.3518476,37.0432 L46.4262095,37.1577905 L67.2975238,69.710019 Z M58.1827048,69.210941 L66.3856762,69.210941 L46.08,37.5454476 L38.4365714,37.5454476 L58.1827048,69.210941 L58.1827048,69.210941 Z" id="Fill-81" fill="#3E1313" mask="url(#mask-2)"></path>
            <polyline id="Fill-82" fill="#977F55" mask="url(#mask-2)" points="19.0610286 37.4272 27.2932571 37.4272 47.9158857 69.5918933 39.118019 69.5918933 19.0610286 37.4272"></polyline>
            <path d="M48.3730286,69.8414324 L38.9802667,69.8414324 L38.9071238,69.722819 L18.6136381,37.1772952 L27.4310095,37.1772952 L27.5053714,37.2918857 L48.3730286,69.8414324 Z M39.2582095,69.3423543 L47.4624,69.3423543 L27.1567238,37.6758857 L19.5120762,37.6758857 L39.2582095,69.3423543 L39.2582095,69.3423543 Z" id="Fill-83" fill="#3E1313" mask="url(#mask-2)"></path>
            <polygon id="Fill-84" fill="#CFE3F5" mask="url(#mask-2)" points="29.5131429 26.0022857 38.8779032 26.0022857 38.8779032 0.553691429 29.5131429 0.553691429"></polygon>
            <path d="M39.1302095,26.2521905 L29.2632381,26.2521905 L29.2632381,0.304761905 L39.1302095,0.304761905 L39.1302095,26.2521905 Z M29.7630476,25.752381 L38.629181,25.752381 L38.629181,0.803352381 L29.7630476,0.803352381 L29.7630476,25.752381 L29.7630476,25.752381 Z" id="Fill-85" fill="#3E1313" mask="url(#mask-2)"></path>
            <polyline id="Fill-86" fill="#E0EDF9" mask="url(#mask-2)" points="39.118019 69.5918933 25.3525333 47.5111619 25.3525333 26.0022857 39.3545143 26.0022857 39.118019 69.5918933"></polyline>
            <path d="M39.3642667,70.4552229 L25.1026286,47.5818667 L25.1026286,25.752381 L39.604419,25.752381 L39.3642667,70.4552229 Z M25.6024381,47.4404571 L38.8742095,68.7280762 L39.1021714,26.2546286 L25.6024381,26.2546286 L25.6024381,47.4404571 L25.6024381,47.4404571 Z" id="Fill-87" fill="#3E1313" mask="url(#mask-2)"></path>
            <polygon id="Fill-88" fill="#CFE3F5" mask="url(#mask-2)" points="49.8541714 31.2088381 58.9375025 31.2088381 58.9375025 5.85313524 49.8541714 5.85313524"></polygon>
            <path d="M59.1872,31.4563048 L49.6042667,31.4563048 L49.6042667,5.60030476 L59.1872,5.60030476 L59.1872,31.4563048 L59.1872,31.4563048 Z M50.1040762,30.9564952 L58.6886095,30.9564952 L58.6886095,6.10255238 L50.1040762,6.10255238 L50.1040762,30.9564952 L50.1040762,30.9564952 Z" id="Fill-89" fill="#3E1313" mask="url(#mask-2)"></path>
            <polyline id="Fill-90" fill="#E0EDF9" mask="url(#mask-2)" points="58.0449524 69.46048 40.8673524 41.9132952 40.8673524 31.2064 58.9372952 31.2064 58.0449524 69.46048"></polyline>
            <path d="M58.2729143,70.3018667 L40.6150095,41.984 L40.6150095,30.9564952 L59.1932952,30.9564952 L58.2729143,70.3018667 Z M41.1172571,41.8401524 L57.8145524,68.619581 L58.6812952,31.4563048 L41.1172571,31.4563048 L41.1172571,41.8401524 L41.1172571,41.8401524 L41.1172571,41.8401524 Z" id="Fill-91" fill="#3E1313" mask="url(#mask-2)"></path>
            <path d="M106.169295,91.9604419 L42.4021333,91.9604419 C41.5548952,91.9604419 40.8673524,91.272899 40.8673524,90.4252952 L40.8673524,87.6937752 C40.8673524,86.8461714 41.5548952,86.1586286 42.4021333,86.1586286 L106.169295,86.1586286 C107.017752,86.1586286 107.705295,86.8461714 107.705295,87.6937752 L107.705295,90.4252952 C107.705295,91.272899 107.017752,91.9604419 106.169295,91.9604419" id="Fill-92" fill="#E0C595" mask="url(#mask-2)"></path>
            <path d="M106.73859,101.420983 L42.9689905,101.420983 C42.1205333,101.420983 41.4329905,100.733318 41.4329905,99.8857143 L41.4329905,97.1543162 C41.4329905,96.3067124 42.1205333,95.6190476 42.9689905,95.6190476 L106.736152,95.6190476 C107.58339,95.6190476 108.27094,96.3067124 108.27094,97.1543162 L108.27094,99.8857143 C108.273371,100.733318 107.585829,101.420983 106.73859,101.420983" id="Fill-93" fill="#E0C595" mask="url(#mask-2)"></path>
            <path d="M107.116495,112.771413 L43.3493333,112.771413 C42.5008762,112.771413 41.8133333,112.083749 41.8133333,111.236632 L41.8133333,108.505234 C41.8133333,107.65763 42.5008762,106.969966 43.3493333,106.969966 L107.116495,106.969966 C107.963733,106.969966 108.651276,107.65763 108.651276,108.505234 L108.651276,111.236632 C108.651276,112.083749 107.963733,112.771413 107.116495,112.771413" id="Fill-94" fill="#E0C595" mask="url(#mask-2)"></path>
            <polyline id="Fill-95" fill="#FFFFFF" mask="url(#mask-2)" points="32.257219 58.5866971 25.3525333 47.5111619 25.3525333 26.0022857 32.257219 26.0022857 32.257219 58.5866971"></polyline>
            <polyline id="Fill-96" fill="#FFFFFF" mask="url(#mask-2)" points="49.9029333 56.0404724 41.1196952 42.2948571 41.1196952 31.5550476 49.9029333 31.5550476 49.9029333 56.0404724"></polyline>
            <path d="M57.9462095,69.46048 C57.8243048,69.46048 57.7121524,69.4000152 57.6451048,69.2943238 L40.6174476,41.9876571 L40.6174476,30.9564952 L59.1932952,30.9564952 L58.3046095,69.1119543 C58.3009524,69.2718933 58.1948952,69.4062324 58.0425143,69.4475581 C58.0071619,69.4542629 57.9742476,69.46048 57.9462095,69.46048 Z M41.1172571,41.8401524 L57.8145524,68.619581 L58.6812952,31.4563048 L41.1172571,31.4563048 L41.1172571,41.8401524 L41.1172571,41.8401524 L41.1172571,41.8401524 Z" id="Fill-97" fill="#3E1313" mask="url(#mask-2)"></path>
            <path d="M39.3642667,70.4552229 L25.1026286,47.5818667 L25.1026286,25.752381 L39.604419,25.752381 L39.3642667,70.4552229 Z M25.6024381,47.4404571 L38.8742095,68.7280762 L39.1021714,26.2546286 L25.6024381,26.2546286 L25.6024381,47.4404571 L25.6024381,47.4404571 Z" id="Fill-98" fill="#3E1313" mask="url(#mask-2)"></path>
        </g>
    </g>
</svg>