<?xml version="1.0" encoding="UTF-8"?>
<svg width="27px" height="27px" viewBox="0 0 27 27" version="1.1" xmlns="http://www.w3.org/2000/svg" xmlns:xlink="http://www.w3.org/1999/xlink">
    <title>Food</title>
    <g id="Food" stroke="none" stroke-width="1" fill="none" fill-rule="evenodd">
        <g id="spring-rolls" fill="#000000" fill-rule="nonzero">
            <path d="M21.2284833,15.1364677 L13.2458622,9.94318053 C12.8343809,9.67551691 12.3557988,9.56329473 11.8762128,9.61718674 L11.6442658,8.35267953 C11.5144495,7.64489787 10.9238037,7.09863372 10.207991,7.02434729 L9.91850644,6.99433684 C9.79783062,6.98181487 9.6789512,6.94229407 9.57475999,6.88000125 C9.09755157,6.59469064 8.51493673,6.57123177 8.01638286,6.81702158 C7.56728282,7.03840148 7.25079938,7.44713535 7.14523445,7.92946879 C7.0918708,7.94188509 7.03898267,7.95757717 6.9869399,7.97707339 C6.59072799,8.12527641 6.29368794,8.45893132 6.192297,8.86967293 L6.1419978,9.07345868 C6.11859176,9.16829804 6.06797555,9.25299302 5.99559119,9.31850879 L5.83988556,9.4593677 C5.52614956,9.74304042 5.37292719,10.1627112 5.42998932,10.5817479 C5.43807312,10.6409235 5.45059508,10.698831 5.46649851,10.7554704 C5.07831757,11.0771317 4.86005495,11.5578273 4.87807179,12.0675294 C4.89767368,12.6230925 5.19423821,13.1250279 5.67134096,13.4101272 C5.77553217,13.4724728 5.86667306,13.5584887 5.93488343,13.6588229 L6.09846151,13.8997519 C6.40680832,14.3535543 6.92226949,14.6133982 7.45331708,14.6133982 C7.61879723,14.6133982 7.78580961,14.588143 7.94854233,14.5356775 L9.19841416,14.1327027 C9.37985057,14.57113 9.70161754,14.9317309 10.1254095,15.1636779 L11.9676178,16.1718811 C12.1595685,16.2770761 12.4003389,16.2064882 12.5054812,16.0144847 C12.6105177,15.8224812 12.5400883,15.5817108 12.3480848,15.4766214 L10.5058765,14.4684182 C10.1928801,14.2971262 9.96891132,14.0131364 9.8751815,13.6688088 C9.78155735,13.324534 9.83079985,12.9662578 10.0138742,12.6599716 L10.9879457,11.0304253 C11.17102,10.7241391 11.4633049,10.5111072 11.8109083,10.4305862 C12.1584589,10.3500123 12.5145688,10.4128335 12.8137223,10.6074787 L14.632419,11.7906724 L14.3113388,13.0288148 C14.2119556,13.4120821 14.4428987,13.8048597 14.8262188,13.9043485 L15.6044299,14.1061265 C15.664715,14.1217658 15.7251058,14.1292156 15.7845983,14.1292156 C16.1039349,14.1292156 16.3961669,13.9143344 16.4799637,13.5911937 L16.6127916,13.0790083 L20.7963434,15.8007131 C21.3849286,16.1835577 21.5637233,16.9556399 21.2034922,17.5584378 L20.6008528,18.566641 C20.2405689,19.1693861 19.475778,19.3773458 18.8599297,19.0403094 L13.8322812,16.2889641 C13.6403306,16.1838218 13.3995601,16.254357 13.2944179,16.4463604 C13.1893813,16.6383639 13.2598107,16.8791344 13.4518142,16.9842238 L18.4793571,19.7356748 C18.800173,19.9112465 19.14598,19.9949376 19.4868205,19.9949376 C20.1989875,19.9949376 20.888858,19.629423 21.2810016,18.9733671 L21.883641,17.9651639 C22.4635084,16.9951607 22.1756617,15.752633 21.2284833,15.1364677 L21.2284833,15.1364677 Z M7.70523578,13.7814008 C7.35293001,13.8949967 6.96184313,13.760478 6.75393623,13.454456 L6.59030531,13.2134742 C6.45763587,13.0183006 6.28047912,12.8510769 6.07785575,12.7299784 C5.82889582,12.5811413 5.68021729,12.3295396 5.66996724,12.0396323 C5.66156643,11.801081 5.748639,11.5819202 5.91221709,11.4191874 C5.9779442,11.4703848 6.048902,11.5157704 6.12487916,11.5538646 C6.20407928,11.5935968 6.2710216,11.6540932 6.31841486,11.7289608 L6.67278121,12.2884338 C6.9062604,12.65696 7.3193796,12.8837291 7.75484813,12.8836762 C7.76155821,12.8836762 7.76832113,12.8836234 7.77503121,12.8835177 L9.0883054,12.8624893 C9.05147919,13.0230558 9.03362086,13.187215 9.03599845,13.352431 L7.70523578,13.7814008 Z M9.44674006,12.0640423 L7.76240358,12.0910411 C7.75981465,12.0910939 7.75722572,12.0910939 7.75468962,12.0910939 C7.58868111,12.0910939 7.43128476,12.0046554 7.34231012,11.864272 L6.98794377,11.3048518 C6.86356947,11.1084102 6.68789211,10.9494816 6.47998521,10.8452904 C6.3337371,10.7720079 6.23720701,10.6370137 6.21512185,10.4748621 C6.19308953,10.3128163 6.24999315,10.1568993 6.37135583,10.0471076 L6.52711429,9.90624865 C6.71700436,9.7344811 6.8498323,9.512203 6.91127975,9.26340158 L6.96157895,9.05961583 C7.00078275,8.90074009 7.11115568,8.77673564 7.26437805,8.71946218 C7.41765325,8.66208304 7.58234088,8.68321716 7.71601418,8.77731683 C7.90622126,8.9110958 8.12934472,8.99061293 8.36134452,9.00720321 L9.02183859,9.05443797 C9.19027752,9.06653725 9.34302437,9.16713566 9.42053375,9.31708224 L10.1943067,10.8133779 L9.44674006,12.0640423 Z M10.7279432,10.1195976 L10.1246698,8.9529942 C9.92120104,8.55958256 9.52033963,8.29551174 9.07853087,8.26391623 L8.4180368,8.21668147 C8.32959051,8.21034124 8.24457851,8.18006661 8.17208848,8.12908055 C8.10044382,8.07867567 8.02446666,8.03677728 7.94574206,8.00254001 C8.01638286,7.79632384 8.16342349,7.62825475 8.36689223,7.52792052 C8.62710607,7.39968925 8.91907393,7.41147152 9.16819237,7.56030856 C9.37081574,7.68140706 9.60197017,7.75833526 9.83677024,7.78269233 L10.1262548,7.81270278 C10.4943584,7.8509027 10.7980028,8.13177515 10.8647866,8.49570469 L11.1137466,9.85304351 C10.9751067,9.92706576 10.8459244,10.0163574 10.7279432,10.1195976 Z M15.7313932,13.3204657 L15.0970526,13.1559894 L15.3329093,12.2465354 L15.9121427,12.6234096 L15.7313932,13.3204657 Z" id="形状"></path>
            <path d="M13.4153579,12.0292766 C13.3719801,11.546362 12.9436971,11.1885614 12.4607825,11.2322561 L12.0158036,11.2723053 C11.7818489,11.2933338 11.5701379,11.4042879 11.4196101,11.5846148 C11.2690823,11.7649416 11.1978075,11.9930316 11.2188888,12.2269335 L11.309924,13.2385181 C11.3510299,13.6947509 11.7355652,14.0390257 12.1851936,14.0390257 C12.2114527,14.0390257 12.2379761,14.0378633 12.264605,14.0354858 L12.7094254,13.9953838 C13.1923401,13.952006 13.5498765,13.523723 13.5064459,13.0407556 L13.4153579,12.0292766 Z M12.6383619,13.2060244 L12.1935416,13.2461264 C12.1463068,13.2501419 12.1035631,13.2151121 12.0992306,13.1674546 L12.0081953,12.15587 C12.0039157,12.1082126 12.0392097,12.0658915 12.0868143,12.0616118 L12.5317403,12.0215627 C12.5343821,12.0213513 12.536971,12.0211928 12.5395599,12.0211928 C12.5839416,12.0211928 12.6219302,12.0552188 12.6259985,12.1002344 L12.6259985,12.1002873 L12.7170865,13.1117662 C12.7213662,13.1594237 12.6860722,13.2017447 12.6383619,13.2060244 L12.6383619,13.2060244 Z" id="形状"></path>
            <path d="M18.2783187,15.2793344 L17.0808067,14.7912947 C16.8777606,14.7085018 16.6544258,14.709717 16.4521195,14.7948347 C16.249866,14.8799523 16.0928394,15.0387224 16.0100465,15.241927 L15.7694346,15.8322029 C15.5986181,16.2516095 15.8008188,16.7319352 16.2201725,16.9029102 L17.4176846,17.3909499 C17.5178603,17.4317388 17.622844,17.4521332 17.7278278,17.4521332 C17.835876,17.4521332 17.9438713,17.4305764 18.0464246,17.3873571 C18.2486253,17.3022394 18.4056518,17.1434694 18.4884447,16.9402648 L18.7290038,16.3500945 C18.8117968,16.14689 18.8105815,15.923608 18.7254639,15.7213545 C18.6402934,15.5192066 18.4815233,15.3621801 18.2783187,15.2793344 L18.2783187,15.2793344 Z M17.9950687,16.0509939 L17.7545096,16.6411642 C17.7534,16.6439644 17.7499658,16.6523124 17.7389232,16.6569619 C17.7277749,16.6616114 17.7195855,16.6581243 17.7167852,16.6570676 L16.5192731,16.1690279 C16.5044793,16.1630047 16.4973465,16.1459918 16.5033169,16.1313035 L16.743876,15.5411333 C16.7449855,15.5383858 16.7484198,15.5300378 16.7594624,15.5253355 C16.7636892,15.5235919 16.7674934,15.5229579 16.770822,15.5229579 C16.7761055,15.5229579 16.7799097,15.5244901 16.7816532,15.5252298 L17.9791653,16.0132695 C17.994012,16.0192927 18.0011448,16.0362528 17.9950687,16.0509939 L17.9950687,16.0509939 Z" id="形状"></path>
            <path d="M13.4449985,14.9322064 L13.5965829,15.1019134 C13.6748848,15.1895672 13.7833029,15.234213 13.8923021,15.234213 C13.9862433,15.234213 14.0805543,15.2009796 14.1561087,15.1335089 C14.3193698,14.9876835 14.333424,14.7371914 14.1877042,14.5739831 L14.0361198,14.4042761 C13.8902415,14.2410679 13.6397494,14.2270137 13.476594,14.3726806 C13.3133329,14.5185061 13.2992259,14.7689982 13.4449985,14.9322064 L13.4449985,14.9322064 Z" id="路径"></path>
            <path d="M19.2584664,17.8623464 L19.0675724,17.8906133 C18.8510534,17.9226315 18.7015295,18.1241453 18.7336533,18.3406644 C18.7628184,18.5375287 18.9319442,18.678916 19.1251101,18.678916 C19.1444478,18.678916 19.1639969,18.6775423 19.1836516,18.6745835 L19.3745455,18.6463166 C19.5910646,18.6142984 19.7405885,18.4127846 19.7084646,18.1962655 C19.6763936,17.9796936 19.4740872,17.8298527 19.2584664,17.8623464 L19.2584664,17.8623464 Z" id="路径"></path>
            <path d="M19.932909,17.168619 C19.9494464,17.168619 19.9661424,17.1675623 19.982944,17.1654488 C20.2000971,17.1380273 20.3539006,16.9398421 20.3265848,16.7227419 L20.2770253,16.3293302 C20.2496037,16.1121243 20.0509958,15.9584264 19.8343183,15.9856895 C19.6171652,16.013111 19.4633617,16.2112962 19.4906775,16.4283964 L19.540237,16.8218081 C19.5655451,17.0222124 19.7362031,17.168619 19.932909,17.168619 Z" id="路径"></path>
            <path d="M24.0960135,12.71212 L22.9537143,11.485073 C22.8046131,11.3249293 22.5538568,11.3158416 22.3936602,11.4650485 C22.2334635,11.6141497 22.2245344,11.864906 22.3736356,12.0251026 L23.5159347,13.2521496 C23.9944112,13.7661314 23.9811495,14.5585024 23.4857658,15.0561581 L22.881013,15.663764 C22.7266282,15.8188884 22.7272094,16.0698033 22.882281,16.2241352 C22.9596319,16.3011162 23.0607058,16.3395803 23.1618326,16.3395803 C23.2635405,16.3395803 23.3653013,16.3006935 23.4426522,16.2228671 L24.047405,15.6152612 C24.8446897,14.8144366 24.8660351,13.5392038 24.0960135,12.71212 L24.0960135,12.71212 Z" id="路径"></path>
            <path d="M10.3080083,5.58183796 C10.3751619,5.63948127 10.425514,5.71440173 10.453411,5.79856836 L10.5790533,6.17734462 C10.6342134,6.3436173 10.788968,6.44897089 10.9550822,6.44897089 C10.9963994,6.44897089 11.0385091,6.44247214 11.0798791,6.42868213 C11.2876275,6.3597849 11.4001667,6.13555189 11.3312167,5.92785633 L11.2055743,5.54908008 C11.1323446,5.32822853 11.0003092,5.13157555 10.8238921,4.98030809 C10.6997292,4.87379213 10.6387572,4.71940738 10.6565627,4.55678033 C10.6743682,4.39415328 10.7673055,4.25667584 10.9115987,4.1795363 L11.0967336,4.08052295 C11.3226573,3.95974146 11.5053618,3.77619163 11.6250866,3.54979238 L11.7232546,3.3640763 C11.7997073,3.21946609 11.9368149,3.12589478 12.0992834,3.10734959 C12.2619104,3.08859305 12.4165065,3.14908947 12.5236037,3.27282974 C12.6757693,3.44861278 12.8730563,3.57974999 13.0940664,3.65187017 L13.7235461,3.85750516 C13.884007,3.90991777 14.0079057,4.04454211 14.0468453,4.20875422 L14.4356075,5.84781086 L13.2518854,7.03692209 C12.8291502,7.46161222 12.60851,8.04850672 12.6465514,8.64707782 C12.6604471,8.86549894 12.8481181,9.0311376 13.0671732,9.01745326 C13.2855944,9.00350474 13.4513915,8.81525257 13.4375487,8.59683145 C13.4138785,8.2246596 13.5509332,7.85993754 13.8135775,7.59607806 L15.1529523,6.25062717 C15.3993762,6.00304096 15.725687,5.86757126 16.0740301,5.86757126 C16.0815327,5.86757126 16.0889825,5.86762409 16.0965379,5.86772977 C16.4533347,5.87370015 16.7837138,6.02079363 17.0268619,6.28201134 L18.5052463,7.87002908 L17.8940476,8.99383588 C17.7049501,9.34175632 17.8340796,9.77870424 18.1819472,9.96790745 L18.8880909,10.3519672 C18.9949239,10.4101389 19.1120069,10.439621 19.230358,10.439621 C19.2987269,10.439621 19.3675184,10.4297408 19.4348834,10.4098747 C19.6188031,10.3555072 19.7705989,10.232718 19.862321,10.0641734 L20.1150851,9.59938124 L21.1928195,10.7570555 C21.2709101,10.8409051 21.3767392,10.8833318 21.4829381,10.8833318 C21.5795739,10.8833318 21.6765266,10.8481435 21.7528208,10.77708 C21.9130174,10.6279788 21.9219466,10.3772225 21.7728454,10.2170259 L17.6068349,5.74214026 C17.2723875,5.38291306 16.8352282,5.15831021 16.3567518,5.09443233 L16.4376426,3.81137994 C16.4829225,3.09318973 16.0420647,2.42027936 15.3655087,2.17507074 L15.0918219,2.07584605 C14.9776976,2.03447601 14.8718685,1.96732235 14.7858527,1.88167633 C14.3918598,1.48942707 13.8321755,1.32563764 13.2890815,1.44361887 C12.799721,1.54981782 12.3937345,1.86978838 12.1746265,2.31233685 C12.1198363,2.31149148 12.0646234,2.31386907 12.0094106,2.32015647 C11.5892114,2.36813092 11.2202625,2.61999679 11.0226057,2.99385936 L10.9243849,3.17962827 C10.878788,3.26590832 10.8091511,3.33580942 10.7230295,3.38182896 L10.5378947,3.48084231 C10.1648246,3.68018989 9.91464947,4.05024833 9.86862992,4.47071163 C9.82261038,4.89117494 9.98692816,5.30640755 10.3080083,5.58183796 L10.3080083,5.58183796 Z M19.2016156,9.62003984 L18.6259222,9.30693786 L19.0748109,8.48159766 L19.5457319,8.98738998 L19.2016156,9.62003984 Z M13.4573091,2.21792017 C13.7408761,2.15631421 14.0213787,2.23857877 14.2269609,2.44326272 C14.3942374,2.60969391 14.5999252,2.74024993 14.8218335,2.82071809 L15.0955732,2.91994278 C15.4434408,3.04606064 15.6701571,3.39202617 15.6468567,3.76134491 L15.5599955,5.13791578 C15.4076713,5.17622138 15.2606307,5.23175127 15.1211455,5.30350161 L14.818135,4.02578558 C14.7158459,3.59486089 14.3908031,3.24165691 13.9697586,3.10412663 L13.3402261,2.89843881 C13.2560066,2.87091162 13.180822,2.8210351 13.1228616,2.75403994 C13.0655353,2.68778448 13.0019216,2.62876745 12.9338169,2.57651334 C13.0522737,2.3935447 13.2355593,2.26600029 13.4573091,2.21792017 L13.4573091,2.21792017 Z" id="形状"></path>
            <path d="M17.1103416,8.81039172 L17.2667341,7.8068909 L17.2667341,7.80683806 C17.3029263,7.57473259 17.246551,7.34252146 17.1080169,7.15284273 C16.9694827,6.96316401 16.76538,6.83878972 16.5333273,6.80265038 L16.0919412,6.73385882 C15.6134119,6.65930821 15.1623042,6.98815511 15.0877007,7.4672656 L14.9313082,8.47081926 C14.8951161,8.70292473 14.9515442,8.93513586 15.0900783,9.12486742 C15.2286125,9.31454614 15.4327152,9.43892044 15.6647679,9.47505978 L16.1061539,9.54385134 C16.1519621,9.55103694 16.1978232,9.55452407 16.2433672,9.55452407 C16.4283436,9.55452407 16.6079836,9.49624674 16.7602021,9.38508127 C16.949828,9.24654712 17.0742551,9.04244436 17.1103416,8.81039172 L17.1103416,8.81039172 Z M16.483715,7.68484136 L16.3273225,8.68834218 C16.3227258,8.71771861 16.305977,8.73541844 16.2927154,8.7450873 C16.2794537,8.75470332 16.2574742,8.76511187 16.2282035,8.76077938 L15.7868174,8.69198782 C15.757441,8.68739115 15.7397411,8.67064236 15.7301251,8.6573807 C15.7204034,8.64411904 15.7098364,8.62213956 15.7143802,8.59281596 L15.8707727,7.5892623 C15.8774828,7.54646571 15.9145203,7.51582124 15.9565244,7.51582124 C15.9609625,7.51582124 15.9654535,7.51619108 15.9699445,7.51687794 L16.4113306,7.5856695 C16.4585654,7.59306644 16.4910591,7.63755376 16.483715,7.68484136 L16.483715,7.68484136 Z" id="形状"></path>
            <path d="M20.1551871,13.0276524 C20.0089918,13.1905437 20.0225705,13.4410886 20.1854088,13.5872839 C20.2611218,13.6551773 20.355697,13.688622 20.4499552,13.688622 C20.5585846,13.688622 20.6667913,13.6442404 20.7450403,13.5570621 L21.2964823,12.9425876 C21.5924129,12.6129482 21.5649385,12.1039857 21.2352991,11.8080552 L20.7340506,11.3581098 C20.4043583,11.0621793 19.8953959,11.089865 19.5995711,11.4193988 L18.8931103,12.2064862 C18.7468622,12.3693774 18.7604408,12.6198696 18.9232792,12.7660649 C19.0861705,12.912313 19.3367154,12.8987343 19.4828579,12.7358959 L20.1893187,11.9488085 C20.1933341,11.9444231 20.2002556,11.9440533 20.2046937,11.9479103 L20.7058894,12.3978028 C20.7103275,12.4018183 20.7106974,12.4086869 20.7066819,12.4131779 L20.1551871,13.0276524 Z" id="路径"></path>
            <path d="M16.699283,10.8321873 C16.7702408,10.9669173 16.9078239,11.0438983 17.0502679,11.0438983 C17.1125079,11.0438983 17.1756461,11.0291573 17.2345574,10.9981429 C17.4281988,10.8961708 17.5024852,10.6565099 17.4005131,10.4628685 L17.2944726,10.2615132 C17.1925005,10.0679247 16.9529981,9.9935854 16.7591982,10.0955575 C16.5655569,10.1975297 16.4912704,10.4371906 16.5932426,10.6308319 L16.699283,10.8321873 Z" id="路径"></path>
            <path d="M22.8842887,13.6392738 C22.9102309,13.4220151 22.7552121,13.2247281 22.5378477,13.1987331 C22.3204833,13.172791 22.1233019,13.3277569 22.097307,13.5451742 L22.0501779,13.9389557 C22.0242357,14.1562144 22.1792545,14.3535014 22.3966189,14.3794964 C22.412628,14.3813985 22.4284786,14.3823495 22.4441707,14.3823495 C22.6419332,14.3823495 22.8130139,14.2344107 22.8371597,14.0331082 L22.8842887,13.6392738 Z" id="路径"></path>
            <path d="M20.2546231,20.620032 C20.0451311,20.5566297 19.8239626,20.6748751 19.7604017,20.8842613 L19.5116531,21.7045822 C19.307973,22.3765415 18.6162533,22.7636129 17.9370555,22.5854523 L13.1091773,21.3197299 L13.3988732,20.8770229 C13.5039098,20.7165093 13.5402077,20.5246643 13.500951,20.3368348 C13.4617472,20.1490053 13.3516913,19.987752 13.1911777,19.8826626 L12.5185315,19.4425445 C12.3580707,19.3375608 12.1662257,19.301263 11.9783434,19.3404668 C11.7905139,19.3796705 11.6292606,19.4897265 11.524224,19.6502401 L10.8238393,20.7205776 L8.72506272,20.1703508 C8.37988971,20.0798439 8.09389224,19.8585169 7.91969426,19.5471056 C7.74549628,19.2356944 7.7066095,18.8761501 7.81016669,18.5346756 L8.36102751,16.7179339 C8.46902286,16.3616654 8.72537973,16.0682182 9.06437101,15.9128296 C9.26334874,15.8216359 9.35068549,15.5864659 9.25943893,15.387541 C9.1682452,15.1886161 8.93323379,15.1011209 8.73415039,15.1924731 C8.18889011,15.4423841 7.77640493,15.914626 7.60252396,16.4880475 L7.11569952,18.0937122 L5.48805531,18.5273843 C5.32489991,18.5707093 5.14779599,18.5254823 5.02558794,18.4089804 L4.54642462,17.9519023 C4.37814419,17.7914415 4.16928625,17.6797476 3.94235865,17.6289729 C3.78274321,17.5932034 3.65636117,17.4855251 3.59570625,17.3335708 C3.53505133,17.1816164 3.55264548,17.0166118 3.64373354,16.8808251 L3.7608694,16.7063629 C3.90363037,16.4937009 3.97876217,16.2458505 3.97812814,15.9897049 L3.97759979,15.7797375 C3.97722994,15.6161065 4.05431664,15.4691187 4.18915233,15.3764456 C4.32404084,15.2837725 4.4887813,15.264382 4.64131681,15.3232933 C4.85825855,15.4070901 5.09395682,15.4302848 5.32310351,15.3901828 L5.71619813,15.3214969 C5.93176615,15.2838254 6.07600651,15.0785602 6.03833494,14.8629394 C6.00071621,14.6473185 5.79529257,14.5026555 5.57977739,14.5408025 L5.18662993,14.6094884 C5.09945169,14.6247578 5.00952601,14.6158815 4.9268916,14.5840218 C4.53215909,14.4315392 4.08865959,14.4837404 3.74015796,14.7234013 C3.39160349,14.9630094 3.18411927,15.3585873 3.18507031,15.7816395 L3.18559866,15.991607 C3.18581,16.0892466 3.15717327,16.1837162 3.10285859,16.2647127 L2.98572273,16.439122 C2.75002446,16.7902654 2.70284254,17.2345046 2.85960487,17.627335 C2.88021064,17.6790079 2.90419786,17.728726 2.93087969,17.7766476 C2.64493505,18.1791997 2.55532639,18.688215 2.69349069,19.1694917 C2.84687156,19.7038151 3.25608095,20.1191534 3.78818524,20.2804595 C3.9042644,20.3156479 4.01347496,20.3769896 4.10398182,20.4579333 L4.32092356,20.6519974 C4.62631159,20.9252087 5.01760981,21.0654336 5.4108101,21.0653807 C5.70816716,21.0653807 6.0066866,20.9851239 6.26985922,20.8215458 L7.36164784,20.1427179 C7.64442235,20.5339105 8.04924641,20.8126167 8.52402441,20.9371495 L17.7360701,23.3521981 C17.9156573,23.3992744 18.0956143,23.4217822 18.2726654,23.4217822 C19.1735072,23.4217822 19.9960471,22.8383749 20.2701038,21.9346799 L20.5188524,21.1143591 C20.5823076,20.9048143 20.4640622,20.68354 20.2546231,20.620032 L20.2546231,20.620032 Z M5.85145649,20.1484241 C5.53708647,20.3437562 5.12502397,20.3078811 4.84932938,20.0612459 L4.63244048,19.8671818 C4.45639327,19.7097855 4.24394253,19.5903249 4.0181773,19.5219032 C3.74052781,19.4377365 3.53536834,19.2295126 3.45532286,18.9506479 C3.39276587,18.7326495 3.41823248,18.5107941 3.52337473,18.3197945 C3.6016238,18.3550356 3.68378269,18.3830911 3.76927021,18.4022175 C3.85576159,18.4216081 3.93538439,18.4641405 3.99942077,18.5252709 L4.47853126,18.9822963 C4.71861485,19.2113901 5.03980063,19.3356587 5.36579443,19.3356587 C5.47495215,19.3356587 5.58474391,19.3217102 5.69210523,19.2930735 L6.96120911,18.9549276 C6.96416788,19.1116371 6.98498499,19.2673427 7.02344909,19.4196669 L5.85145649,20.1484241 Z M12.1466767,20.1464164 L12.6950542,20.5052209 L12.3007444,21.1078075 L11.6322194,20.9325528 L12.1466767,20.1464164 Z" id="形状"></path>
            <path d="M8.51060424,18.481629 C8.47837471,18.7143156 8.53871262,18.9455757 8.68046973,19.132824 L8.95003542,19.4890396 C9.12275401,19.7172353 9.38597947,19.8373827 9.65226937,19.8373827 C9.83714008,19.8373827 10.0234373,19.7794752 10.1818376,19.659592 L10.1818904,19.659592 L10.9916442,19.0466497 C11.3782929,18.7541006 11.4548513,18.2014962 11.1622494,17.8148475 L10.8926308,17.4586848 C10.600029,17.072036 10.0474246,16.9955305 9.66077586,17.2881324 L8.85102207,17.9010747 C8.6636681,18.042779 8.54278094,18.2489952 8.51060424,18.481629 Z M9.29557827,18.5903112 C9.29785019,18.5740907 9.30551131,18.5510017 9.32923436,18.5330377 L10.1389881,17.9200954 C10.1546802,17.9082075 10.1731197,17.9025013 10.1913479,17.9025013 C10.2176071,17.9025013 10.243602,17.9143892 10.2606678,17.936897 L10.5302864,18.2930598 C10.5481975,18.3167828 10.5492542,18.3410871 10.5470352,18.3573603 C10.5447632,18.3736336 10.5371021,18.3967226 10.5133791,18.4146866 L9.70362528,19.0276289 C9.66537253,19.056477 9.6108465,19.0489216 9.58194559,19.0107745 L9.31232706,18.6546117 C9.29446873,18.6308887 9.29335919,18.6065316 9.29557827,18.5903112 L9.29557827,18.5903112 Z" id="形状"></path>
            <path d="M15.3342831,18.7703739 C15.1284896,18.696246 14.9013506,18.8027619 14.8270642,19.0087667 L14.4683654,20.0036026 C14.3179961,20.4203146 14.5347793,20.8816196 14.951597,21.0319888 L15.5851451,21.2603958 C15.6741725,21.2924669 15.7662645,21.3084231 15.8581451,21.3084231 C15.9746469,21.3084231 16.090726,21.2827452 16.1993554,21.2317063 C16.393578,21.1404069 16.5406186,20.978995 16.6134256,20.7771114 L16.8935056,20.0003796 C16.9676863,19.7945333 16.8610119,19.5674472 16.6551127,19.4931608 C16.4493192,19.4190328 16.2221803,19.5256016 16.1478938,19.7315536 L15.8678139,20.5082854 C15.8661232,20.5130934 15.8588847,20.5164748 15.8539182,20.5147841 L15.220423,20.2864299 C15.2155621,20.2846864 15.2121279,20.2773423 15.2138714,20.2724286 L15.5726231,19.2775399 C15.6468567,19.0716936 15.5401822,18.8446075 15.3342831,18.7703739 L15.3342831,18.7703739 Z" id="路径"></path>
            <path d="M11.9573149,18.1286892 C11.9591642,18.3464234 12.1362153,18.5216781 12.3535269,18.5216781 L12.3568555,18.5216781 L12.5844699,18.5197761 C12.8033666,18.5179268 12.9792553,18.3390265 12.9774589,18.1202355 C12.9756097,17.9025013 12.7985586,17.7272466 12.581247,17.7272466 L12.5779184,17.7272466 L12.3503039,17.7291486 C12.1314073,17.7309979 11.9555185,17.9098982 11.9573149,18.1286892 Z" id="路径"></path>
            <path d="M17.7515508,21.9177198 C17.8302226,21.9177198 17.9096869,21.8943666 17.9790068,21.8456524 L18.3035212,21.617721 C18.48258,21.4919201 18.5257993,21.2447566 18.3999456,21.0656978 C18.2741448,20.8865861 18.0270341,20.8433668 17.8479224,20.9692733 L17.523408,21.1972048 C17.3443492,21.3230057 17.3011299,21.5701692 17.4269836,21.749228 C17.5040703,21.8590198 17.6268595,21.9177198 17.7515508,21.9177198 L17.7515508,21.9177198 Z" id="路径"></path>
            <path d="M23.0459648,3.95403525 C20.4961332,1.40425657 17.1059563,0 13.5,0 C9.8940437,0 6.50386676,1.40425657 3.95403525,3.95403525 C1.4043094,6.50386676 -1.49880108e-15,9.8940437 -1.49880108e-15,13.5 C-1.49880108e-15,17.1059563 1.40425657,20.4961332 3.95403525,23.0459648 C6.50386676,25.5957963 9.8940437,27.0000528 13.5,27.0000528 C17.1059563,27.0000528 20.4961332,25.5957963 23.0459648,23.0459648 C25.5957434,20.4961332 27,17.1059563 27,13.5 C27,9.8940437 25.5957434,6.50386676 23.0459648,3.95403525 Z M22.4855407,22.4855407 C20.0854445,24.8856899 16.8943509,26.2074705 13.5000528,26.2074705 C10.1057547,26.2074705 6.91460837,24.885637 4.51456493,22.4855407 C2.11436298,20.0853916 0.79252948,16.8942981 0.79252948,13.5 C0.79252948,10.1057019 2.11436298,6.91455554 4.5145121,4.51445926 C6.91460837,2.11436298 10.1057019,0.79252948 13.5,0.79252948 C16.8942981,0.79252948 20.0854445,2.11436298 22.4854879,4.51445926 C24.885637,6.91455554 26.2074177,10.1056491 26.2074177,13.4999472 C26.2074177,16.8942453 24.885637,20.0853916 22.4855407,22.4855407 Z" id="形状"></path>
            <path d="M17.4734786,4.14572171 C20.2565252,5.32944374 22.3536638,7.66597916 23.227137,10.5562285 C23.2789156,10.7275205 23.4361534,10.8379463 23.6063359,10.8379463 C23.6443245,10.8379463 23.6828943,10.8324514 23.721147,10.8209333 C23.930639,10.7575838 24.0491486,10.5364153 23.9858519,10.3269233 C23.5247054,8.80135689 22.7146874,7.36566332 21.6432404,6.1750727 C20.5777109,4.99108649 19.2430913,4.03714517 17.7836747,3.41643608 C17.5822137,3.3308429 17.3495799,3.42467839 17.2639338,3.62598088 C17.1782878,3.8273362 17.2721233,4.06007569 17.4734786,4.14572171 Z" id="路径"></path>
            <path d="M2.94842101,14.2265382 C2.95254216,14.2265382 2.95671615,14.2265382 2.96089014,14.2263269 C3.17968111,14.2195639 3.3515015,14.036701 3.34468575,13.8179628 C3.34104011,13.6990834 3.33919088,13.5950507 3.33919088,13.4999472 C3.33919088,11.5868867 3.87361992,9.72333285 4.88478187,8.11069386 C5.86878647,6.54132699 7.26073241,5.26958135 8.9100391,4.43293439 C9.10521269,4.33392104 9.18319759,4.09542251 9.08418424,3.90030175 C8.98517089,3.70507532 8.74656668,3.62719609 8.5515516,3.7261566 C6.77390797,4.62784381 5.27380817,5.99844429 4.21340373,7.6897022 C3.12304167,9.42861755 2.54671423,11.4377855 2.54671423,13.5 C2.54671423,13.6033458 2.5486163,13.7154095 2.55257895,13.8425312 C2.5592362,14.0571482 2.73523058,14.2265382 2.94842101,14.2265382 L2.94842101,14.2265382 Z" id="路径"></path>
            <path d="M15.1455554,23.5275057 C14.6020915,23.615952 14.0484304,23.6607563 13.5,23.6607563 C11.1918371,23.6607563 9.01650222,22.9063739 7.20895382,21.479134 C7.03729194,21.3435586 6.788015,21.3727237 6.65243962,21.5445441 C6.51681141,21.7162588 6.54608216,21.9654829 6.71784972,22.1010583 C8.66662688,23.6398863 11.0118273,24.4532858 13.5,24.4532858 C14.0909628,24.4532858 14.6874733,24.4049943 15.2728884,24.3096794 C15.4888791,24.274544 15.6354971,24.0709167 15.6003088,23.854926 C15.5651733,23.6389353 15.3618631,23.4923174 15.1455554,23.5275057 L15.1455554,23.5275057 Z" id="路径"></path>
        </g>
    </g>
</svg>