<?xml version="1.0" encoding="UTF-8"?>
<svg width="176px" height="496px" viewBox="0 0 176 496" version="1.1" xmlns="http://www.w3.org/2000/svg" xmlns:xlink="http://www.w3.org/1999/xlink">
    <title>画板</title>
    <g id="画板" stroke="none" stroke-width="1" fill="none" fill-rule="evenodd">
        <g id="stationery-(4)" fill="#000000" fill-rule="nonzero">
            <path d="M160,140.904 L160,34.4 L65.408,0 L48,0 L48,140.904 L32,146.24 L32,320.904 C32,344.896 24.968,368.128 11.656,388.096 C4.032,399.528 0,412.84 0,426.592 C0,464.864 31.136,496 69.408,496 L106.592,496 C144.864,496 176,464.864 176,426.592 L176,146.232 L160,140.904 Z M64,16.512 L144,45.6 L144,135.568 L121.296,128 L86.704,128 L64,135.568 L64,16.512 Z M128,336 L128.008,352 L80,352 L80,336 L128,336 Z M96,320 L96,144 L112,144 L112,320 L96,320 Z M48,320.904 L48,157.768 L80,147.104 L80,320 C71.176,320 64,327.176 64,336 L64,352 C64,360.824 71.176,368 80,368 L128,368 C136.824,368 144,360.824 144,352 L144,336 C144,327.176 136.824,320 128,320 L128,147.096 L160,157.76 L160,416 L123.312,416 L107.312,400 L23.256,400 C23.84,398.992 24.32,397.944 24.968,396.968 C40.04,374.368 48,348.064 48,320.904 Z M69.408,480 C62.928,480 56.736,478.784 50.984,476.656 C55.056,469 62.96,464 72,464 L104,464 C113.04,464 120.944,469 125.024,476.656 C119.264,478.784 113.08,480 106.592,480 L69.408,480 Z M139,468.944 C132.168,456.272 119.024,448 104,448 L72,448 C56.976,448 43.832,456.272 37,468.944 C24.264,459.176 16,443.848 16,426.592 C16,423 16.488,419.472 17.192,416 L100.688,416 L116.688,432 L159.728,432 C158.208,447.04 150.392,460.208 139,468.944 Z" id="形状"></path>
        </g>
    </g>
</svg>