<?xml version="1.0" encoding="UTF-8"?>
<svg width="324px" height="487px" viewBox="0 0 324 487" version="1.1" xmlns="http://www.w3.org/2000/svg" xmlns:xlink="http://www.w3.org/1999/xlink">
    <title>画板</title>
    <g id="画板" stroke="none" stroke-width="1" fill="none" fill-rule="evenodd">
        <g id="stationery-(2)" fill="#000000" fill-rule="nonzero">
            <path d="M80.5098667,149.933333 C80.52359,162.098695 83.2983578,174.102265 88.6250667,185.039467 L3.22346667,387.8256 C-4.07110485,405.192554 4.06198443,425.187511 21.408,432.531733 L29.2672,435.842667 L12.9002667,475.189867 C11.0930893,479.542165 13.1561045,484.535427 17.5082667,486.342933 C18.5424128,486.779527 19.6540083,487.00003 20.7765333,487.00003 C24.2255881,487.00003 27.3368969,484.928094 28.6613333,481.743467 L48.288,434.554133 L91.2874667,332.461333 L136.266667,332.461333 L136.266667,367.533333 C136.266667,381.671823 147.728177,393.133333 161.866667,393.133333 C176.005156,393.133333 187.466667,381.671823 187.466667,367.533333 L187.466667,332.461333 L232.445867,332.461333 L275.445333,434.554133 L295.072,481.743467 C296.396436,484.928094 299.507745,487.00003 302.9568,487.00003 C304.079325,487.00003 305.190921,486.779527 306.225067,486.342933 C310.577229,484.535427 312.640244,479.542165 310.833067,475.189867 L294.466133,435.842667 L302.325333,432.531733 C319.671349,425.187511 327.804438,405.192554 320.509867,387.8256 L234.843733,184.408 C244.437635,164.194324 245.213534,140.905876 236.986329,120.098455 C228.759124,99.2910345 212.266568,82.830493 191.4432,74.6437333 L191.4432,30.4666667 C191.4432,13.9717622 178.071438,0.6 161.576533,0.6 C145.081629,0.6 131.709867,13.9717622 131.709867,30.4666667 L131.709867,74.6437333 C100.842912,86.8965931 80.559459,116.72341 80.5098667,149.933333 Z M18.9418667,394.456 L99.8464,202.3536 C105.680247,209.184962 112.599538,215.008699 120.3264,219.590933 L35.8464,420.124267 L28.0298667,416.8304 C23.8559616,415.070582 20.5528738,411.723649 18.8482458,407.526902 C17.1436169,403.330156 17.1772971,398.627898 18.9418667,394.456 L18.9418667,394.456 Z M170.4,367.533333 C170.4,372.246163 166.579496,376.066667 161.866667,376.066667 C157.153837,376.066667 153.333333,372.246163 153.333333,367.533333 L153.333333,282.2 C153.333333,277.487171 157.153837,273.666667 161.866667,273.666667 C166.579496,273.666667 170.4,277.487171 170.4,282.2 L170.4,367.533333 Z M187.466667,315.394667 L187.466667,282.2 C187.466667,268.061511 176.005156,256.6 161.866667,256.6 C147.728177,256.6 136.266667,268.061511 136.266667,282.2 L136.266667,315.394667 L98.4725333,315.394667 L135.822933,226.733333 C152.693501,232.482673 171.003052,232.419588 187.8336,226.554133 L225.2608,315.394667 L187.466667,315.394667 Z M304.791467,394.456 C308.448122,403.139407 304.376289,413.14328 295.694933,416.8048 L287.8784,420.098667 L203.304533,219.309333 C211.015258,214.676676 217.90651,208.800371 223.6992,201.9184 L304.791467,394.456 Z M148.776533,30.4666667 C148.776533,23.3974219 154.507289,17.6666667 161.576533,17.6666667 C168.645778,17.6666667 174.376533,23.3974219 174.376533,30.4666667 L174.376533,69.976 C165.907292,68.4969156 157.245775,68.4969156 148.776533,69.976 L148.776533,30.4666667 Z M161.576533,85.9333333 C196.922757,85.9333333 225.576533,114.58711 225.576533,149.933333 C225.576533,185.279557 196.922757,213.933333 161.576533,213.933333 C126.23031,213.933333 97.5765333,185.279557 97.5765333,149.933333 C97.6141594,114.602706 126.245906,85.9709594 161.576533,85.9333333 Z" id="Shape"></path>
            <path d="M161.576533,188.333333 C182.784268,188.333333 199.976533,171.141068 199.976533,149.933333 C199.976533,128.725599 182.784268,111.533333 161.576533,111.533333 C140.368799,111.533333 123.176533,128.725599 123.176533,149.933333 C123.176533,171.141068 140.368799,188.333333 161.576533,188.333333 Z M161.576533,128.6 C173.358608,128.6 182.909867,138.151258 182.909867,149.933333 C182.909867,161.715408 173.358608,171.266667 161.576533,171.266667 C149.794458,171.266667 140.2432,161.715408 140.2432,149.933333 C140.2432,138.151258 149.794458,128.6 161.576533,128.6 Z" id="Shape"></path>
        </g>
    </g>
</svg>