<?xml version="1.0" encoding="iso-8859-1"?>
<!-- Generator: Adobe Illustrator 16.0.0, SVG Export Plug-In . SVG Version: 6.00 Build 0)  -->
<!DOCTYPE svg PUBLIC "-//W3C//DTD SVG 1.1//EN" "http://www.w3.org/Graphics/SVG/1.1/DTD/svg11.dtd">
<svg version="1.1" id="Capa_1" xmlns="http://www.w3.org/2000/svg" xmlns:xlink="http://www.w3.org/1999/xlink" x="0px" y="0px"
	 width="337.722px" height="337.722px" viewBox="0 0 337.722 337.722" style="enable-background:new 0 0 337.722 337.722;"
	 xml:space="preserve">
<g>
	<g>
		<path d="M313.98,0H183.748v154.854H313.98V0z M303.181,144.055H194.548V10.8h108.633V144.055z"/>
		<path d="M297.121,16.912h-96.515v86.746h96.515V16.912z M255.019,90.245h-12.393L231.14,39.021c0,1.16,0.017,2.808,0.043,4.946
			c0.026,2.138,0.042,3.802,0.042,4.988v41.289h-11.881V29.21H237.9l11.111,47.993l11.026-47.993h18.352v61.035h-11.886V48.962
			c0-1.187,0.016-2.851,0.042-4.989c0.026-2.138,0.048-3.791,0.048-4.946L255.019,90.245z"/>
		<path d="M153.974,0H23.741v154.854h130.232V0z M143.174,144.055H34.541V10.8h108.633V144.055z"/>
		<path d="M137.115,16.912H40.6v86.746h96.515V16.912z M79.204,76.102c2.771,3.409,6.281,5.115,10.547,5.115
			c4.375,0,7.715-1.464,10.007-4.391c1.268-1.571,2.325-3.937,3.159-7.079h12.672c-1.089,6.652-3.886,12.062-8.379,16.231
			s-10.249,6.254-17.271,6.254c-8.683,0-15.512-2.813-20.482-8.445c-4.968-5.661-7.452-13.418-7.452-23.274
			c0-10.654,2.829-18.868,8.485-24.64c4.912-5.023,11.166-7.539,18.757-7.539c10.17,0,17.595,3.37,22.291,10.104
			c2.586,3.778,3.981,7.575,4.176,11.388h-12.756c-0.815-2.927-1.851-5.136-3.127-6.626c-2.268-2.652-5.637-3.974-10.096-3.974
			c-4.548,0-8.134,1.867-10.752,5.608c-2.624,3.744-3.937,9.036-3.937,15.884S76.433,72.694,79.204,76.102z"/>
		<path d="M183.748,337.722H313.98V182.862H183.748V337.722z M194.548,193.662h108.633v133.26H194.548V193.662z"/>
		<path d="M200.606,286.527h96.515v-86.754h-96.515V286.527z M258.051,212.625h16.474l-25.038,25.112l26.325,35.934h-16.4
			l-18.806-26.647l-6.148,6.229v20.419h-12.546v-61.046h12.546v25.149L258.051,212.625z"/>
		<path d="M23.741,337.722h130.232V182.862H23.741V337.722z M34.541,193.662h108.633v133.26H34.541V193.662z"/>
		<path d="M40.6,286.527h96.515v-86.754H40.6V286.527z M61.715,212.625h15.032l12.675,26.584l12.134-26.584h14.449l-20.416,38.148
			v22.887H82.833v-22.887L61.715,212.625z"/>
	</g>
</g>
<g>
</g>
<g>
</g>
<g>
</g>
<g>
</g>
<g>
</g>
<g>
</g>
<g>
</g>
<g>
</g>
<g>
</g>
<g>
</g>
<g>
</g>
<g>
</g>
<g>
</g>
<g>
</g>
<g>
</g>
</svg>
