<svg id="OutlineExpand" enable-background="new 0 0 64 64" height="512" viewBox="0 0 64 64" width="512" xmlns="http://www.w3.org/2000/svg"><path d="m32 24c3.859 0 7-3.14 7-7s-3.141-7-7-7-7 3.14-7 7 3.141 7 7 7zm0-12c2.757 0 5 2.243 5 5s-2.243 5-5 5-5-2.243-5-5 2.243-5 5-5z"/><path d="m48 34c3.859 0 7-3.14 7-7s-3.141-7-7-7-7 3.14-7 7 3.141 7 7 7zm0-12c2.757 0 5 2.243 5 5s-2.243 5-5 5-5-2.243-5-5 2.243-5 5-5z"/><path d="m45 44c0 3.309 2.691 6 6 6s6-2.691 6-6-2.691-6-6-6-6 2.691-6 6zm10 0c0 2.206-1.794 4-4 4s-4-1.794-4-4 1.794-4 4-4 4 1.794 4 4z"/><path d="m3 62h6c.553 0 1-.448 1-1v-3.593c1.129.686 2.372 1.155 3.726 1.392l.041.335c.197 1.634 1.587 2.866 3.233 2.866s3.036-1.232 3.233-2.865l.231-1.904c2.563-2.351 3.807-6.688 4.997-10.908 1.497-5.309 2.912-10.323 6.539-10.323 3.625 0 5.038 5.012 6.534 10.317 1.677 5.945 3.577 12.683 9.466 12.683 9.421 0 14-8.832 14-27 0-15.14-13.178-27-30-27-4.622 0-9.012.883-13.071 2.604-.6-.68-1.073-1.162-1.222-1.311-.391-.391-1.023-.391-1.414 0-.369.369-2.685 2.732-4.128 5.249-.759.585-1.482 1.208-2.165 1.862v-4.404c0-.155-.036-.309-.105-.447l-3-6c-.34-.678-1.449-.678-1.789 0l-3 6c-.07.138-.106.292-.106.447v52c0 .552.447 1 1 1zm1-2v-3h4v3zm4-50v45h-4v-45zm9 50c-.635 0-1.172-.475-1.247-1.106l-2.844-23.454c-.552-4.555.057-9.187 1.759-13.44h4.664c1.702 4.253 2.311 8.886 1.759 13.44l-2.844 23.455c-.075.63-.612 1.105-1.247 1.105zm15-53c15.701 0 28 10.981 28 25 0 25-9.032 25-12 25-4.375 0-5.912-5.453-7.541-11.226-1.632-5.788-3.32-11.774-8.459-11.774-5.142 0-6.83 5.988-8.464 11.78-.748 2.652-1.517 5.351-2.586 7.441l2.127-17.54c.598-4.945-.088-9.972-1.965-14.581.586-1.001 1.888-3.513 1.888-6.1 0-1.79-1.383-4.021-2.742-5.785 3.658-1.466 7.599-2.215 11.742-2.215zm-15 1.447c1.775 1.932 4 4.899 4 6.553 0 2.021-1.054 4.109-1.563 5h-4.874c-.51-.888-1.563-2.969-1.563-5 0-1.65 2.226-4.62 4-6.553zm-5.992 6.774c.071 2.508 1.31 4.907 1.88 5.88-1.877 4.609-2.563 9.635-1.965 14.581l2.548 21.017c-1.302-.314-2.445-.904-3.471-1.762v-38.643c.323-.367.66-.724 1.008-1.073zm-5.008-9.985 1.382 2.764h-2.764z"/></svg>