<svg height="512pt" viewBox="-53 0 512 512.0024" width="512pt" xmlns="http://www.w3.org/2000/svg"><path d="m117.140625 360.1875c0-34.921875 28.410156-63.332031 63.328125-63.332031 11.882812 0 23.460938 3.308593 33.484375 9.566406 3.515625 2.195313 8.140625 1.121094 10.335937-2.390625 2.191407-3.515625 1.121094-8.140625-2.390624-10.332031-12.410157-7.746094-26.734376-11.84375-41.429688-11.84375-43.191406 0-78.328125 35.140625-78.328125 78.332031 0 14.808594 4.152344 29.226562 12.007813 41.699219 1.425781 2.261719 3.863281 3.503906 6.355468 3.503906 1.363282 0 2.746094-.375 3.988282-1.15625 3.503906-2.207031 4.554687-6.839844 2.347656-10.34375-6.347656-10.074219-9.699219-21.730469-9.699219-33.703125zm0 0"/><path d="m235.003906 314.371094c-3.429687 2.320312-4.332031 6.980468-2.015625 10.414062 7.074219 10.46875 10.8125 22.710938 10.8125 35.402344 0 34.921875-28.410156 63.332031-63.332031 63.332031-12.527344 0-24.636719-3.648437-35.023438-10.558593-3.445312-2.289063-8.101562-1.355469-10.394531 2.09375-2.292969 3.449218-1.359375 8.105468 2.089844 10.398437 12.851563 8.546875 27.835937 13.066406 43.332031 13.066406 43.191406 0 78.328125-35.140625 78.328125-78.332031 0-15.695312-4.625-30.839844-13.378906-43.800781-2.320313-3.429688-6.984375-4.332031-10.417969-2.015625zm0 0"/><path d="m354.53125 243.671875h-32.699219v-18.175781c0-8.742188-6.585937-15.976563-15.058593-17l56.605468-127.492188c3.808594-8.582031-.074218-18.664062-8.65625-22.472656l-18.054687-8.019531c-.003907 0-.011719-.003907-.015625-.003907-.007813-.003906-.011719-.007812-.015625-.007812l-43.625-19.367188c-4.160157-1.847656-8.785157-1.964843-13.03125-.328124-4.246094 1.632812-7.601563 4.824218-9.449219 8.980468l-74.847656 168.589844h-2.011719l-2.878906-63.941406c2.222656-.710938 4.21875-2.007813 5.804687-3.800782 2.320313-2.625 3.480469-5.996093 3.265625-9.496093l-.9375-15.214844c-.179687-2.902344-1.285156-5.597656-3.15625-7.757813 3.242188-6.265624 4.746094-13.3125 4.300781-20.53125-1.941406-31.503906-25.542968-68.589843-35.597656-83.074218-2.132812-3.070313-5.644531-4.765625-9.363281-4.5390628-3.726563.2304688-6.988281 2.3437498-8.726563 5.6484378-8.003906 15.230469-26.484374 54.035156-25.203124 85.328125.308593 7.574218 2.789062 14.914062 7.019531 21.125-1.636719 2.34375-2.523438 5.234375-2.335938 8.300781l.941407 15.21875c.214843 3.496094 1.777343 6.699219 4.402343 9.019531 1.898438 1.675782 4.1875 2.746094 6.628907 3.128906l4.746093 60.582032h-11.253906l-61.03125-139.382813c-3.933594-8.976562-11.125-15.886719-20.25-19.453125s-19.097656-3.367187-28.074219.5625c-18.53125 8.113282-27.003906 29.792969-18.890625 48.324219l48.433594 110.613281c-7.15625 2.050782-12.410156 8.652344-12.410156 16.460938v224.375c0 34.257812 27.875 62.132812 62.132812 62.132812h158.464844c31.808594 0 58.113281-24.035156 61.710937-54.898437h33.117188c28.617188 0 51.902344-23.28125 51.902344-51.898438v-109.632812c0-28.621094-23.285156-51.902344-51.902344-51.902344zm-32.699219 43.742187h32.699219c4.5 0 8.160156 3.660157 8.160156 8.160157v109.632812c0 4.5-3.660156 8.160157-8.160156 8.160157h-32.699219zm27.835938-212.496093-59.25 133.457031h-15.648438l62.652344-141.113281 11.214844 4.980469c1.023437.453124 1.488281 1.652343 1.03125 2.675781zm-127.109375 109.894531 14.308594 6.351562c.988281.441407 2.019531.648438 3.039062.648438 2.875 0 5.617188-1.660156 6.859375-4.457031 1.679687-3.785157-.027344-8.21875-3.8125-9.898438l-14.308594-6.351562 14.683594-33.074219 5.3125 2.355469c.988281.441406 2.023437.648437 3.039063.648437 2.875 0 5.617187-1.660156 6.859374-4.457031 1.679688-3.785156-.027343-8.21875-3.8125-9.898437l-5.308593-2.359376 14.683593-33.074218 14.304688 6.351562c.992188.441406 2.023438.648438 3.042969.648438 2.875 0 5.617187-1.660156 6.859375-4.457032 1.679687-3.785156-.027344-8.21875-3.8125-9.898437l-14.308594-6.351563 14.054688-31.664062c.285156-.632812.769531-.929688 1.128906-1.070312.355468-.136719.917968-.242188 1.554687.039062l36.785157 16.332031-65.351563 147.203125h-46.261719zm-80.898438-51.972656-.707031-11.457032 43.117187-2.65625.707032 11.453126zm14.640625-113.550782c9.664063 14.824219 27.300781 44.941407 28.800781 69.269532.339844 5.511718-1.152343 10.855468-4.230468 15.335937l-38.277344 2.359375c-3.878906-4.371094-6.1875-10.011718-6.425781-15.867187-.988281-24.191407 12.507812-55.492188 20.132812-71.097657zm-3.464843 127.890626 23.003906-1.417969 2.816406 62.613281h-21.027344zm-85.230469 61.195312-23.492188-53.644531 13.101563-5.734375 26 59.378906zm-39.777344-90.835938 39.734375-17.398437 10.269531 23.453125-19.753906 8.648438c-.003906.003906-.007813.003906-.011719.007812-.003906 0-.007812 0-.011718.003906l-19.957032 8.738282zm71.761719 90.835938-28.636719-65.394531 12.894531-5.648438 31.109375 71.042969zm-71.601563-144.539062c.140625-.058594.28125-.121094.425781-.179688.03125-.011719.058594-.023438.089844-.035156 10.578125-4.316406 22.730469.367187 27.695313 10.621094.003906 0 .003906.003906.003906.003906.035156.074218.070313.144531.105469.21875.003906.011718.011718.023437.015625.035156.027343.058594.054687.117188.082031.175781.011719.027344.023438.050781.035156.078125.039063.085938.078125.167969.113282.25l4.988281 11.398438-38.640625 16.917968-1.089844.480469-4.992188-11.394531c-4.796874-10.957031.214844-23.773438 11.167969-28.570312zm278.84375 386.035156c0 25.988281-21.140625 47.132812-47.128906 47.132812h-158.464844c-25.988281 0-47.132812-21.144531-47.132812-47.132812v-224.375c0-1.171875.953125-2.121094 2.125-2.121094h248.480469c1.167968 0 2.121093.949219 2.121093 2.121094zm84.601563-44.664063c0 20.347657-16.554688 36.898438-36.902344 36.898438h-32.699219v-13.742188h32.699219c12.769531 0 23.160156-10.386719 23.160156-23.15625v-109.632812c0-12.769531-10.390625-23.160157-23.160156-23.160157h-32.699219v-13.742187h32.699219c20.347656 0 36.902344 16.550781 36.902344 36.898437zm0 0"/></svg>