<?xml version="1.0" encoding="iso-8859-1"?>
<!-- Generator: Adobe Illustrator 19.0.0, SVG Export Plug-In . SVG Version: 6.00 Build 0)  -->
<svg version="1.1" id="Capa_1" xmlns="http://www.w3.org/2000/svg" xmlns:xlink="http://www.w3.org/1999/xlink" x="0px" y="0px"
	 viewBox="0 0 511.998 511.998" style="enable-background:new 0 0 511.998 511.998;" xml:space="preserve">
<g>
	<g>
		<path d="M507.602,131.672L380.323,4.393c-5.857-5.858-15.355-5.858-21.213,0l-65.64,65.64c-5.858,5.858-5.858,15.355,0,21.213
			l6.498,6.498l-171.68,85.84c-3.286,1.643-5.855,4.435-7.219,7.846L1.121,491.297c-0.018,0.044-0.035,0.087-0.052,0.131
			c-0.154,0.384-0.287,0.773-0.407,1.164c-0.26,0.848-0.465,1.831-0.568,2.769c-0.441,4.033,0.741,7.883,3.113,10.897
			c0.088,0.112,0.175,0.225,0.267,0.335c3.611,4.334,9.154,6.135,14.351,5.136c0.384-0.073,0.763-0.171,1.142-0.275
			c0.079-0.022,0.16-0.035,0.239-0.059c0.506-0.147,1.005-0.322,1.496-0.523l299.865-119.946c3.411-1.364,6.203-3.933,7.846-7.219
			l85.84-171.68l6.498,6.498c2.929,2.929,6.768,4.394,10.606,4.394c3.838,0,7.678-1.464,10.606-4.394l65.64-65.64
			C513.46,147.028,513.46,137.531,507.602,131.672z M304.13,365.19L77.276,455.932l128.33-128.33
			c5.875,2.817,12.451,4.398,19.389,4.398c24.813,0,45-20.187,45-45s-20.187-45-45-45c-24.813,0-45,20.187-45,45
			c0,6.938,1.581,13.515,4.398,19.389l-128.33,128.33l90.741-226.854l175.524-87.761l69.563,69.563L304.13,365.19z M209.995,287
			c0-8.271,6.729-15,15-15s15,6.729,15,15s-6.729,15-15,15S209.995,295.271,209.995,287z M431.356,186.705l-10.799-10.799
			c-0.009-0.009-0.018-0.018-0.027-0.027l-84.413-84.413c-0.011-0.011-0.022-0.022-0.033-0.033L325.29,80.64l44.426-44.426
			l106.066,106.066L431.356,186.705z"/>
	</g>
</g>
<g>
</g>
<g>
</g>
<g>
</g>
<g>
</g>
<g>
</g>
<g>
</g>
<g>
</g>
<g>
</g>
<g>
</g>
<g>
</g>
<g>
</g>
<g>
</g>
<g>
</g>
<g>
</g>
<g>
</g>
</svg>
