<?xml version="1.0" encoding="UTF-8"?>
<svg width="128px" height="128px" viewBox="0 0 128 128" version="1.1" xmlns="http://www.w3.org/2000/svg" xmlns:xlink="http://www.w3.org/1999/xlink">
    <title>涮-Icon</title>
    <defs>
        <polygon id="path-1" points="0.919291803 0.0913638251 127.744 0.0913638251 127.744 111.220459 0.919291803 111.220459"></polygon>
    </defs>
    <g id="涮-Icon" stroke="none" stroke-width="1" fill="none" fill-rule="evenodd">
        <g id="编组" transform="translate(0.000000, 8.393443)">
            <mask id="mask-2" fill="white">
                <use xlink:href="#path-1"></use>
            </mask>
            <g id="Clip-17"></g>
            <path d="M32.9771016,98.5568525 L32.9771016,108.102295 C32.9771016,108.102295 55.3410098,113.965115 95.4302951,108.511475 L95.4302951,98.5568525 L32.9771016,98.5568525" id="Fill-16" fill="#B2D9E9" mask="url(#mask-2)"></path>
            <path d="M62.8897574,111.220459 C43.6012066,111.220459 33.0295607,108.532459 32.8754361,108.494689 L32.5729574,108.416 L32.5729574,98.152918 L95.8342295,98.152918 L95.8342295,108.867148 L95.4848525,108.913311 C82.8327869,110.63082 71.906518,111.220459 62.8897574,111.220459 Z M33.3839738,107.782295 C36.1803541,108.436984 58.172118,113.122623 95.0263607,108.156852 L95.0263607,98.9607869 L33.3839738,98.9607869 L33.3839738,107.782295 L33.3839738,107.782295 Z" id="Fill-18" fill="#3C2010" mask="url(#mask-2)"></path>
            <path d="M1.91926557,37.8072131 C1.91926557,37.8072131 -2.4290623,78.4220328 32.4798951,98.8758033 C32.4798951,98.8758033 70.9327738,103.51318 94.9329836,98.8758033 C94.9329836,98.8758033 128.749115,78.4598033 126.842754,37.8072131 L1.91926557,37.8072131 L1.91926557,37.8072131" id="Fill-19" fill="#C4E6EF" mask="url(#mask-2)"></path>
            <path d="M68.1421639,101.329836 C49.745941,101.329836 32.6893115,99.3122623 32.4336262,99.2807869 L32.3491672,99.2713443 L32.2766689,99.2283279 C14.1245902,88.5927869 6.72702951,72.4459016 3.7184,60.7758689 C0.46027541,48.1405902 1.50651803,37.8680656 1.51805902,37.7662951 L1.55572459,37.405377 L127.228852,37.405377 L127.246689,37.7925246 C128.238164,58.920918 119.459672,74.4980984 111.919213,83.8462951 C103.754492,93.9698361 95.2299016,99.1758689 95.1459672,99.2283279 L95.0116721,99.2807869 C87.0358033,100.814689 77.4176525,101.329836 68.1421639,101.329836 Z M32.6110426,98.484459 C34.6311344,98.7194754 71.6504131,102.93718 94.7819016,98.4928525 C95.5551475,98.013377 103.586623,92.8860328 111.306492,83.3080656 C118.704262,74.1287869 127.307541,58.8747541 126.453508,38.2111475 L2.28857705,38.2111475 C2.13728525,40.1290492 1.62297705,49.4247869 4.50612459,60.5985574 C7.47666885,72.0975738 14.761023,87.9937049 32.6110426,98.484459 L32.6110426,98.484459 Z" id="Fill-20" fill="#3C2010" mask="url(#mask-2)"></path>
            <path d="M127.340066,37.8072131 C127.340066,37.9761311 127.313836,38.1460984 127.263475,38.3160656 C127.213115,38.4849836 127.137574,38.6539016 127.036852,38.8228197 C126.935082,38.9917377 126.80918,39.1596066 126.658098,39.3274754 C126.507016,39.4953443 126.330754,39.6621639 126.129311,39.8289836 C125.927869,39.9947541 125.702295,40.1605246 125.451541,40.3241967 C125.200787,40.488918 124.925902,40.6525902 124.626885,40.8152131 C124.327869,40.9767869 124.003672,41.1383607 123.656393,41.2978361 C123.309115,41.4573115 122.937705,41.6157377 122.543213,41.7720656 C122.148721,41.9294426 121.731148,42.0836721 121.290492,42.2368525 C120.848787,42.391082 120.386098,42.5421639 119.900328,42.6921967 C119.413508,42.8411803 118.905705,42.9891148 118.375869,43.1339016 C117.844984,43.2797377 117.294164,43.4224262 116.721311,43.5640656 C116.148459,43.7046557 115.554623,43.8431475 114.939803,43.979541 C114.326033,44.1159344 113.692328,44.2491803 113.037639,44.3803279 C112.382951,44.5114754 111.709377,44.6405246 111.017967,44.7664262 C110.325508,44.8912787 109.614164,45.0140328 108.884984,45.1336393 C108.155803,45.2542951 107.409836,45.3707541 106.644984,45.4851148 C105.88118,45.5984262 105.10059,45.7096393 104.303213,45.8177049 C103.506885,45.9247213 102.69377,46.0285902 101.865967,46.1303607 C101.037115,46.231082 100.194623,46.3286557 99.3363934,46.423082 C98.4792131,46.5175082 97.6083934,46.6077377 96.7239344,46.6948197 C95.8394754,46.7819016 94.9424262,46.8658361 94.0338361,46.9455738 C93.1241967,47.0253115 92.2030164,47.1019016 91.2713443,47.1742951 C90.338623,47.2466885 89.396459,47.3159344 88.4438033,47.3799344 C87.4911475,47.4449836 86.5290492,47.5068852 85.5585574,47.563541 C84.5870164,47.6201967 83.6081311,47.6737049 82.6219016,47.7230164 C81.6352525,47.7723279 80.6413639,47.8174426 79.6413902,47.8583607 C78.6409967,47.9003279 77.6352525,47.9370492 76.6237377,47.9695738 C75.6123279,48.0031475 74.5967213,48.0325246 73.5766033,48.0566557 C72.5565902,48.0818361 71.5336393,48.1028197 70.5073311,48.1196066 C69.4811279,48.1363934 68.4532459,48.1479344 67.4233705,48.157377 C66.3934951,48.1647213 65.3626754,48.168918 64.331541,48.168918 C63.3004066,48.168918 62.2696918,48.1647213 61.2397115,48.157377 C60.2098361,48.1479344 59.1819541,48.1363934 58.1557508,48.1196066 C57.1295475,48.1028197 56.106177,48.0818361 55.0864787,48.0566557 C54.0663607,48.0325246 53.050859,48.0031475 52.0393443,47.9695738 C51.0278295,47.9370492 50.0220852,47.9003279 49.0216918,47.8583607 C48.021718,47.8174426 47.0278295,47.7723279 46.0413902,47.7230164 C45.0545311,47.6737049 44.0758557,47.6201967 43.1049443,47.563541 C42.1340328,47.5068852 41.1721443,47.4449836 40.2192787,47.3799344 C39.2668328,47.3159344 38.3241443,47.2466885 37.3922623,47.1742951 C36.4598557,47.1019016 35.5388852,47.0253115 34.6295607,46.9455738 C33.7204459,46.8658361 32.8233967,46.7819016 31.9389377,46.6948197 C31.0544787,46.6077377 30.183659,46.5175082 29.3262689,46.423082 C28.4688787,46.3286557 27.6258623,46.231082 26.7975344,46.1303607 C25.9693115,46.0285902 25.1565115,45.9247213 24.3594492,45.8177049 C23.562282,45.7096393 22.7820066,45.5984262 22.0179934,45.4851148 C21.2536656,45.3707541 20.5073836,45.2542951 19.7778885,45.1336393 C19.0488131,45.0140328 18.3380984,44.8912787 17.6455344,44.7664262 C16.9532852,44.6405246 16.2799213,44.5114754 15.6254426,44.3803279 C14.9712787,44.2491803 14.337259,44.1159344 13.7229639,43.979541 C13.1085639,43.8431475 12.5151475,43.7046557 11.9421902,43.5640656 C11.3692328,43.4224262 10.8175738,43.2797377 10.2877377,43.1339016 C9.75737705,42.9891148 9.24957377,42.8411803 8.76306885,42.6921967 C8.27708852,42.5421639 7.81356066,42.391082 7.37290492,42.2368525 C6.93193443,42.0836721 6.51436066,41.9294426 6.11965902,41.7720656 C5.72495738,41.6157377 5.35407213,41.4573115 5.00658361,41.2978361 C4.65899016,41.1383607 4.33563279,40.9767869 4.03651148,40.8152131 C3.73728525,40.6525902 3.46229508,40.488918 3.21143607,40.3241967 C2.96110164,40.1605246 2.73521311,39.9947541 2.53398033,39.8289836 C2.33274754,39.6621639 2.15659016,39.4953443 2.00529836,39.3274754 C1.85411148,39.1596066 1.72789508,38.9917377 1.62664918,38.8228197 C1.52582295,38.6539016 1.44996721,38.4849836 1.39918689,38.3160656 C1.34872131,38.1460984 1.32333115,37.9761311 1.32333115,37.8072131 C1.32333115,37.6372459 1.34872131,37.4683279 1.39918689,37.2983607 C1.44996721,37.1294426 1.52582295,36.9594754 1.62664918,36.7916066 C1.72789508,36.6226885 1.85411148,36.4537705 2.00529836,36.2869508 C2.15659016,36.119082 2.33274754,35.9512131 2.53398033,35.7854426 C2.73521311,35.618623 2.96110164,35.4539016 3.21143607,35.2891803 C3.46229508,35.124459 3.73728525,34.9607869 4.03651148,34.7992131 C4.33563279,34.6365902 4.65899016,34.4760656 5.00658361,34.315541 C5.35407213,34.1560656 5.72495738,33.9976393 6.11965902,33.8413115 C6.51436066,33.6849836 6.93193443,33.5297049 7.37290492,33.3765246 C7.81356066,33.2233443 8.27708852,33.0712131 8.76306885,32.9222295 C9.24957377,32.7721967 9.75737705,32.6253115 10.2877377,32.4794754 C10.8175738,32.3336393 11.3692328,32.1909508 11.9421902,32.0503607 C12.5151475,31.9087213 13.1085639,31.7702295 13.7229639,31.6338361 C14.337259,31.4974426 14.9712787,31.3641967 15.6254426,31.2330492 C16.2799213,31.1019016 16.9532852,30.9739016 17.6455344,30.848 C18.3380984,30.7220984 19.0488131,30.5993443 19.7778885,30.4797377 C20.5073836,30.3601311 21.2536656,30.242623 22.0179934,30.1293115 C22.7820066,30.0149508 23.562282,29.9047869 24.3594492,29.7967213 C25.1565115,29.6897049 25.9693115,29.5847869 26.7975344,29.4840656 C27.6258623,29.3822951 28.4688787,29.2847213 29.3262689,29.1913443 C30.183659,29.096918 31.0544787,29.0056393 31.9389377,28.9185574 C32.8233967,28.8314754 33.7204459,28.747541 34.6295607,28.6678033 C35.5388852,28.5880656 36.4598557,28.5114754 37.3922623,28.439082 C38.3241443,28.3666885 39.2668328,28.2984918 40.2192787,28.2334426 C41.1721443,28.1683934 42.1340328,28.107541 43.1049443,28.0508852 C44.0758557,27.9931803 45.0545311,27.9396721 46.0413902,27.8914098 C47.0278295,27.8410492 48.021718,27.7959344 49.0216918,27.7550164 C50.0220852,27.7140984 51.0278295,27.6763279 52.0393443,27.6438033 C53.050859,27.6102295 54.0663607,27.5819016 55.0864787,27.5567213 C56.106177,27.531541 57.1295475,27.5105574 58.1557508,27.4948197 C59.1819541,27.4780328 60.2098361,27.4654426 61.2397115,27.4570492 C62.2696918,27.4486557 63.3004066,27.444459 64.331541,27.444459 C65.3626754,27.444459 66.3934951,27.4486557 67.4233705,27.4570492 C68.4532459,27.4654426 69.4811279,27.4780328 70.5073311,27.4948197 C71.5336393,27.5105574 72.5565902,27.531541 73.5766033,27.5567213 C74.5967213,27.5819016 75.6123279,27.6102295 76.6237377,27.6438033 C77.6352525,27.6763279 78.6409967,27.7140984 79.6413902,27.7550164 C80.6413639,27.7959344 81.6352525,27.8410492 82.6219016,27.8914098 C83.6081311,27.9396721 84.5870164,27.9931803 85.5585574,28.0508852 C86.5290492,28.107541 87.4911475,28.1683934 88.4438033,28.2334426 C89.396459,28.2984918 90.338623,28.3666885 91.2713443,28.439082 C92.2030164,28.5114754 93.1241967,28.5880656 94.0327869,28.6678033 C94.9424262,28.747541 95.8394754,28.8314754 96.7239344,28.9185574 C97.6083934,29.0056393 98.4792131,29.096918 99.3363934,29.1913443 C100.194623,29.2847213 101.037115,29.3822951 101.865967,29.4840656 C102.69377,29.5847869 103.506885,29.6897049 104.303213,29.7967213 C105.10059,29.9047869 105.88118,30.0149508 106.644984,30.1293115 C107.409836,30.242623 108.155803,30.3601311 108.884984,30.4797377 C109.614164,30.5993443 110.325508,30.7220984 111.017967,30.848 C111.709377,30.9739016 112.382951,31.1019016 113.037639,31.2330492 C113.692328,31.3641967 114.326033,31.4974426 114.939803,31.6338361 C115.554623,31.7702295 116.148459,31.9087213 116.721311,32.0503607 C117.294164,32.1909508 117.844984,32.3336393 118.375869,32.4794754 C118.905705,32.6253115 119.413508,32.7721967 119.900328,32.9222295 C120.386098,33.0712131 120.848787,33.2233443 121.290492,33.3765246 C121.731148,33.5297049 122.148721,33.6849836 122.543213,33.8413115 C122.937705,33.9976393 123.309115,34.1560656 123.656393,34.315541 C124.003672,34.4760656 124.327869,34.6365902 124.626885,34.7992131 C124.925902,34.9607869 125.200787,35.124459 125.451541,35.2891803 C125.702295,35.4539016 125.927869,35.618623 126.129311,35.7854426 C126.330754,35.9512131 126.507016,36.119082 126.658098,36.2869508 C126.80918,36.4537705 126.935082,36.6226885 127.036852,36.7916066 C127.137574,36.9594754 127.213115,37.1294426 127.263475,37.2983607 C127.313836,37.4683279 127.340066,37.6372459 127.340066,37.8072131" id="Fill-21" fill="#FBFDFF" mask="url(#mask-2)"></path>
            <path d="M64.331541,48.576 C33.1602885,48.576 0.919291803,44.5471475 0.919291803,37.8072131 C0.919291803,31.0662295 33.1602885,27.037377 64.331541,27.037377 C95.5026885,27.037377 127.744,31.0662295 127.744,37.8072131 C127.744,44.5471475 95.5026885,48.576 64.331541,48.576 Z M64.331541,27.8483934 C26.8848262,27.8483934 1.7303082,32.9967213 1.7303082,37.8072131 C1.7303082,42.6177049 26.8848262,47.7649836 64.331541,47.7649836 C101.777836,47.7649836 126.936131,42.6145574 126.936131,37.8072131 C126.936131,32.9988197 101.777836,27.8483934 64.331541,27.8483934 L64.331541,27.8483934 Z" id="Fill-22" fill="#3C2010" mask="url(#mask-2)"></path>
            <path d="M118.692721,37.3969836 C118.692721,37.5060984 118.670689,37.6152131 118.627672,37.725377 C118.584656,37.8344918 118.519607,37.9436066 118.433574,38.0516721 C118.346492,38.1607869 118.238426,38.2688525 118.109377,38.3779672 C117.980328,38.4860328 117.829246,38.5930492 117.65718,38.7011148 C117.486164,38.8081311 117.292066,38.9151475 117.078033,39.0211148 C116.864,39.127082 116.628984,39.232 116.372984,39.336918 C116.116984,39.4418361 115.841049,39.5457049 115.544131,39.6485246 C115.247213,39.7513443 114.930361,39.8531148 114.592525,39.9548852 C114.254689,40.0556066 113.897967,40.1552787 113.521311,40.2539016 C113.144656,40.3525246 112.748066,40.4511475 112.33259,40.546623 C111.917115,40.6431475 111.482754,40.738623 111.029508,40.832 C110.576262,40.9264262 110.10518,41.0187541 109.615213,41.1100328 C109.125246,41.2002623 108.618492,41.2904918 108.092852,41.3775738 C107.568262,41.4657049 107.025836,41.5517377 106.466623,41.6367213 C105.90741,41.7206557 105.33141,41.803541 104.739672,41.8843279 C104.147934,41.9661639 103.540459,42.0448525 102.917246,42.1224918 C102.292984,42.199082 101.655082,42.274623 101.002492,42.3480656 C100.348852,42.4215082 99.6815738,42.4939016 99.0006557,42.5631475 C98.3197377,42.6323934 97.6241311,42.699541 96.9159344,42.7645902 C96.2077377,42.8296393 95.488,42.8925902 94.754623,42.9534426 C94.0222951,43.0142951 93.277377,43.0730492 92.520918,43.1286557 C91.7655082,43.1853115 90.9985574,43.2388197 90.2211148,43.2902295 C89.4436721,43.3426885 88.6567869,43.3909508 87.8594098,43.4381639 C87.063082,43.4843279 86.2573115,43.5294426 85.4431475,43.5714098 C84.6289836,43.6123279 83.8064262,43.6521967 82.9765246,43.688918 C82.146623,43.7256393 81.3097967,43.7602623 80.4663607,43.7917377 C79.6229246,43.8232131 78.773823,43.8525902 77.9184262,43.8788197 C77.0635541,43.9060984 76.2036459,43.9302295 75.3393311,43.9512131 C74.4745967,43.9721967 73.6066098,43.991082 72.7344262,44.0078689 C71.8626623,44.0236066 70.9880656,44.0361967 70.1106361,44.0477377 C69.2336262,44.0582295 68.3549377,44.0655738 67.4741508,44.0708197 C66.5938885,44.0771148 65.7131016,44.0792131 64.8315803,44.0792131 C63.9499541,44.0792131 63.0692721,44.0771148 62.1884852,44.0708197 C61.308223,44.0655738 60.4295344,44.0582295 59.552,44.0477377 C58.6749902,44.0361967 57.8003934,44.0236066 56.9283148,44.0078689 C56.0565508,43.991082 55.1881443,43.9721967 54.3237246,43.9512131 C53.4594098,43.9302295 52.5996066,43.9060984 51.7443148,43.8788197 C50.8893377,43.8525902 50.0401311,43.8232131 49.1966951,43.7917377 C48.3528393,43.7602623 47.5164328,43.7256393 46.6864262,43.688918 C45.8565246,43.6521967 45.0339672,43.6123279 44.2196984,43.5714098 C43.4053246,43.5294426 42.5999738,43.4843279 41.8029115,43.4381639 C41.0061639,43.3909508 40.2192787,43.3426885 39.4418361,43.2902295 C38.6643934,43.2388197 37.8975475,43.1853115 37.1414033,43.1286557 C36.385259,43.0730492 35.6409705,43.0142951 34.908223,42.9534426 C34.1749508,42.8925902 33.4544787,42.8296393 32.7467016,42.7645902 C32.0385049,42.699541 31.3438426,42.6323934 30.6627148,42.5631475 C29.9811672,42.4939016 29.3138885,42.4215082 28.6606689,42.3480656 C28.0077639,42.274623 27.3692328,42.199082 26.7463344,42.1224918 C26.1229115,42.0448525 25.5151213,41.9661639 24.9233836,41.8843279 C24.3311213,41.803541 23.7557508,41.7206557 23.1963279,41.6367213 C22.6373246,41.5517377 22.0951082,41.4657049 21.5700984,41.3775738 C21.0450885,41.2904918 20.5377049,41.2002623 20.0479475,41.1100328 C19.5581902,41.0187541 19.0868984,40.9264262 18.6336525,40.832 C18.1803016,40.738623 17.745941,40.6431475 17.3303607,40.546623 C16.9147803,40.4511475 16.5188197,40.3525246 16.1418492,40.2539016 C15.7651934,40.1552787 15.4077377,40.0556066 15.0705311,39.9548852 C14.7332197,39.8531148 14.4159475,39.7513443 14.1192393,39.6485246 C13.8221115,39.5457049 13.5458623,39.4418361 13.2897574,39.336918 C13.0339672,39.232 12.7991607,39.127082 12.5848131,39.0211148 C12.3704656,38.9151475 12.1774164,38.8081311 12.0057705,38.7011148 C11.8336,38.5930492 11.6828328,38.4860328 11.5536787,38.3779672 C11.4242098,38.2688525 11.3163541,38.1607869 11.2299016,38.0516721 C11.1434492,37.9436066 11.0787148,37.8344918 11.0356984,37.725377 C10.9922623,37.6152131 10.9705443,37.5060984 10.9705443,37.3969836 C10.9705443,37.2878689 10.9922623,37.1787541 11.0356984,37.0696393 C11.0787148,36.9594754 11.1434492,36.8503607 11.2299016,36.7422951 C11.3163541,36.6331803 11.4242098,36.5240656 11.5536787,36.416 C11.6828328,36.3079344 11.8336,36.200918 12.0057705,36.0939016 C12.1774164,35.9858361 12.3704656,35.8798689 12.5848131,35.7728525 C12.7991607,35.6668852 13.0339672,35.5619672 13.2897574,35.4570492 C13.5458623,35.3521311 13.8221115,35.2482623 14.1192393,35.1454426 C14.4159475,35.042623 14.7332197,34.9408525 15.0705311,34.8401311 C15.4077377,34.7394098 15.7651934,34.6386885 16.1418492,34.5400656 C16.5188197,34.4414426 16.9147803,34.3438689 17.3303607,34.2473443 C17.745941,34.1508197 18.1803016,34.0553443 18.6336525,33.9619672 C19.0868984,33.867541 19.5581902,33.7752131 20.0479475,33.6839344 C20.5377049,33.5937049 21.0450885,33.5045246 21.5700984,33.4163934 C22.0951082,33.3282623 22.6373246,33.2422295 23.1963279,33.1582951 C23.7557508,33.0733115 24.3311213,32.9904262 24.9233836,32.9096393 C25.5151213,32.8278033 26.1229115,32.7491148 26.7463344,32.6714754 C27.3692328,32.5948852 28.0077639,32.5193443 28.6606689,32.4459016 C29.3138885,32.372459 29.9811672,32.3011148 30.6627148,32.2318689 C31.3438426,32.162623 32.0385049,32.0944262 32.7467016,32.029377 C33.4544787,31.9643279 34.1749508,31.901377 34.908223,31.8405246 C35.6409705,31.7796721 36.385259,31.7219672 37.1414033,31.6653115 C37.8975475,31.6086557 38.6643934,31.5551475 39.4418361,31.5037377 C40.2192787,31.4523279 41.0061639,31.4030164 41.8029115,31.3558033 C42.5999738,31.3096393 43.4053246,31.2655738 44.2196984,31.2236066 C45.0343869,31.1816393 45.8565246,31.1417705 46.6864262,31.1050492 C47.5164328,31.0683279 48.3528393,31.0337049 49.1966951,31.0022295 C50.0401311,30.9707541 50.8893377,30.941377 51.7443148,30.9151475 C52.5996066,30.8878689 53.4594098,30.8647869 54.3237246,30.8427541 C55.1881443,30.8217705 56.0565508,30.8028852 56.9283148,30.7871475 C57.8003934,30.7714098 58.6749902,30.7577705 59.552,30.7462295 C60.4295344,30.7357377 61.308223,30.7273443 62.1884852,30.7220984 C63.0692721,30.7168525 63.9499541,30.7147541 64.8315803,30.7147541 C65.7131016,30.7147541 66.5938885,30.7168525 67.4741508,30.7220984 C68.3549377,30.7273443 69.2336262,30.7357377 70.1106361,30.7462295 C70.9880656,30.7577705 71.8626623,30.7714098 72.7344262,30.7871475 C73.6066098,30.8028852 74.4745967,30.8217705 75.3393311,30.8427541 C76.2036459,30.8647869 77.0635541,30.8878689 77.9184262,30.9151475 C78.773823,30.941377 79.6229246,30.9707541 80.4663607,31.0022295 C81.3097967,31.0337049 82.146623,31.0683279 82.9765246,31.1050492 C83.8064262,31.1417705 84.6289836,31.1816393 85.4431475,31.2236066 C86.2573115,31.2655738 87.063082,31.3096393 87.8594098,31.3558033 C88.6567869,31.4030164 89.4436721,31.4523279 90.2211148,31.5037377 C90.9985574,31.5551475 91.7655082,31.6086557 92.520918,31.6653115 C93.277377,31.7219672 94.0222951,31.7796721 94.754623,31.8405246 C95.488,31.901377 96.2077377,31.9643279 96.9159344,32.029377 C97.6241311,32.0944262 98.3197377,32.162623 99.0006557,32.2318689 C99.6815738,32.3011148 100.348852,32.372459 101.002492,32.4459016 C101.655082,32.5193443 102.292984,32.5948852 102.917246,32.6714754 C103.540459,32.7491148 104.147934,32.8278033 104.739672,32.9096393 C105.33141,32.9904262 105.90741,33.0733115 106.466623,33.1582951 C107.025836,33.2422295 107.568262,33.3282623 108.092852,33.4163934 C108.618492,33.5045246 109.125246,33.5937049 109.615213,33.6839344 C110.10518,33.7752131 110.576262,33.867541 111.029508,33.9619672 C111.482754,34.0553443 111.917115,34.1508197 112.33259,34.2473443 C112.748066,34.3438689 113.144656,34.4414426 113.521311,34.5400656 C113.897967,34.6386885 114.254689,34.7394098 114.592525,34.8401311 C114.930361,34.9408525 115.247213,35.042623 115.544131,35.1454426 C115.841049,35.2482623 116.116984,35.3521311 116.372984,35.4570492 C116.628984,35.5619672 116.864,35.6668852 117.078033,35.7728525 C117.292066,35.8798689 117.486164,35.9858361 117.65718,36.0939016 C117.829246,36.200918 117.980328,36.3079344 118.109377,36.416 C118.238426,36.5240656 118.346492,36.6331803 118.433574,36.7422951 C118.519607,36.8503607 118.584656,36.9594754 118.627672,37.0696393 C118.670689,37.1787541 118.692721,37.2878689 118.692721,37.3969836" id="Fill-23" fill="#B2D9E9" mask="url(#mask-2)"></path>
            <path d="M64.8315803,44.4831475 C38.5229639,44.4831475 10.5635672,42.0007869 10.5635672,37.3969836 C10.5635672,32.7931803 38.5229639,30.3108197 64.8315803,30.3108197 C91.1401967,30.3108197 119.098754,32.7931803 119.098754,37.3969836 C119.098754,42.0007869 91.1370492,44.4831475 64.8315803,44.4831475 Z M64.8315803,31.1218361 C33.328682,31.1218361 11.3745836,34.4299016 11.3745836,37.3969836 C11.3745836,40.3651148 33.328682,43.6721311 64.8315803,43.6721311 C96.3336393,43.6721311 118.288787,40.3651148 118.288787,37.3969836 C118.288787,34.4299016 96.3336393,31.1218361 64.8315803,31.1218361 L64.8315803,31.1218361 Z" id="Fill-24" fill="#3C2010" mask="url(#mask-2)"></path>
            <path d="M63.1803803,44.0771148 C63.741377,44.0855082 67.1045246,40.6557377 67.5491672,40.2486557 C70.4848787,37.5543607 73.4499672,34.891541 76.414741,32.2318689 C84.1201311,25.3135738 91.8609836,18.4309508 99.6039344,11.5535738 C103.688393,7.92655738 107.283934,2.62504918 112.710295,0.932721311 C118.88682,-0.99147541 129.618885,3.69101639 126.898361,11.5042623 C126.266754,13.312 125.075934,14.8584918 123.892459,16.3640656 C119.346361,22.1660328 114.411016,28.0634754 109.638295,33.8392131 C107.141246,36.8619016 105.321967,39.0567869 102.877377,42.1266885 C102.877377,42.1266885 94.824918,43.0761967 85.8932459,43.5472787 C76.0860328,44.0655738 65.2327869,44.1054426 63.1803803,44.0771148" id="Fill-25" fill="#EEA1A9" mask="url(#mask-2)"></path>
            <path d="M64.6454557,44.4894426 C63.9942295,44.4894426 63.4942951,44.4862951 63.1746098,44.4810492 L63.1864656,43.6700328 C63.1483803,43.6700328 63.1340066,43.6752787 63.1340066,43.6752787 C63.4622951,43.5766557 64.6832262,42.4897049 66.7614426,40.4490492 C67.0086295,40.2045902 67.1918164,40.0241311 67.2762754,39.9496393 C70.1565902,37.3036066 73.1126557,34.6502295 75.9729311,32.0807869 L76.1442623,31.9265574 C83.4371148,25.3807213 90.6890492,18.9251148 99.3342951,11.2451148 C100.478951,10.228459 101.569049,9.09429508 102.72,7.89718033 C105.61259,4.89127869 108.600656,1.7815082 112.58859,0.540327869 C116.678295,-0.732327869 122.488656,0.793180328 125.537574,3.94701639 C127.020066,5.47881967 128.522492,8.05665574 127.279213,11.6322623 C126.612984,13.544918 125.33718,15.1721967 124.212459,16.6085246 C120.453246,21.4011803 116.38977,26.3134426 112.457443,31.063082 L109.428459,34.7257705 C107.213639,37.4085246 105.463607,39.5278689 103.196328,42.3732459 L103.092459,42.5043934 L102.926689,42.5243279 C102.844852,42.5327213 94.7588197,43.4832787 85.9163279,43.9491148 C77.6471082,44.3876721 68.5024525,44.4894426 64.6454557,44.4894426 Z M64.5000393,43.6784262 C68.2438295,43.6784262 77.5106098,43.5850492 85.8733115,43.1433443 C93.9918689,42.7163279 101.470426,41.879082 102.664393,41.7426885 C104.885508,38.9550164 106.617705,36.8566557 108.804197,34.2148197 L111.83318,30.5489836 C115.759213,25.8056393 119.82059,20.898623 123.572459,16.1112131 C124.65941,14.7252459 125.889049,13.1525246 126.514361,11.3678689 C127.624393,8.17940984 126.278295,5.87960656 124.956328,4.51147541 C122.09941,1.55488525 116.657311,0.121704918 112.829902,1.31357377 C109.042361,2.49390164 106.123541,5.52498361 103.304393,8.4584918 C102.191213,9.61468852 101.04341,10.8097049 99.8714754,11.8504918 C91.2272787,19.5294426 83.9753443,25.9819016 76.6848,32.5287869 L76.5135738,32.6819672 C73.6561311,35.2493115 70.6999607,37.9026885 67.8225836,40.5424262 C67.7409574,40.6148197 67.5667934,40.7889836 67.3283148,41.0219016 C66.0000525,42.3323279 65.1134951,43.1611803 64.5000393,43.6784262 L64.5000393,43.6784262 Z" id="Fill-26" fill="#3C2010" mask="url(#mask-2)"></path>
        </g>
    </g>
</svg>