<?xml version="1.0" encoding="UTF-8"?>
<svg width="128px" height="128px" viewBox="0 0 128 128" version="1.1" xmlns="http://www.w3.org/2000/svg" xmlns:xlink="http://www.w3.org/1999/xlink">
    <title>蒸-Icon</title>
    <g id="蒸-Icon" stroke="none" stroke-width="1" fill="none" fill-rule="evenodd">
        <g id="编组" transform="translate(0.000000, 7.055118)">
            <path d="M121.844913,71.0087559 L6.28913386,71.0087559 C3.15968504,71.0087559 0.62488189,68.4739528 0.62488189,65.3445039 C0.62488189,62.2150551 3.15968504,59.680252 6.28913386,59.680252 L121.844913,59.680252 C124.974362,59.680252 127.509165,62.2150551 127.509165,65.3445039 C127.50715,68.471937 124.971339,71.0087559 121.844913,71.0087559" id="Fill-3" fill="#F6F6F6"></path>
            <path d="M121.844913,71.3302677 L6.28913386,71.3302677 C2.98733858,71.3302677 0.301354331,68.6462992 0.301354331,65.3445039 C0.301354331,62.0427087 2.98733858,59.3567244 6.28913386,59.3567244 L121.844913,59.3567244 C125.146709,59.3567244 127.832693,62.0427087 127.832693,65.3445039 C127.830677,68.6462992 125.143685,71.3302677 121.844913,71.3302677 Z M6.28913386,60.0027717 C3.34311811,60.0027717 0.947401575,62.3984882 0.947401575,65.3445039 C0.947401575,68.2905197 3.34311811,70.6862362 6.28913386,70.6862362 L121.844913,70.6862362 C124.790929,70.6862362 127.185638,68.2905197 127.185638,65.3445039 C127.185638,62.3984882 124.790929,60.0027717 121.844913,60.0027717 L6.28913386,60.0027717 L6.28913386,60.0027717 Z" id="Fill-5" fill="#3E1313"></path>
            <path d="M72.448,11.7114961 L55.7797795,11.7114961 C52.6503307,11.7114961 50.1155276,9.17568504 50.1155276,6.04724409 C50.1155276,2.91779528 52.6503307,0.381984252 55.7797795,0.381984252 L72.448,0.381984252 C75.5774488,0.381984252 78.112252,2.91779528 78.112252,6.04724409 C78.112252,9.17366929 75.5774488,11.7114961 72.448,11.7114961" id="Fill-6" fill="#F3A7A9"></path>
            <path d="M72.448,12.032 L55.7797795,12.032 C52.4779843,12.032 49.792,9.34601575 49.792,6.04422047 C49.792,2.7424252 52.4779843,0.0594645669 55.7797795,0.0594645669 L72.448,0.0594645669 C75.7497953,0.0594645669 78.4357795,2.74544882 78.4357795,6.04724409 C78.4357795,9.3480315 75.7497953,12.032 72.448,12.032 Z M55.7797795,0.705511811 C52.8337638,0.705511811 50.4390551,3.10122835 50.4390551,6.04724409 C50.4390551,8.99225197 52.8337638,11.3879685 55.7797795,11.3879685 L72.448,11.3879685 C75.3940157,11.3879685 77.7887244,8.99225197 77.7887244,6.04724409 C77.7887244,3.10122835 75.3940157,0.705511811 72.448,0.705511811 L55.7797795,0.705511811 L55.7797795,0.705511811 L55.7797795,0.705511811 Z" id="Fill-7" fill="#3E1313"></path>
            <polygon id="Fill-8" fill="#F6F6F6" points="58.3700157 19.6928504 70.9936378 19.6928504 70.9936378 11.711748 58.3700157 11.711748"></polygon>
            <path d="M71.3141417,20.0133543 L58.0464882,20.0133543 L58.0464882,11.3879685 L71.3141417,11.3879685 L71.3141417,20.0133543 Z M58.6905197,19.3673071 L70.6680945,19.3673071 L70.6680945,12.032 L58.6905197,12.032 L58.6905197,19.3673071 L58.6905197,19.3673071 Z" id="Fill-9" fill="#3E1313"></path>
            <path d="M23.3020472,48.7942047 C23.5005984,48.247937 29.7826772,28.4774803 53.12,20.8085669 C76.4573228,13.1396535 95.3348031,33.1751811 95.3348031,33.1751811 C95.3348031,33.1751811 102.844472,41.4437795 104.829984,48.7942047 L23.3020472,48.7942047" id="Fill-10" fill="#F3A7A9"></path>
            <path d="M105.251276,49.1157165 L22.8394331,49.1157165 L23.0178268,48.6198425 C24.1950236,45.1829921 31.1725354,27.6782362 53.0171969,20.5011654 C65.1802205,16.503937 76.1055748,20.1050709 83.1284409,23.8281575 C90.7227717,27.8576378 95.520252,32.9000315 95.5686299,32.9494173 C95.6472441,33.0371024 103.156913,41.3661732 105.141417,48.7075276 L105.251276,49.1157165 Z M23.7586142,48.471685 L104.403654,48.471685 C102.301228,41.3802835 95.1685039,33.4714961 95.0969449,33.3928819 C95.0536063,33.3475276 90.3165984,28.3706457 82.8109606,24.3945827 C75.904,20.7339843 65.1630866,17.1943307 53.2228031,21.1189921 C32.3446929,27.9755591 25.2361575,44.3706457 23.7586142,48.471685 L23.7586142,48.471685 Z" id="Fill-11" fill="#3C2010"></path>
            <path d="M19.4822047,62.7260472 L19.4822047,100.983937 C19.4822047,108.367622 25.4679685,114.350362 32.8486299,114.350362 L93.1819843,114.350362 C100.564661,114.350362 106.548409,108.364598 106.548409,100.983937 L106.548409,62.7260472 C106.548409,57.5576693 105.641323,52.6009449 103.988409,48 L22.0422047,48 C20.3892913,52.6009449 19.4822047,57.5576693 19.4822047,62.7260472" id="Fill-12" fill="#A9D9D0"></path>
            <path d="M93.1819843,114.67389 L32.8486299,114.67389 C25.2996535,114.67389 19.159685,108.533921 19.159685,100.983937 L19.159685,62.7260472 C19.159685,57.6433386 20.0264567,52.6503307 21.7388346,47.8901417 L21.8154331,47.6764724 L104.216189,47.6764724 L104.29178,47.8901417 C106.004157,52.6503307 106.870929,57.6433386 106.870929,62.7260472 L106.870929,100.983937 C106.870929,108.533921 100.730961,114.67389 93.1819843,114.67389 Z M22.2689764,48.3225197 C20.6331969,52.9476535 19.8037165,57.7935118 19.8037165,62.7260472 L19.8037165,100.983937 C19.8037165,108.177134 25.6554331,114.027843 32.8466142,114.027843 L93.1799685,114.027843 C100.372157,114.027843 106.222866,108.175118 106.222866,100.983937 L106.222866,62.7260472 C106.222866,57.7935118 105.393386,52.9476535 103.757606,48.3225197 L22.2689764,48.3225197 L22.2689764,48.3225197 L22.2689764,48.3225197 Z" id="Fill-13" fill="#3E1313"></path>
            <path d="M109.296882,54.3385197 L17.5390236,54.3385197 C15.7510551,54.3385197 14.3027402,52.8891969 14.3027402,51.1032441 C14.3027402,49.3142677 15.7530709,47.8669606 17.5390236,47.8669606 L109.299906,47.8669606 C111.087874,47.8669606 112.536189,49.3162835 112.536189,51.1032441 C112.536189,52.8912126 111.085858,54.3385197 109.296882,54.3385197" id="Fill-14" fill="#A9D9D0"></path>
            <path d="M109.296882,54.6620472 L17.5390236,54.6620472 C15.575685,54.6620472 13.9802205,53.0655748 13.9802205,51.1032441 C13.9802205,49.1388976 15.575685,47.5434331 17.5390236,47.5434331 L109.299906,47.5434331 C111.262236,47.5434331 112.858709,49.1388976 112.858709,51.1032441 C112.858709,53.0655748 111.26022,54.6620472 109.296882,54.6620472 Z M17.5390236,48.1894803 C15.9314646,48.1894803 14.6262677,49.4977008 14.6262677,51.1032441 C14.6262677,52.7097953 15.9344882,54.016 17.5390236,54.016 L109.299906,54.016 C110.906457,54.016 112.212661,52.7077795 112.212661,51.1032441 C112.212661,49.495685 110.904441,48.1894803 109.299906,48.1894803 L17.5390236,48.1894803 L17.5390236,48.1894803 Z" id="Fill-15" fill="#3E1313"></path>
        </g>
    </g>
</svg>