<?xml version="1.0" encoding="UTF-8"?>
<svg width="128px" height="128px" viewBox="0 0 128 128" version="1.1" xmlns="http://www.w3.org/2000/svg" xmlns:xlink="http://www.w3.org/1999/xlink">
    <title>冲-Icon</title>
    <g id="冲-Icon" stroke="none" stroke-width="1" fill="none" fill-rule="evenodd">
        <g id="编组" transform="translate(0.000000, 34.552147)">
            <path d="M18.1466307,4.11995092 C8.4297816,4.11995092 0.552755828,11.9968982 0.552755828,21.7138258 L0.552755828,59.3815558 L75.9613252,59.3815558 L75.9613252,4.11995092 L18.1466307,4.11995092 Z M15.9159755,25.6791558 C11.9748319,25.6791558 8.78158528,22.4859092 8.78158528,18.5447656 C8.78158528,14.6040147 11.9772663,11.4107681 15.9159755,11.4107681 C19.8567264,11.4107681 23.0499745,14.6064491 23.0499745,18.5447656 C23.0524859,22.4859092 19.8567264,25.6791558 15.9159755,25.6791558 L15.9159755,25.6791558 Z" id="Fill-99" fill="#F5D2B2"></path>
            <path d="M76.205546,59.6257767 L0.308299387,59.6257767 L0.308299387,21.7138258 C0.308299387,11.8773006 8.31010552,3.87573006 18.1466307,3.87573006 L76.2079018,3.87573006 L76.2079018,59.6257767 L76.205546,59.6257767 Z M0.79689816,59.1370994 L75.7171043,59.1370994 L75.7171043,4.36440736 L18.1466307,4.36440736 C8.57882699,4.36440736 0.79689816,12.1460221 0.79689816,21.7138258 L0.79689816,59.1370994 Z M15.9159755,25.9236123 C11.8478528,25.9236123 8.53712883,22.6128883 8.53712883,18.5447656 C8.53712883,14.4769571 11.8478528,11.1662331 15.9159755,11.1662331 C19.9837055,11.1662331 23.294508,14.4769571 23.294508,18.5447656 C23.294508,22.6128883 19.9862184,25.9236123 15.9159755,25.9236123 Z M15.9159755,11.6549104 C12.1165742,11.6549104 9.02580613,14.7456785 9.02580613,18.5447656 C9.02580613,22.3441669 12.1165742,25.434935 15.9159755,25.434935 C19.7150626,25.434935 22.8058307,22.3441669 22.8058307,18.5447656 C22.8058307,14.7456785 19.7174969,11.6549104 15.9159755,11.6549104 L15.9159755,11.6549104 Z" id="Fill-101" fill="#3E1313"></path>
            <polygon id="Fill-102" fill="#F7E0B3" points="75.9613252 14.7018601 85.1331141 14.7018601 85.1331141 4.11995092 75.9613252 4.11995092"></polygon>
            <path d="M85.3775706,14.9460025 L75.7171043,14.9460025 L75.7171043,3.87573006 L85.3775706,3.87573006 L85.3775706,14.9460025 Z M76.205546,14.4573252 L84.8891288,14.4573252 L84.8891288,4.36440736 L76.205546,4.36440736 L76.205546,14.4573252 L76.205546,14.4573252 Z" id="Fill-103" fill="#3E1313"></path>
            <path d="M118.366233,18.5447656 L85.1333497,18.5447656 L85.1333497,0.357300613 L118.366233,0.357300613 C123.389644,0.357300613 127.460515,4.4279362 127.460515,9.45119018 C127.460515,14.4745227 123.389644,18.5447656 118.366233,18.5447656" id="Fill-104" fill="#FAF3D8"></path>
            <path d="M118.366233,18.7893006 L84.8891288,18.7893006 L84.8891288,0.113079755 L118.366233,0.113079755 C123.514503,0.113079755 127.704736,4.3030773 127.704736,9.45119018 C127.704736,14.5990675 123.516859,18.7893006 118.366233,18.7893006 Z M85.3775706,18.3006233 L118.366233,18.3006233 C123.245939,18.3006233 127.216294,14.330346 127.216294,9.45119018 C127.216294,4.57211288 123.245939,0.601521472 118.366233,0.601521472 L85.3775706,0.601521472 L85.3775706,18.3006233 L85.3775706,18.3006233 Z" id="Fill-105" fill="#3E1313"></path>
            <polyline id="Fill-106" fill="#FAF3D8" points="62.8558528 4.11995092 0.552755828 42.5766479 0.552755828 54.7978209 75.9613252 9.40949202 75.9613252 4.11995092 62.8558528 4.11995092"></polyline>
            <path d="M68.3190184,25.6791558 C67.7638282,25.8650307 32.5812613,47.4828172 32.5812613,47.4828172 L31.7604123,55.5309546 L68.3190184,33.5953669" id="Fill-107" fill="#FAF3D8"></path>
            <path d="M76.205546,59.6257767 L0.308299387,59.6257767 L0.308299387,21.7138258 C0.308299387,11.8773006 8.31010552,3.87573006 18.1466307,3.87573006 L76.2079018,3.87573006 L76.2079018,59.6257767 L76.205546,59.6257767 Z M0.79689816,59.1370994 L75.7171043,59.1370994 L75.7171043,4.36440736 L18.1466307,4.36440736 C8.57882699,4.36440736 0.79689816,12.1460221 0.79689816,21.7138258 L0.79689816,59.1370994 Z M15.9159755,25.9236123 C11.8478528,25.9236123 8.53712883,22.6128883 8.53712883,18.5447656 C8.53712883,14.4769571 11.8478528,11.1662331 15.9159755,11.1662331 C19.9837055,11.1662331 23.294508,14.4769571 23.294508,18.5447656 C23.294508,22.6128883 19.9862184,25.9236123 15.9159755,25.9236123 Z M15.9159755,11.6549104 C12.1165742,11.6549104 9.02580613,14.7456785 9.02580613,18.5447656 C9.02580613,22.3441669 12.1165742,25.434935 15.9159755,25.434935 C19.7150626,25.434935 22.8058307,22.3441669 22.8058307,18.5447656 C22.8058307,14.7456785 19.7174969,11.6549104 15.9159755,11.6549104 L15.9159755,11.6549104 Z" id="Fill-108" fill="#3E1313"></path>
            <path d="M85.1333497,14.7018601 L125.788663,14.7018601 C125.788663,14.7018601 122.945178,18.5447656 118.871951,18.5447656 C114.799509,18.5447656 85.1333497,18.5447656 85.1333497,18.5447656 L85.1333497,14.7018601 L85.1333497,14.7018601" id="Fill-109" fill="#F7E0B3"></path>
            <path d="M118.366233,18.7893006 L84.8891288,18.7893006 L84.8891288,0.113079755 L118.366233,0.113079755 C123.514503,0.113079755 127.704736,4.3030773 127.704736,9.45119018 C127.704736,14.5990675 123.516859,18.7893006 118.366233,18.7893006 Z M85.3775706,18.3006233 L118.366233,18.3006233 C123.245939,18.3006233 127.216294,14.330346 127.216294,9.45119018 C127.216294,4.57211288 123.245939,0.601521472 118.366233,0.601521472 L85.3775706,0.601521472 L85.3775706,18.3006233 L85.3775706,18.3006233 Z" id="Fill-110" fill="#3E1313"></path>
        </g>
    </g>
</svg>