<svg id="Capa_1" enable-background="new 0 0 512 512" height="512" viewBox="0 0 512 512" width="512" xmlns="http://www.w3.org/2000/svg"><g><g><path d="m200.786 424.651h-171.37c-7.938 0-14.395-6.457-14.395-14.395v-169.777c0-4.148-3.362-7.51-7.51-7.51s-7.511 3.361-7.511 7.51v169.777c0 16.22 13.196 29.416 29.416 29.416h171.37c4.148 0 7.51-3.362 7.51-7.51 0-4.149-3.362-7.511-7.51-7.511z"/><path d="m52.758 262.921h46.754c7.817 0 14.177-6.359 14.177-14.177v-46.754c0-7.817-6.359-14.177-14.177-14.177h-46.754c-7.817 0-14.177 6.359-14.177 14.177v46.754c.001 7.817 6.36 14.177 14.177 14.177zm.844-60.087h45.066v45.066h-45.066z"/><path d="m194.282 187.813h-46.755c-7.817 0-14.177 6.359-14.177 14.177v46.754c0 7.817 6.359 14.177 14.177 14.177h46.755c7.817 0 14.177-6.359 14.177-14.177v-46.754c0-7.818-6.36-14.177-14.177-14.177zm-.844 60.087h-45.067v-45.066h45.067z"/><path d="m242.296 262.921h46.754c7.817 0 14.177-6.359 14.177-14.177v-46.754c0-7.817-6.359-14.177-14.177-14.177h-46.754c-7.817 0-14.177 6.359-14.177 14.177v46.754c.001 7.817 6.36 14.177 14.177 14.177zm.844-60.087h45.066v45.066h-45.066z"/><path d="m38.582 368.301c0 7.817 6.359 14.177 14.177 14.177h46.754c7.817 0 14.177-6.359 14.177-14.177v-46.754c0-7.817-6.359-14.177-14.177-14.177h-46.755c-7.817 0-14.177 6.359-14.177 14.177v46.754zm15.02-45.911h45.066v45.066h-45.066z"/><path d="m194.282 307.37h-46.755c-7.817 0-14.177 6.359-14.177 14.177v46.754c0 7.817 6.359 14.177 14.177 14.177h46.755c7.817 0 14.177-6.359 14.177-14.177v-46.754c0-7.818-6.36-14.177-14.177-14.177zm-.844 60.087h-45.067v-45.067h45.067z"/><path d="m511.806 399.763c-.08-18.867-11.29-35.971-28.559-43.573-9.422-4.148-23.926-7.227-36.574-9.32-.007-.001-.013-.003-.02-.005-.009-.001-.017-.001-.025-.003-6.053-1.001-11.68-1.776-16.116-2.333-.001 0-.001 0-.002 0-.389-.049-.684-.378-.686-.767l-.076-18.003c12.745-9.669 19.706-22.641 21.679-36.807 7.63-1.615 13.357-8.418 13.323-16.517l-.044-10.302c-.019-4.584-1.886-8.848-5.062-11.943l-.106-25.049c-.071-17.013-9.289-31.883-22.96-39.981 0-16.628 0-63.362 0-80.252 0-16.22-13.196-29.416-29.416-29.416h-17.928v-7.661c0-16.339-13.293-29.632-29.632-29.632s-29.632 13.293-29.632 29.632v7.661h-34.946v-7.661c0-16.339-13.293-29.632-29.632-29.632s-29.632 13.293-29.632 29.632v7.661h-34.947v-7.661c0-16.339-13.293-29.632-29.632-29.632s-29.632 13.293-29.632 29.632v7.661h-34.946v-7.661c0-16.339-13.293-29.632-29.632-29.632s-29.628 13.293-29.628 29.632v7.661h-17.927c-16.22 0-29.416 13.196-29.416 29.416v100.441c0 4.148 3.362 7.51 7.51 7.51s7.51-3.362 7.51-7.51v-48.624h406.537v22.765c-2.817-.533-5.718-.823-8.686-.823-.066 0-.134 0-.199 0 0 0 0 0-.001 0l-40.386.171c-10.033.041-19.004 6.24-22.624 15.527-13.101.539-23.567 11.394-23.51 24.612l.134 31.776c-3.148 3.122-4.98 7.4-4.961 11.984l.044 10.304c.034 8.098 5.819 14.853 13.461 16.404 2.078 14.056 9.091 27.011 21.988 36.623l.076 18.002c.002.389-.29.722-.68.774-.001 0-.002 0-.003 0-4.434.594-10.061 1.418-16.11 2.471-.004.001-.007.001-.011.001-.003 0-.006.001-.009.002-12.632 2.199-27.115 5.402-36.504 9.63-.118.053-.233.111-.35.166v-35.567c0-7.817-6.359-14.177-14.177-14.177h-46.754c-7.817 0-14.177 6.359-14.177 14.177v46.754c0 7.817 6.359 14.177 14.177 14.177h36.65c-2.333 5.702-3.587 11.896-3.56 18.283l.1 23.89h-39.595c-4.148 0-7.51 3.362-7.51 7.51s3.362 7.51 7.51 7.51h39.661l.03 7.084c.063 14.999 12.241 27.047 27.125 27.045h.117 182.1.032c15.229-.065 27.107-13.276 27.044-28.042zm-223.6-32.306h-45.066v-45.067h45.066zm56.786-299.626c0-8.057 6.554-14.611 14.611-14.611s14.611 6.554 14.611 14.611v30.343c0 8.057-6.554 14.611-14.611 14.611s-14.611-6.554-14.611-14.611zm-94.209 0c0-8.057 6.554-14.611 14.611-14.611s14.611 6.554 14.611 14.611v30.343c0 8.057-6.554 14.611-14.611 14.611s-14.611-6.554-14.611-14.611zm-94.21 0c0-8.057 6.554-14.611 14.611-14.611s14.611 6.554 14.611 14.611v30.343c0 8.057-6.554 14.611-14.611 14.611s-14.611-6.554-14.611-14.611zm-94.21 0c0-8.057 6.554-14.611 14.611-14.611s14.611 6.554 14.611 14.611v30.343c0 8.057-6.554 14.611-14.611 14.611s-14.611-6.554-14.611-14.611zm-47.342 73.874v-36.797c0-7.938 6.457-14.395 14.395-14.395h17.927v7.661c0 16.339 13.293 29.632 29.632 29.632s29.632-13.293 29.632-29.632v-7.661h34.946v7.661c0 16.339 13.293 29.632 29.632 29.632s29.632-13.293 29.632-29.632v-7.661h34.947v7.661c0 16.339 13.293 29.632 29.632 29.632s29.632-13.293 29.632-29.632v-7.661h34.946v7.661c0 16.339 13.293 29.632 29.632 29.632s29.632-13.293 29.632-29.632v-7.661h17.928c7.938 0 14.395 6.457 14.395 14.395v36.797zm335.618 67.66c5.823-.024 11.003-3.717 12.887-9.19 1.296-3.762 4.841-6.3 8.823-6.316l40.387-.171h.135c17.389 0 31.574 14.11 31.647 31.516l.094 22.292c-2.463.683-5.219 1.795-7.804 3.608l-.07-16.813c-.052-12.198-9.989-22.083-22.185-22.083-.031 0-.065 0-.096 0l-.167.001c-3.181.014-6.333.513-9.368 1.483-7.922 2.531-16.267 2.572-24.222.102-3.003-.932-6.116-1.404-9.265-1.404-.043 0-.085 0-.127 0l-.167.001c-12.229.052-22.135 10.042-22.083 22.271l.06 14.002c-2.655-.72-5.376-1.149-7.825-1.402l-.119-28.347c-.024-5.244 4.223-9.527 9.465-9.55zm-1.398 72.696c-.104-4.073-3.436-7.318-7.506-7.318-.011 0-.022 0-.032 0l-3.517.015c-.003 0-.005 0-.008 0-.983 0-1.785-.797-1.789-1.781l-.044-10.303c-.001-.256.062-.476.147-.679 5.325.246 10.754 1.318 12.074 2.528 1.757 1.717 4.069 2.625 6.423 2.625 1.209 0 2.428-.24 3.589-.73 3.415-1.446 5.613-4.779 5.599-8.493l-.099-23.327c-.017-3.946 3.18-7.17 7.135-7.187.12.008 2.347-.105 5.035.729 10.792 3.349 22.389 3.328 33.246-.14 2.616-.835 4.935-.764 5.036-.772h.031c3.931 0 7.139 3.19 7.155 7.125l.098 23.332c.006 1.268.42 5.568 5.504 7.669 1.483.614 12.419 3.572 17.256-1.238 1.356-1.348 3.382-2.048 5.036-2.388.041.146.074.298.075.468l.044 10.303c.004.987-.795 1.793-1.781 1.796l-3.517.015c-4.085.018-7.408 3.296-7.478 7.38-.228 13.155-6.017 25.393-18.771 33.875-7.67 4.907-15.415 7.578-24.912 7.74-9.427-.081-17.293-2.678-24.963-7.523-12.734-8.31-18.727-20.516-19.066-33.721zm22.633 52.342c6.724 2.556 13.865 3.872 21.378 3.924h.052c.038 0 .076 0 .115-.001 7.512-.115 14.642-1.491 21.344-4.103l.04 9.603c.011 2.662.705 5.18 1.902 7.398l-23.254 14.681-23.377-14.484c1.179-2.228 1.852-4.753 1.84-7.415zm-2.26 124.377h-42.801l-.095-22.44c-.018-4.138-3.377-7.479-7.509-7.479-.011 0-.022 0-.032 0-4.148.018-7.497 3.394-7.479 7.542l.095 22.378h-9.001c-.018 0-.034 0-.052 0-6.682 0-12.11-5.393-12.138-12.088l-.194-45.995c-.055-12.943 7.535-24.739 19.337-30.052 5.15-2.32 12.451-4.333 19.991-5.999.435 1.306 1.052 2.564 1.897 3.715l16.677 22.719c3.61 4.918 8.93 8.062 14.98 8.852 2.627.343 5.24.237 7.977-.409l6.019 10.373zm1.01-75.255c-1.498 1.205-3.415 1.773-5.387 1.513-1.945-.254-3.656-1.264-4.817-2.847l-15.07-20.53c3.851-.641 7.363-1.166 10.207-1.566l24.962 15.466zm14.195 75.255 7.719-49.184c.268-1.713-.092-3.498-.923-4.936l-7.416-12.78 9.317-7.499 9.336 7.425-7.327 12.827c-.866 1.518-1.162 3.333-.886 4.966l8.227 49.181zm46.477-99.004c2.846.376 6.362.872 10.217 1.48l-14.939 20.701c-1.149 1.593-2.855 2.618-4.802 2.887-2.008.272-3.927-.304-5.404-1.482l-9.927-7.895zm53.614 99.004h-9.016l-.098-23.069c-.018-4.138-3.377-7.479-7.509-7.479-.011 0-.022 0-.032 0-4.148.018-7.497 3.394-7.479 7.542l.097 23.006h-42.777l-8.2-49.021 5.936-10.392c2.659.61 5.262.732 7.99.357 6.053-.834 11.356-4.022 14.932-8.977l16.528-22.903c.837-1.159 1.444-2.424 1.869-3.736 7.556 1.602 14.875 3.553 20.045 5.829 11.845 5.215 19.535 16.947 19.59 29.889l.194 45.996c.026 6.636-5.332 12.918-12.07 12.958z"/></g></g></svg>