<svg id="Capa_1" enable-background="new 0 0 512 512" height="512" viewBox="0 0 512 512" width="512" xmlns="http://www.w3.org/2000/svg"><g><g><path d="m256.022 342.037c87.138 0 160.195-65.204 169.936-151.671.474-4.202-2.549-7.993-6.752-8.466-4.197-.473-7.993 2.549-8.466 6.752-3.228 28.651-14.099 54.732-30.439 76.325-5.665-8.425-13.646-15.215-23.005-19.334-15.889-6.994-44.559-11.338-60.234-13.304-.923-.116-1.621-.901-1.625-1.827l-.089-21.127c1.505-1.126 2.988-2.309 4.441-3.571 11.303-9.815 18.57-23.743 20.53-38.99 3.727-.64 7.155-2.416 9.871-5.154 3.447-3.476 5.334-8.086 5.313-12.98l-.05-11.822c-.022-5.135-2.166-9.907-5.805-13.301l-.123-29.133c-.12-28.639-23.297-52.359-52.574-52.359-.075 0-.153 0-.227 0l-46.331.194c-11.327.048-21.431 7.179-25.287 17.794-14.81.269-26.745 12.432-26.683 27.292l.156 36.848c-3.612 3.425-5.715 8.216-5.692 13.35l.05 11.822c.039 9.195 6.786 16.611 15.336 18.007 2.089 15.229 9.473 29.095 20.859 38.815 1.463 1.249 2.956 2.42 4.47 3.533l.089 21.127c.004.926-.688 1.718-1.609 1.841-15.661 2.1-44.295 6.686-60.12 13.811-8.444 3.802-15.679 9.672-21.117 17.001-19.172-25.879-30.527-57.882-30.527-92.489 0-85.856 69.849-155.705 155.705-155.705 79.541 0 146.488 60.089 154.836 139.154.445 4.205 4.21 7.239 8.42 6.81 4.205-.445 7.254-4.213 6.81-8.42-9.147-86.611-82.44-152.86-170.067-152.86-94.3 0-171.019 76.718-171.019 171.019 0 94.318 76.751 171.018 171.019 171.018zm-13.174-15.877 4.895-21.088 14.242-.06 5.14 21.321c-8.239.58-16.22.506-24.277-.173zm20.571-36.468-17.228.073-4.551-8.35 13.101-6.747 13.161 6.67zm-34.469-71.348c7.99 3.231 16.506 4.906 25.497 4.968h.053c.039 0 .079 0 .118-.001 8.989-.138 17.491-1.885 25.453-5.182l.052 12.445c.013 3.207.923 6.232 2.499 8.82l-27.947 17.644-28.096-17.408c1.554-2.601 2.438-5.633 2.425-8.84zm122.176 41.313c8.075 3.554 14.722 9.887 18.749 17.708-22.799 24.381-53.309 41.298-87.443 47.121l-6.295-26.111 6.021-11.221c1.177.173 2.359.269 3.539.269 6.734 0 13.366-2.796 18.08-8.047l23.83-26.537c8.846 1.866 17.45 4.147 23.519 6.818zm-53.26-11.776c3.322.437 7.477 1.019 12.051 1.741l-17.533 19.525c-2.672 2.974-7.006 3.807-10.588 2.06-.005-.003-.01-.006-.015-.009-.067-.033-.133-.063-.2-.094l-11.371-5.763zm-92.314-172.511c6.273-.027 11.851-4.005 13.88-9.897 1.619-4.7 6.05-7.872 11.024-7.893l46.33-.194h.163c20.513 0 37.175 16.553 37.262 37.109l.112 26.309c-3.311.837-7.183 2.366-10.643 5.152-.073-.001-.148-.003-.223-.005l-.089-21.024c-.056-13.233-10.726-24.408-24.591-24.378l-.194.001c-9.243.036-13.439 3.839-23.597 3.88l-2.079.009c-.05 0-.099 0-.149 0-10.499 0-13.466-3.631-23.483-3.682l-.196.001c-13.499.057-24.436 11.086-24.379 24.586l.074 17.332c-3.669-1.116-7.544-1.704-10.896-2.007l-.142-33.381c-.028-6.545 5.273-11.891 11.816-11.918zm-2.56 84.379c-.107-4.152-3.503-7.46-7.653-7.46-.011 0-.022 0-.033 0l-4.034.017c-.005 0-.009 0-.013 0-1.655 0-3.004-1.342-3.011-2.998l-.05-11.822c-.003-.719.239-1.312.583-1.776 6.091.208 13.311 1.494 15.063 3.208 6.053 5.918 16.317 1.647 16.282-6.878l-.114-26.76c-.021-5.056 4.075-9.186 9.135-9.207l.197-.001c6.51.03 11.378 3.785 23.626 3.682l2.079-.009c12.456-.052 17.285-3.855 23.6-3.88l.197-.001h.041c2.433 0 4.724.943 6.453 2.658 1.74 1.724 2.703 4.022 2.713 6.47l.113 26.761c.041 10.852 19.579 11.573 24.474 6.706 1.924-1.913 4.867-2.783 7.015-3.135.285.436.481.972.483 1.608l.05 11.821c.02 4.31-5.944 2.737-7.033 3.04-4.165.018-7.552 3.361-7.624 7.525-.235 13.694-5.989 26.426-15.785 34.933-10.163 8.827-22.068 13.527-35.279 13.75-13.433-.113-25.334-4.863-35.395-13.451-9.867-8.427-15.728-21.11-16.08-34.801zm8.415 88.496 27.776 17.209-11.321 5.831c-.066.031-.136.064-.189.091-.003.001-.005.003-.008.005-3.559 1.767-7.895.971-10.586-1.969l-17.69-19.327c4.56-.759 8.703-1.376 12.018-1.84zm-53.16 12.226c6.046-2.723 14.633-5.077 23.465-7.016l24.069 26.296c4.707 5.143 11.272 7.872 17.93 7.872 1.238 0 2.478-.104 3.711-.295l6.115 11.219-5.935 25.568c-34.014-6.299-64.185-23.685-86.605-48.262 4.033-6.751 10.022-12.128 17.25-15.382z"/><path d="m442.405 374.036-117.77 51.855.004-.357c.004-.284-.008-.569-.037-.852-2.06-20.718-17.897-37.227-38.513-40.143-.066-.01-.132-.018-.197-.026l-78.304-9.016c-35.65-5.081-51.644-37.135-114.825-37.135h-4.881v-7.921c0-11.665-9.489-21.154-21.154-21.154h-22.927c-11.665 0-21.154 9.489-21.154 21.154v146.413c0 11.665 9.489 21.155 21.154 21.155h22.927c11.247 0 20.445-8.829 21.091-19.917 72.178 25.418 81.347 33.908 106.52 33.908h105.617c16.19 0 31.977-4.561 45.67-13.193l132.075-74.514c9.169-5.184 17.392-25.157 6.346-41.39-9.186-13.503-24.746-16.816-41.642-8.867zm26.989 37.361-131.459 74.166c-.114.064-.225.132-.336.201-11.276 7.145-24.293 10.922-37.642 10.922h-105.618c-21.12 0-27.246-6.709-106.457-34.911v-55.532c0-4.229-3.428-7.657-7.657-7.657s-7.657 3.428-7.657 7.657v70.611c0 3.221-2.62 5.841-5.84 5.841h-22.927c-3.22 0-5.84-2.62-5.84-5.841v-146.413c0-3.22 2.62-5.84 5.84-5.84h22.927c3.22 0 5.84 2.62 5.84 5.84v40.007c0 4.229 3.428 7.657 7.657 7.657s7.657-3.428 7.657-7.657v-16.772h4.881c59.922 0 71.105 31.1 112.775 36.997.066.01.132.018.197.026l78.301 9.016c13.429 1.941 23.766 12.625 25.285 26.081l-.052 4.24h-54.271c-12.554 0-25.217-.92-37.634-2.734l-13.554-1.979c-4.181-.609-8.073 2.285-8.683 6.469-.611 4.184 2.285 8.073 6.469 8.683l13.554 1.979c13.148 1.921 26.555 2.895 39.848 2.895h61.833c.977 0 2.089-.216 3.058-.639.743-.324 128.674-56.654 128.779-56.7 8.943-3.974 17.169-4.65 22.719 3.506 4.246 6.242 3.36 14.655-1.993 19.881z"/></g></g></svg>