<?xml version="1.0" encoding="UTF-8"?>
<svg width="128px" height="128px" viewBox="0 0 128 128" version="1.1" xmlns="http://www.w3.org/2000/svg" xmlns:xlink="http://www.w3.org/1999/xlink">
    <title>烙-Icon</title>
    <g id="烙-Icon" stroke="none" stroke-width="1" fill="none" fill-rule="evenodd">
        <g id="编组" transform="translate(20.543210, 0.000000)">
            <path d="M54.354963,121.891556 L10.7354074,121.891556 C5.44316049,121.891556 1.15120988,117.599605 1.15120988,112.307358 L1.15120988,36.8039506 C1.15120988,31.5117037 5.44316049,27.2197531 10.7354074,27.2197531 L54.354963,27.2197531 C59.648,27.2197531 63.9391605,31.5117037 63.9391605,36.8039506 L63.9391605,112.307358 C63.9391605,117.599605 59.648,121.891556 54.354963,121.891556" id="Fill-60" fill="#F4D1A3"></path>
            <path d="M54.354963,122.277926 L10.7354074,122.277926 C5.23614815,122.277926 0.762469136,117.806617 0.762469136,112.307358 L0.762469136,36.8039506 C0.762469136,31.3046914 5.23614815,26.8318025 10.7354074,26.8318025 L54.354963,26.8318025 C59.8542222,26.8318025 64.3279012,31.3046914 64.3279012,36.8039506 L64.3279012,112.307358 C64.3255309,117.806617 59.8518519,122.277926 54.354963,122.277926 Z M10.7354074,27.6069136 C5.66439506,27.6069136 1.53758025,31.7329383 1.53758025,36.8039506 L1.53758025,112.307358 C1.53758025,117.37837 5.66439506,121.505185 10.7354074,121.505185 L54.354963,121.505185 C59.4259753,121.505185 63.5527901,117.37837 63.5527901,112.307358 L63.5527901,36.8039506 C63.5527901,31.7329383 59.4259753,27.6069136 54.354963,27.6069136 L10.7354074,27.6069136 L10.7354074,27.6069136 L10.7354074,27.6069136 Z" id="Fill-62" fill="#43240F"></path>
            <path d="M32.7411358,1.00740741 L31.372642,1.00740741 C24.512,1.00740741 18.9511111,6.56750617 18.9511111,13.4281481 L18.9511111,27.2181728 L45.1618765,27.2181728 L45.1618765,13.4281481 C45.1618765,6.56750617 39.5994074,1.00740741 32.7411358,1.00740741 Z M32.1564444,20.3243457 C28.7265185,20.3243457 25.9460741,17.5439012 25.9460741,14.1131852 C25.9460741,10.6832593 28.7265185,7.90281481 32.1564444,7.90281481 C35.5871605,7.90281481 38.3676049,10.6832593 38.3676049,14.1131852 C38.3676049,17.5439012 35.5871605,20.3243457 32.1564444,20.3243457 L32.1564444,20.3243457 Z" id="Fill-63" fill="#94C6EB"></path>
            <path d="M45.549037,27.6069136 L18.5623704,27.6069136 L18.5623704,13.4281481 C18.5623704,6.36523457 24.307358,0.620246914 31.3702716,0.620246914 L32.7387654,0.620246914 C39.801679,0.620246914 45.5466667,6.36523457 45.5466667,13.4281481 L45.5466667,27.6069136 L45.549037,27.6069136 Z M19.3374815,26.8318025 L44.7731358,26.8318025 L44.7731358,13.4281481 C44.7731358,6.79348148 39.3750123,1.39377778 32.7387654,1.39377778 L31.3702716,1.39377778 C24.7340247,1.39377778 19.3351111,6.79190123 19.3351111,13.4281481 L19.3351111,26.8318025 L19.3374815,26.8318025 Z M32.1564444,20.710716 C28.5179259,20.710716 25.5597037,17.7501235 25.5597037,14.1131852 C25.5597037,10.477037 28.5195062,7.51644444 32.1564444,7.51644444 C35.7933827,7.51644444 38.7563457,10.4746667 38.7563457,14.1131852 C38.7563457,17.7524938 35.7957531,20.710716 32.1564444,20.710716 Z M32.1564444,8.28918519 C28.9461728,8.28918519 26.3324444,10.9029136 26.3324444,14.1131852 C26.3324444,17.3242469 28.9461728,19.9379753 32.1564444,19.9379753 C35.3675062,19.9379753 37.9812346,17.3242469 37.9812346,14.1131852 C37.9812346,10.9029136 35.3675062,8.28918519 32.1564444,8.28918519 L32.1564444,8.28918519 Z" id="Fill-64" fill="#43240F"></path>
            <path d="M84.7367901,125.413926 L83.1952593,126.33442 C80.9813333,127.653926 78.1179259,126.931753 76.7976296,124.717827 L60.6380247,97.6395062 L70.1937778,91.9379753 L86.3533827,119.016296 C87.6705185,121.230222 86.9483457,124.09442 84.7367901,125.413926" id="Fill-65" fill="#94C6EB"></path>
            <path d="M80.8122469,127.379753 C79.0905679,127.379753 77.4099753,126.501136 76.4641975,124.917728 L60.1070617,97.5051852 L70.3257284,91.4070123 L70.5232593,91.7380741 L86.6820741,118.816395 C88.1098272,121.208099 87.3260247,124.315654 84.9319506,125.745778 L83.3904198,126.665481 C82.5821235,127.151407 81.6932346,127.379753 80.8122469,127.379753 Z M61.1674074,97.7738272 L77.1294815,124.520296 C78.3391605,126.546963 80.9702716,127.208296 82.995358,126.002568 L84.5368889,125.082074 C86.5619753,123.872395 87.2272593,121.241284 86.0191605,119.216198 L70.0578765,92.4697284 L61.1674074,97.7738272 L61.1674074,97.7738272 Z" id="Fill-66" fill="#43240F"></path>
            <path d="M38.4418765,40.2607407 C38.6504691,39.8388148 70.1914074,91.9379753 70.1914074,91.9379753 L56.3318519,100.208988 C56.3318519,100.208988 27.5049877,62.2988642 38.4418765,40.2607407" id="Fill-67" fill="#F7F7FB"></path>
            <path d="M56.2330864,100.720988 L56.0244938,100.446025 C55.9518025,100.35121 48.7269136,90.7962469 42.937679,78.6694321 C37.5719506,67.4315062 32.3784691,51.6148148 38.0973827,40.0916543 L38.1985185,39.8870123 L38.4308148,39.8743704 C38.758716,39.8633086 38.8108642,39.8569877 43.9253333,48.1256296 C46.5785679,52.4120494 50.2439506,58.3901235 54.8187654,65.8923457 C62.6101728,78.6670617 70.4466173,91.6108642 70.5256296,91.7404444 L70.7271111,92.0746667 L56.2330864,100.720988 Z M38.5208889,40.9963457 C33.3795556,52.1900247 38.4308148,67.4267654 43.629037,78.3225679 C48.8367407,89.2325926 55.2138272,98.048 56.4329877,99.699358 L69.6580741,91.8068148 C61.4945185,78.3225679 41.4380247,45.312 38.5208889,40.9963457 L38.5208889,40.9963457 Z" id="Fill-68" fill="#43240F"></path>
        </g>
    </g>
</svg>