<?xml version="1.0" encoding="UTF-8"?>
<svg width="200px" height="200px" viewBox="0 0 200 200" version="1.1" xmlns="http://www.w3.org/2000/svg" xmlns:xlink="http://www.w3.org/1999/xlink">
    <title>launch-screen-image</title>
    <g id="launch-screen-image" stroke="none" stroke-width="1" fill="none" fill-rule="evenodd">
        <g transform="translate(0.085034, 0.085034)" fill="#FFFFFF" fill-rule="nonzero">
            <path d="M34.8639456,199.795918 C31.1054422,199.489796 28.3333333,198.945578 25.255102,197.92517 C15.9183673,194.829932 8.04421769,187.92517 3.7244898,179.047619 C2.04081633,175.612245 0.952380952,172.040816 0.306122449,167.942177 C0.0170068027,166.088435 0,162.738095 0,99.914966 C0,37.0918367 0.0170068027,33.7414966 0.306122449,31.8877551 C1.58163265,23.7585034 4.84693878,17.0578231 10.2891156,11.4115646 C12.4829932,9.14965986 14.1156463,7.77210884 16.5816327,6.12244898 C21.037415,3.1462585 26.1394558,1.20748299 31.8877551,0.306122449 C33.7414966,0.0170068027 37.0918367,0 99.914966,0 C162.738095,0 166.088435,0.0170068027 167.942177,0.306122449 C173.690476,1.20748299 178.792517,3.1462585 183.248299,6.12244898 C185.714286,7.77210884 187.346939,9.14965986 189.540816,11.4115646 C194.982993,17.0578231 198.248299,23.7585034 199.52381,31.8877551 C199.812925,33.7414966 199.829932,37.0918367 199.829932,99.829932 C199.829932,162.568027 199.812925,165.918367 199.52381,167.772109 C198.843537,172.057823 197.806122,175.42517 196.003401,179.081633 C192.278912,186.683673 186.394558,192.517007 178.741497,196.190476 C175.391156,197.789116 172.278912,198.758503 168.282313,199.455782 L166.156463,199.812925 L100.85034,199.829932 C64.9319728,199.846939 35.2380952,199.829932 34.8639456,199.795918 Z M167.210884,196.258503 C174.57483,195.289116 181.377551,191.938776 186.64966,186.64966 C191.054422,182.261905 194.030612,176.972789 195.578231,170.833333 C196.564626,166.938776 196.514054,171.037415 196.514054,99.914966 C196.514054,28.792517 196.564626,32.8911565 195.578231,28.9965986 C194.030612,22.8571429 191.054422,17.5680272 186.64966,13.1802721 C181.445578,7.95918367 174.829932,4.65986395 167.414966,3.58843537 C165.79932,3.35034014 158.384354,3.31535666 99.829932,3.31535666 C28.0952381,3.31535666 32.7891156,3.24829932 28.8265306,4.25170068 C16.7006803,7.29591837 7.31292517,16.6836735 4.25170068,28.8265306 C3.26530612,32.7210884 3.31587811,28.6054422 3.31587811,99.829932 C3.31587811,171.054422 3.26530612,166.938776 4.25170068,170.833333 C5.79931973,176.972789 8.7755102,182.261905 13.1802721,186.64966 C17.6190476,191.088435 23.1122449,194.166667 29.2517007,195.646259 C32.8401361,196.513605 29.5748299,196.479592 99.6938776,196.496599 C157.704082,196.513605 165.42517,196.479592 167.210884,196.258503 Z" id="形状"></path>
            <path d="M97.0238095,177.295918 C97.0238095,177.193878 96.292517,177.12585 95.1530612,177.12585 C94.0136054,177.12585 93.2823129,177.057823 93.2823129,176.955782 C93.2823129,176.853741 92.7210884,176.785714 91.9217687,176.785714 C91.122449,176.785714 90.5612245,176.717687 90.5612245,176.615646 C90.5612245,176.513605 90.0510204,176.445578 89.3707483,176.445578 C88.6904762,176.445578 88.1802721,176.377551 88.1802721,176.27551 C88.1802721,176.173469 87.7210884,176.105442 87.1598639,176.105442 C86.5986395,176.105442 86.1394558,176.037415 86.1394558,175.935374 C86.1394558,175.85034 85.7653061,175.765306 85.2891156,175.765306 C84.829932,175.765306 84.4387755,175.697279 84.4387755,175.595238 C84.4387755,175.510204 84.0646259,175.42517 83.5884354,175.42517 C83.1292517,175.42517 82.7380952,175.357143 82.7380952,175.255102 C82.7380952,175.170068 82.4319728,175.085034 82.0578231,175.085034 C81.6836735,175.085034 81.377551,175.017007 81.377551,174.914966 C81.377551,174.829932 81.0714286,174.744898 80.6972789,174.744898 C80.3231293,174.744898 80.0170068,174.676871 80.0170068,174.57483 C80.0170068,174.489796 79.7108844,174.404762 79.3367347,174.404762 C78.962585,174.404762 78.6564626,174.336735 78.6564626,174.234694 C78.6564626,174.14966 78.3503401,174.064626 77.9761905,174.064626 C77.6020408,174.064626 77.2959184,173.996599 77.2959184,173.894558 C77.2959184,173.809524 76.9897959,173.72449 76.6156463,173.72449 C76.2414966,173.72449 75.9353741,173.656463 75.9353741,173.554422 C75.9353741,173.469388 75.7142857,173.384354 75.4251701,173.384354 C75.1530612,173.384354 74.914966,173.316327 74.914966,173.214286 C74.914966,173.129252 74.6938776,173.044218 74.4047619,173.044218 C74.1326531,173.044218 73.8945578,172.97619 73.8945578,172.87415 C73.8945578,172.789116 73.622449,172.704082 73.2993197,172.704082 C72.9761905,172.704082 72.7040816,172.636054 72.7040816,172.534014 C72.7040816,172.44898 72.4829932,172.363946 72.1938776,172.363946 C71.9217687,172.363946 71.6836735,172.295918 71.6836735,172.193878 C71.6836735,172.108844 71.462585,172.02381 71.1734694,172.02381 C70.9013605,172.02381 70.6632653,171.955782 70.6632653,171.853741 C70.6632653,171.768707 70.4761905,171.683673 70.2380952,171.683673 C70,171.683673 69.8129252,171.615646 69.8129252,171.513605 C69.8129252,171.428571 69.5918367,171.343537 69.3027211,171.343537 C69.0306122,171.343537 68.792517,171.27551 68.792517,171.173469 C68.792517,171.088435 68.5714286,171.003401 68.2823129,171.003401 C68.0102041,171.003401 67.7721088,170.935374 67.7721088,170.833333 C67.7721088,170.748299 67.585034,170.663265 67.3469388,170.663265 C67.1088435,170.663265 66.9217687,170.595238 66.9217687,170.493197 C66.9217687,170.408163 66.7346939,170.323129 66.4965986,170.323129 C66.2585034,170.323129 66.0714286,170.255102 66.0714286,170.153061 C66.0714286,170.068027 65.8843537,169.982993 65.6462585,169.982993 C65.4081633,169.982993 65.2210884,169.914966 65.2210884,169.812925 C65.2210884,169.727891 65.0340136,169.642857 64.7959184,169.642857 C64.5578231,169.642857 64.3707483,169.57483 64.3707483,169.472789 C64.3707483,169.387755 64.1836735,169.302721 63.9455782,169.302721 C63.707483,169.302721 63.5204082,169.234694 63.5204082,169.132653 C63.5204082,169.047619 63.3333333,168.962585 63.0952381,168.962585 C62.8571429,168.962585 62.670068,168.894558 62.670068,168.792517 C62.670068,168.707483 62.5170068,168.622449 62.329932,168.622449 C62.1428571,168.622449 61.9897959,168.554422 61.9897959,168.452381 C61.9897959,168.367347 61.8367347,168.282313 61.6496599,168.282313 C61.462585,168.282313 61.3095238,168.214286 61.3095238,168.112245 C61.3095238,168.027211 61.122449,167.942177 60.8843537,167.942177 C60.6462585,167.942177 60.4591837,167.87415 60.4591837,167.772109 C60.4591837,167.687075 60.2721088,167.602041 60.0340136,167.602041 C59.7959184,167.602041 59.6088435,167.534014 59.6088435,167.431973 C59.6088435,167.346939 59.4557823,167.261905 59.2687075,167.261905 C59.0816327,167.261905 58.9285714,167.193878 58.9285714,167.091837 C58.9285714,167.006803 58.7755102,166.921769 58.5884354,166.921769 C58.4013605,166.921769 58.2482993,166.853741 58.2482993,166.751701 C58.2482993,166.666667 58.0952381,166.581633 57.9081633,166.581633 C57.7210884,166.581633 57.5680272,166.513605 57.5680272,166.411565 C57.5680272,166.326531 57.414966,166.241497 57.2278912,166.241497 C57.0408163,166.241497 56.8877551,166.173469 56.8877551,166.071429 C56.8877551,165.986395 56.7346939,165.901361 56.547619,165.901361 C56.3605442,165.901361 56.207483,165.833333 56.207483,165.731293 C56.207483,165.646259 56.0544218,165.561224 55.8673469,165.561224 C55.6802721,165.561224 55.5272109,165.493197 55.5272109,165.391156 C55.5272109,165.306122 55.3741497,165.221088 55.1870748,165.221088 C55,165.221088 54.8469388,165.153061 54.8469388,165.05102 C54.8469388,164.965986 54.6938776,164.880952 54.5068027,164.880952 C54.3197279,164.880952 54.1666667,164.812925 54.1666667,164.710884 C54.1666667,164.62585 54.0136054,164.540816 53.8265306,164.540816 C53.6394558,164.540816 53.4863946,164.472789 53.4863946,164.370748 C53.4863946,164.285714 53.3333333,164.20068 53.1462585,164.20068 C52.9591837,164.20068 52.8061224,164.132653 52.8061224,164.030612 C52.8061224,163.945578 52.6870748,163.860544 52.5510204,163.860544 C52.414966,163.860544 52.2959184,163.792517 52.2959184,163.690476 C52.2959184,163.605442 52.1428571,163.520408 51.9557823,163.520408 C51.7687075,163.520408 51.6156463,163.452381 51.6156463,163.35034 C51.6156463,163.265306 51.4965986,163.180272 51.3605442,163.180272 C51.2244898,163.180272 51.1054422,163.112245 51.1054422,163.010204 C51.1054422,162.92517 50.952381,162.840136 50.7653061,162.840136 C50.5782313,162.840136 50.4251701,162.772109 50.4251701,162.670068 C50.4251701,162.585034 50.2721088,162.5 50.085034,162.5 C49.8979592,162.5 49.744898,162.431973 49.744898,162.329932 C49.744898,162.244898 49.6258503,162.159864 49.4897959,162.159864 C49.3537415,162.159864 49.2346939,162.091837 49.2346939,161.989796 C49.2346939,161.904762 49.1156463,161.819728 48.9795918,161.819728 C48.8435374,161.819728 48.7244898,161.751701 48.7244898,161.64966 C48.7244898,161.564626 48.5714286,161.479592 48.3843537,161.479592 C48.1972789,161.479592 48.0442177,161.411565 48.0442177,161.309524 C48.0442177,161.22449 47.9251701,161.139456 47.7891156,161.139456 C47.6530612,161.139456 47.5340136,161.071429 47.5340136,160.969388 C47.5340136,160.884354 47.414966,160.79932 47.2789116,160.79932 C47.1428571,160.79932 47.0238095,160.731293 47.0238095,160.629252 C47.0238095,160.544218 46.8877551,160.459184 46.7176871,160.459184 C46.547619,160.459184 46.3095238,160.306122 46.1734694,160.119048 C46.037415,159.931973 45.7993197,159.778912 45.6292517,159.778912 C45.4591837,159.778912 45.3231293,159.710884 45.3231293,159.608844 C45.3231293,159.52381 45.2040816,159.438776 45.0680272,159.438776 C44.9319728,159.438776 44.8129252,159.370748 44.8129252,159.268707 C44.8129252,159.183673 44.6938776,159.098639 44.5578231,159.098639 C44.4217687,159.098639 44.3027211,159.030612 44.3027211,158.928571 C44.3027211,158.843537 44.1836735,158.758503 44.047619,158.758503 C43.9115646,158.758503 43.792517,158.690476 43.792517,158.588435 C43.792517,158.503401 43.6734694,158.418367 43.537415,158.418367 C43.4013605,158.418367 43.2823129,158.35034 43.2823129,158.248299 C43.2823129,158.163265 43.1632653,158.078231 43.0272109,158.078231 C42.8911565,158.078231 42.7721088,158.010204 42.7721088,157.908163 C42.7721088,157.823129 42.6530612,157.738095 42.5170068,157.738095 C42.3809524,157.738095 42.2619048,157.670068 42.2619048,157.568027 C42.2619048,157.482993 42.1428571,157.397959 42.0068027,157.397959 C41.8707483,157.397959 41.7517007,157.329932 41.7517007,157.227891 C41.7517007,157.142857 41.6326531,157.057823 41.4965986,157.057823 C41.3605442,157.057823 41.2414966,156.989796 41.2414966,156.887755 C41.2414966,156.802721 41.122449,156.717687 40.9863946,156.717687 C40.8503401,156.717687 40.7312925,156.64966 40.7312925,156.547619 C40.7312925,156.462585 40.6292517,156.377551 40.5102041,156.377551 C40.3911565,156.377551 40.1870748,156.22449 40.0510204,156.037415 C39.914966,155.85034 39.7108844,155.697279 39.5918367,155.697279 C39.4727891,155.697279 39.3707483,155.629252 39.3707483,155.527211 C39.3707483,155.442177 39.2517007,155.357143 39.1156463,155.357143 C38.9795918,155.357143 38.8605442,155.289116 38.8605442,155.187075 C38.8605442,155.102041 38.7585034,155.017007 38.6394558,155.017007 C38.5204082,155.017007 38.3163265,154.863946 38.1802721,154.676871 C38.0442177,154.489796 37.8401361,154.336735 37.7210884,154.336735 C37.6020408,154.336735 37.5,154.268707 37.5,154.166667 C37.5,154.081633 37.3979592,153.996599 37.2789116,153.996599 C37.1598639,153.996599 36.9557823,153.843537 36.8197279,153.656463 C36.6836735,153.469388 36.4965986,153.316327 36.3945578,153.316327 C36.292517,153.316327 36.1054422,153.163265 35.9693878,152.97619 C35.8333333,152.789116 35.6292517,152.636054 35.5102041,152.636054 C35.3911565,152.636054 35.2891156,152.568027 35.2891156,152.465986 C35.2891156,152.380952 35.2040816,152.295918 35.1020408,152.295918 C35,152.295918 34.6938776,152.07483 34.4387755,151.785714 C34.1836735,151.513605 33.877551,151.27551 33.7755102,151.27551 C33.6734694,151.27551 33.5884354,151.207483 33.5884354,151.105442 C33.5884354,151.020408 33.5034014,150.935374 33.4013605,150.935374 C33.2993197,150.935374 32.9931973,150.714286 32.7380952,150.42517 C32.4829932,150.153061 32.2108844,149.914966 32.1428571,149.914966 C32.0748299,149.914966 31.8027211,149.693878 31.547619,149.404762 C31.292517,149.132653 31.0204082,148.894558 30.952381,148.894558 C30.8843537,148.894558 30.6122449,148.673469 30.3571429,148.384354 C30.1020408,148.112245 29.829932,147.87415 29.7619048,147.87415 C29.7108844,147.87415 29.2857143,147.5 28.8265306,147.02381 C28.3673469,146.564626 27.9591837,146.173469 27.8911565,146.173469 C27.7891156,146.173469 21.3945578,139.727891 20.3571429,138.571429 C18.2312925,136.173469 18.1632653,136.088435 17.0918367,134.778912 C16.8537415,134.489796 16.4795918,134.030612 16.2414966,133.77551 C16.0034014,133.503401 15.6972789,133.112245 15.5612245,132.908163 C15.4251701,132.704082 15.1190476,132.312925 14.8809524,132.057823 C14.6428571,131.802721 14.3367347,131.411565 14.2006803,131.207483 C14.0646259,131.003401 13.8265306,130.697279 13.6904762,130.527211 C13.5544218,130.357143 13.3163265,130.05102 13.1802721,129.846939 C13.0442177,129.642857 12.8061224,129.336735 12.670068,129.166667 C12.5340136,128.996599 12.2959184,128.690476 12.1598639,128.486395 C12.0238095,128.282313 11.7687075,127.959184 11.6156463,127.772109 C11.4455782,127.585034 11.2755102,127.278912 11.2244898,127.108844 C11.1564626,126.921769 11.037415,126.785714 10.952381,126.785714 C10.8673469,126.785714 10.7993197,126.717687 10.7993197,126.615646 C10.7993197,126.360544 11.2414966,126.411565 11.4795918,126.70068 C11.5986395,126.853741 11.9557823,127.091837 12.2619048,127.227891 C12.585034,127.380952 12.8401361,127.568027 12.8401361,127.653061 C12.8401361,127.738095 12.9421769,127.806122 13.0612245,127.806122 C13.1802721,127.806122 13.4353741,127.942177 13.622449,128.112245 C13.792517,128.282313 14.2346939,128.537415 14.5748299,128.707483 C14.914966,128.877551 15.3061224,129.098639 15.4251701,129.217687 C15.5442177,129.336735 15.9353741,129.57483 16.2755102,129.727891 C16.6156463,129.897959 17.0068027,130.119048 17.1258503,130.238095 C17.244898,130.357143 17.7891156,130.663265 18.3333333,130.935374 C18.8605442,131.190476 19.4047619,131.496599 19.5238095,131.598639 C19.8129252,131.887755 28.0102041,135.969388 28.2823129,135.969388 C28.3843537,135.969388 28.4863946,136.054422 28.4863946,136.139456 C28.4863946,136.241497 28.6394558,136.309524 28.8265306,136.309524 C29.0136054,136.309524 29.1666667,136.394558 29.1666667,136.479592 C29.1666667,136.581633 29.3197279,136.64966 29.5068027,136.64966 C29.6938776,136.64966 30.1020408,136.802721 30.4421769,136.989796 C30.7823129,137.176871 31.1564626,137.329932 31.292517,137.329932 C31.4285714,137.329932 31.547619,137.414966 31.547619,137.5 C31.547619,137.602041 31.7346939,137.670068 31.9557823,137.670068 C32.1938776,137.670068 32.4319728,137.755102 32.4829932,137.840136 C32.5340136,137.942177 32.7380952,138.010204 32.9251701,138.010204 C33.0952381,138.010204 33.2482993,138.095238 33.2482993,138.180272 C33.2482993,138.282313 33.4353741,138.35034 33.6564626,138.35034 C33.8945578,138.35034 34.1326531,138.435374 34.1836735,138.520408 C34.2346939,138.622449 34.4387755,138.690476 34.6088435,138.690476 C34.7959184,138.690476 35.2040816,138.843537 35.5442177,139.030612 C35.8843537,139.217687 36.292517,139.370748 36.4795918,139.370748 C36.6496599,139.370748 36.8537415,139.455782 36.9047619,139.540816 C36.9557823,139.642857 37.1938776,139.710884 37.414966,139.710884 C37.6360544,139.710884 37.8741497,139.795918 37.9251701,139.880952 C37.9761905,139.982993 38.2142857,140.05102 38.4353741,140.05102 C38.6564626,140.05102 38.8945578,140.136054 38.9455782,140.221088 C38.9965986,140.323129 39.2346939,140.391156 39.4557823,140.391156 C39.6768707,140.391156 39.914966,140.47619 39.9659864,140.561224 C40.0170068,140.663265 40.255102,140.731293 40.4761905,140.731293 C40.6972789,140.731293 40.9353741,140.816327 40.9863946,140.901361 C41.037415,141.003401 41.2755102,141.071429 41.4965986,141.071429 C41.7176871,141.071429 41.9557823,141.156463 42.0068027,141.241497 C42.0578231,141.343537 42.329932,141.411565 42.6190476,141.411565 C42.8911565,141.411565 43.1122449,141.496599 43.1122449,141.581633 C43.1122449,141.683673 43.3673469,141.751701 43.6904762,141.751701 C44.0136054,141.751701 44.3367347,141.836735 44.3877551,141.921769 C44.4387755,142.02381 44.744898,142.091837 45.0680272,142.091837 C45.3911565,142.091837 45.6972789,142.176871 45.7482993,142.261905 C45.7993197,142.363946 46.1054422,142.431973 46.4285714,142.431973 C46.7517007,142.431973 47.0578231,142.517007 47.1088435,142.602041 C47.1598639,142.704082 47.4659864,142.772109 47.7891156,142.772109 C48.1122449,142.772109 48.4183673,142.857143 48.4693878,142.942177 C48.5204082,143.044218 48.8265306,143.112245 49.1496599,143.112245 C49.4727891,143.112245 49.7789116,143.197279 49.829932,143.282313 C49.8809524,143.384354 50.2721088,143.452381 50.6802721,143.452381 C51.0884354,143.452381 51.4795918,143.537415 51.5306122,143.622449 C51.5816327,143.72449 51.9727891,143.792517 52.3809524,143.792517 C52.7891156,143.792517 53.1802721,143.877551 53.2312925,143.962585 C53.2823129,144.064626 53.7414966,144.132653 54.2346939,144.132653 C54.7108844,144.132653 55.1870748,144.20068 55.2891156,144.285714 C55.3741497,144.370748 55.9353741,144.489796 56.547619,144.540816 C57.1598639,144.608844 58.1972789,144.727891 58.8435374,144.812925 C64.0646259,145.442177 73.0612245,145.612245 77.7210884,145.170068 C78.9455782,145.05102 80.3911565,144.931973 80.952381,144.880952 C81.5136054,144.829932 82.1258503,144.727891 82.3129252,144.642857 C82.5,144.557823 83.1122449,144.455782 83.6734694,144.387755 C85.7653061,144.166667 86.2244898,144.098639 86.3945578,143.945578 C86.4795918,143.860544 86.8027211,143.792517 87.0918367,143.792517 C87.3979592,143.792517 87.7040816,143.72449 87.755102,143.622449 C87.8061224,143.537415 88.1972789,143.452381 88.6054422,143.452381 C89.0136054,143.452381 89.4047619,143.384354 89.4557823,143.282313 C89.5068027,143.197279 89.8129252,143.112245 90.1360544,143.112245 C90.4591837,143.112245 90.7653061,143.044218 90.8163265,142.942177 C90.8673469,142.857143 91.1054422,142.772109 91.3265306,142.772109 C91.547619,142.772109 91.7857143,142.704082 91.8367347,142.602041 C91.8877551,142.517007 92.1938776,142.431973 92.5170068,142.431973 C92.8401361,142.431973 93.1462585,142.363946 93.1972789,142.261905 C93.2482993,142.176871 93.4863946,142.091837 93.707483,142.091837 C93.9285714,142.091837 94.1666667,142.02381 94.2176871,141.921769 C94.2687075,141.836735 94.5068027,141.751701 94.7278912,141.751701 C94.9489796,141.751701 95.1870748,141.683673 95.2380952,141.581633 C95.2891156,141.496599 95.5272109,141.411565 95.7482993,141.411565 C95.9693878,141.411565 96.207483,141.343537 96.2585034,141.241497 C96.3095238,141.156463 96.547619,141.071429 96.7857143,141.071429 C97.0068027,141.071429 97.1938776,141.003401 97.1938776,140.901361 C97.1938776,140.816327 97.3469388,140.731293 97.5170068,140.731293 C97.7040816,140.731293 97.9081633,140.663265 97.9591837,140.561224 C98.0102041,140.47619 98.2482993,140.391156 98.4863946,140.391156 C98.707483,140.391156 98.8945578,140.323129 98.8945578,140.221088 C98.8945578,140.136054 99.047619,140.05102 99.2176871,140.05102 C99.4047619,140.05102 99.6088435,139.982993 99.6598639,139.880952 C99.7108844,139.795918 99.9489796,139.710884 100.187075,139.710884 C100.408163,139.710884 100.595238,139.642857 100.595238,139.540816 C100.595238,139.455782 100.697279,139.370748 100.816327,139.370748 C101.071429,139.370748 105.935374,136.955782 106.003401,136.785714 C106.037415,136.70068 106.207483,136.64966 106.394558,136.64966 C106.564626,136.64966 106.717687,136.581633 106.717687,136.513605 C106.717687,136.428571 107.07483,136.173469 107.534014,135.952381 C108.639456,135.391156 109.098639,134.897959 109.098639,134.268707 C109.098639,133.77551 108.469388,132.908163 108.129252,132.908163 C108.044218,132.908163 107.87415,132.755102 107.738095,132.568027 C107.602041,132.380952 107.397959,132.227891 107.278912,132.227891 C107.159864,132.227891 107.057823,132.159864 107.057823,132.057823 C107.057823,131.972789 106.972789,131.887755 106.870748,131.887755 C106.768707,131.887755 106.462585,131.666667 106.207483,131.377551 C105.952381,131.105442 105.646259,130.867347 105.544218,130.867347 C105.442177,130.867347 105.357143,130.79932 105.357143,130.697279 C105.357143,130.612245 105.255102,130.527211 105.136054,130.527211 C105.017007,130.527211 104.812925,130.37415 104.676871,130.187075 C104.540816,130 104.353741,129.846939 104.251701,129.846939 C104.14966,129.846939 103.962585,129.693878 103.826531,129.506803 C103.690476,129.319728 103.520408,129.166667 103.435374,129.166667 C103.35034,129.166667 103.061224,128.945578 102.806122,128.656463 C102.55102,128.384354 102.261905,128.146259 102.176871,128.146259 C102.091837,128.146259 101.921769,127.993197 101.785714,127.806122 C101.64966,127.619048 101.479592,127.465986 101.394558,127.465986 C101.309524,127.465986 101.020408,127.244898 100.765306,126.955782 C100.510204,126.683673 100.221088,126.445578 100.136054,126.445578 C100.05102,126.445578 99.8809524,126.292517 99.744898,126.105442 C99.6088435,125.918367 99.4387755,125.765306 99.3537415,125.765306 C99.2687075,125.765306 98.9795918,125.544218 98.7244898,125.255102 C98.4693878,124.982993 98.1972789,124.744898 98.1292517,124.744898 C98.0612245,124.744898 97.7891156,124.52381 97.5340136,124.234694 C97.2789116,123.962585 97.0068027,123.72449 96.9387755,123.72449 C96.8707483,123.72449 96.5986395,123.503401 96.3435374,123.214286 C96.0884354,122.942177 95.8163265,122.704082 95.7482993,122.704082 C95.6802721,122.704082 95.4081633,122.482993 95.1530612,122.193878 C94.8979592,121.921769 94.6258503,121.683673 94.5578231,121.683673 C94.5068027,121.683673 94.0816327,121.309524 93.622449,120.833333 C93.1632653,120.37415 92.7380952,119.982993 92.6870748,119.982993 C92.6190476,119.982993 92.2789116,119.676871 91.9217687,119.302721 C91.5646259,118.928571 91.2244898,118.622449 91.1564626,118.622449 C91.1054422,118.622449 90.6802721,118.248299 90.2210884,117.772109 C89.7619048,117.312925 89.3537415,116.921769 89.2857143,116.921769 C89.2346939,116.921769 88.6564626,116.394558 88.0102041,115.731293 C87.3639456,115.085034 86.7857143,114.540816 86.7346939,114.540816 C86.6836735,114.540816 85.7993197,113.707483 84.7789116,112.670068 C83.7585034,111.64966 82.8741497,110.79932 82.8231293,110.79932 C82.585034,110.79932 71.6156463,99.5238095 67.9421769,95.4931973 C67.4319728,94.9319728 66.5816327,94.0136054 66.0714286,93.452381 C65.5612245,92.8911565 64.7959184,92.0578231 64.3707483,91.5816327 C63.9455782,91.1054422 63.2653061,90.3401361 62.8401361,89.8809524 C62.414966,89.4217687 61.8027211,88.7244898 61.4795918,88.3503401 C61.1564626,87.9761905 60.5442177,87.2789116 60.1190476,86.8197279 C59.6938776,86.3605442 59.1666667,85.7482993 58.9285714,85.4591837 C58.6904762,85.170068 58.2312925,84.6258503 57.9081633,84.2687075 C57.2789116,83.5544218 56.547619,82.7040816 55.6972789,81.7176871 C55.4251701,81.3945578 54.9659864,80.8503401 54.6768707,80.5272109 C53.6904762,79.3877551 53.2312925,78.8435374 52.8061224,78.3163265 C52.5680272,78.0272109 52.1088435,77.5 51.7857143,77.1428571 C51.462585,76.7857143 51.0714286,76.3095238 50.9353741,76.1054422 C50.7993197,75.9013605 50.4081633,75.4421769 50.085034,75.085034 C49.7619048,74.7278912 49.3707483,74.2687075 49.2346939,74.0646259 C49.0986395,73.8605442 48.707483,73.4013605 48.3843537,73.0442177 C48.0612245,72.6870748 47.670068,72.2278912 47.5340136,72.0238095 C47.3979592,71.8197279 47.0918367,71.4285714 46.8537415,71.1564626 C46.6156463,70.9013605 46.2414966,70.4421769 46.0034014,70.1530612 C45.7653061,69.8639456 45.3911565,69.4047619 45.1530612,69.1496599 C44.914966,68.877551 44.6088435,68.4863946 44.4727891,68.2823129 C44.3367347,68.0782313 44.0306122,67.6870748 43.792517,67.4319728 C43.5544218,67.1768707 43.2482993,66.7857143 43.1122449,66.5816327 C42.9761905,66.377551 42.670068,65.9863946 42.4319728,65.7142857 C41.462585,64.6088435 41.1394558,64.2176871 40.9013605,63.8605442 C40.7653061,63.6564626 40.4591837,63.2653061 40.2210884,63.0102041 C39.9829932,62.755102 39.6768707,62.3639456 39.5408163,62.1598639 C39.4047619,61.9557823 39.0986395,61.5646259 38.8605442,61.3095238 C38.4013605,60.7823129 38.0782313,60.3741497 37.670068,59.7789116 C37.5340136,59.5748299 37.2278912,59.1836735 36.9897959,58.9285714 C36.7517007,58.6734694 36.4455782,58.2823129 36.3095238,58.0782313 C36.1734694,57.8741497 35.8673469,57.4829932 35.6292517,57.2278912 C35.3911565,56.9727891 35.085034,56.5816327 34.9489796,56.377551 C34.8129252,56.1734694 34.5068027,55.7823129 34.2687075,55.5102041 C34.0306122,55.255102 33.6564626,54.7959184 33.4183673,54.5068027 C33.1802721,54.2176871 32.8061224,53.7585034 32.5680272,53.5034014 C32.329932,53.2312925 32.0238095,52.8401361 31.8877551,52.6360544 C31.7517007,52.4319728 31.5136054,52.1258503 31.377551,51.9557823 C31.2414966,51.7857143 31.0034014,51.4795918 30.8673469,51.2755102 C30.7312925,51.0714286 30.4761905,50.7482993 30.3061224,50.5612245 C29.6768707,49.7959184 30.1530612,49.6598639 30.8333333,50.3911565 C31.0884354,50.6632653 31.377551,50.9183673 31.4965986,50.952381 C31.5986395,50.9863946 32.1598639,51.462585 32.7210884,52.0068027 C33.2993197,52.5340136 33.8095238,52.9761905 33.877551,52.9761905 C33.962585,52.9761905 34.4897959,53.4353741 35.085034,53.9965986 C35.6632653,54.5578231 36.207483,55.0170068 36.2755102,55.0170068 C36.3435374,55.0170068 36.8027211,55.4081633 37.2959184,55.8673469 C37.7891156,56.3435374 38.2482993,56.7176871 38.3163265,56.7176871 C38.3843537,56.7176871 38.7585034,57.0238095 39.1666667,57.3979592 C39.5578231,57.7721088 39.9319728,58.0782313 40.0170068,58.0782313 C40.085034,58.0782313 40.5442177,58.4693878 41.0204082,58.9285714 C41.5136054,59.4047619 41.9727891,59.7789116 42.0408163,59.7789116 C42.1258503,59.7789116 42.5,60.085034 42.9081633,60.4591837 C43.2993197,60.8333333 43.6734694,61.1394558 43.7585034,61.1394558 C43.8265306,61.1394558 44.2006803,61.4455782 44.6088435,61.8197279 C45,62.1938776 45.3741497,62.5 45.4591837,62.5 C45.5272109,62.5 45.9013605,62.8061224 46.3095238,63.1802721 C46.7006803,63.5544218 47.0748299,63.8605442 47.1598639,63.8605442 C47.2278912,63.8605442 47.6020408,64.1666667 48.0102041,64.5408163 C48.4013605,64.914966 48.7755102,65.2210884 48.8605442,65.2210884 C48.9285714,65.2210884 49.3027211,65.5272109 49.7108844,65.9013605 C50.1020408,66.2755102 50.4761905,66.5816327 50.5612245,66.5816327 C50.6292517,66.5816327 50.9183673,66.8197279 51.2244898,67.0918367 C51.5306122,67.3809524 51.8367347,67.6020408 51.9047619,67.6020408 C51.9727891,67.6020408 52.3639456,67.9081633 52.7721088,68.2823129 C53.1632653,68.6564626 53.537415,68.962585 53.622449,68.962585 C53.6904762,68.962585 53.9795918,69.2006803 54.2857143,69.4727891 C54.5918367,69.7619048 54.8979592,69.9829932 54.9659864,69.9829932 C55.0340136,69.9829932 55.4251701,70.2891156 55.8333333,70.6632653 C56.2244898,71.037415 56.6156463,71.3435374 56.7006803,71.3435374 C56.7687075,71.3435374 57.0748299,71.5816327 57.3639456,71.8537415 C57.670068,72.1428571 57.9591837,72.3639456 58.0272109,72.3639456 C58.1122449,72.3639456 58.4013605,72.6020408 58.707483,72.8741497 C59.0136054,73.1632653 59.3197279,73.3843537 59.3877551,73.3843537 C59.4557823,73.3843537 59.7619048,73.622449 60.0680272,73.8945578 C60.3741497,74.1836735 60.6802721,74.4047619 60.7482993,74.4047619 C60.8163265,74.4047619 61.122449,74.6428571 61.4285714,74.914966 C61.7346939,75.2040816 62.0408163,75.4251701 62.1088435,75.4251701 C62.1768707,75.4251701 62.4829932,75.6632653 62.7891156,75.9353741 C63.0952381,76.2244898 63.4013605,76.4455782 63.4693878,76.4455782 C63.537415,76.4455782 63.8435374,76.6836735 64.1496599,76.9557823 C64.4557823,77.244898 64.7619048,77.4659864 64.829932,77.4659864 C64.8979592,77.4659864 65.2040816,77.7040816 65.5102041,77.9761905 C65.8163265,78.2653061 66.122449,78.4863946 66.1904762,78.4863946 C66.2585034,78.4863946 66.5646259,78.7244898 66.8707483,78.9965986 C67.1768707,79.2857143 67.4829932,79.5068027 67.5680272,79.5068027 C67.6530612,79.5068027 67.9421769,79.7108844 68.2142857,79.9659864 C68.4863946,80.2380952 68.9285714,80.5442177 69.1836735,80.6802721 C69.4387755,80.8163265 69.6428571,80.9863946 69.6428571,81.0714286 C69.6428571,81.1394558 69.744898,81.207483 69.8639456,81.207483 C69.9659864,81.207483 70.3061224,81.4455782 70.6122449,81.7176871 C70.9183673,82.0068027 71.2244898,82.2278912 71.3095238,82.2278912 C71.3945578,82.2278912 71.6836735,82.4319728 71.9557823,82.7040816 C72.2278912,82.9591837 72.670068,83.2653061 72.9251701,83.4013605 C73.1802721,83.537415 73.3843537,83.707483 73.3843537,83.792517 C73.3843537,83.8605442 73.4863946,83.9285714 73.6054422,83.9285714 C73.707483,83.9285714 74.047619,84.1326531 74.3197279,84.4047619 C74.6088435,84.6598639 75.0340136,84.9659864 75.3061224,85.1020408 C75.5612245,85.2380952 75.7653061,85.4081633 75.7653061,85.4931973 C75.7653061,85.5612245 75.8673469,85.6292517 75.9863946,85.6292517 C76.0884354,85.6292517 76.4285714,85.8333333 76.7006803,86.1054422 C76.9897959,86.3605442 77.414966,86.6666667 77.6870748,86.8027211 C77.9421769,86.9387755 78.1462585,87.1088435 78.1462585,87.1938776 C78.1462585,87.2619048 78.2482993,87.329932 78.3673469,87.329932 C78.4863946,87.329932 78.7585034,87.4829932 78.962585,87.670068 C79.1666667,87.8571429 79.3877551,88.0102041 79.4727891,88.0102041 C79.5578231,88.0102041 79.7619048,88.1632653 79.9319728,88.3503401 C80.1020408,88.537415 80.3231293,88.6904762 80.4251701,88.6904762 C80.5272109,88.6904762 80.8503401,88.8945578 81.122449,89.1666667 C81.4115646,89.4217687 81.8367347,89.7278912 82.1088435,89.8639456 C82.3639456,90 82.5680272,90.170068 82.5680272,90.255102 C82.5680272,90.3231293 82.670068,90.3911565 82.7891156,90.3911565 C82.9081633,90.3911565 83.1632653,90.5272109 83.3503401,90.6972789 C83.5204082,90.8503401 83.877551,91.0884354 84.1496599,91.2244898 C84.4047619,91.3605442 84.6088435,91.5306122 84.6088435,91.6156463 C84.6088435,91.6836735 84.7108844,91.7517007 84.829932,91.7517007 C84.9489796,91.7517007 85.2040816,91.8877551 85.3911565,92.0578231 C85.5612245,92.2108844 85.9183673,92.4489796 86.1904762,92.585034 C86.4455782,92.7210884 86.6496599,92.8911565 86.6496599,92.9761905 C86.6496599,93.0442177 86.7517007,93.1122449 86.8707483,93.1122449 C86.9897959,93.1122449 87.2619048,93.2653061 87.4659864,93.452381 C87.670068,93.6394558 87.8911565,93.792517 87.9761905,93.792517 C88.0442177,93.792517 88.2653061,93.9285714 88.452381,94.0986395 C88.622449,94.2517007 88.9795918,94.4897959 89.2517007,94.6258503 C89.5068027,94.7619048 89.7108844,94.9319728 89.7108844,95.0170068 C89.7108844,95.085034 89.8129252,95.1530612 89.9319728,95.1530612 C90.0510204,95.1530612 90.3061224,95.2891156 90.4931973,95.4591837 C90.6632653,95.6292517 91.1054422,95.8843537 91.4455782,96.0544218 C91.7857143,96.2244898 92.1768707,96.4455782 92.2959184,96.5646259 C92.414966,96.6836735 92.8061224,96.9217687 93.1462585,97.0748299 C93.4863946,97.244898 93.877551,97.4659864 93.9965986,97.585034 C94.3367347,97.9081633 95.4081633,98.3843537 95.8163265,98.3843537 C96.2755102,98.3843537 97.0238095,97.6530612 97.0238095,97.2108844 C97.0238095,97.0238095 96.5136054,96.3265306 95.8843537,95.6802721 C95.2380952,95.0170068 94.3027211,94.0136054 93.792517,93.452381 C93.2823129,92.8911565 92.4319728,91.9727891 91.9217687,91.4115646 C91.4115646,90.8503401 90.7142857,90.085034 90.3911565,89.7108844 C90.0680272,89.3367347 89.4557823,88.6394558 89.0306122,88.1802721 C88.6054422,87.7210884 87.9931973,87.0238095 87.670068,86.6496599 C87.3469388,86.2755102 86.8027211,85.6632653 86.4795918,85.2891156 C86.1564626,84.9319728 85.6972789,84.3877551 85.4591837,84.0986395 C85.2210884,83.8095238 84.7619048,83.2653061 84.4387755,82.9081633 C84.1156463,82.5510204 83.6564626,82.0068027 83.4183673,81.7176871 C83.1802721,81.4285714 82.7210884,80.8843537 82.3979592,80.5272109 C82.0748299,80.170068 81.6156463,79.6258503 81.377551,79.3367347 C81.1394558,79.047619 80.7653061,78.5884354 80.5272109,78.3163265 C80.2891156,78.0442177 79.914966,77.585034 79.6768707,77.2959184 C79.4387755,77.0068027 79.0646259,76.547619 78.8265306,76.2755102 C78.5884354,76.0034014 78.2142857,75.5442177 77.9761905,75.255102 C77.7380952,74.9659864 77.3639456,74.5068027 77.1258503,74.2517007 C76.8877551,73.9795918 76.5816327,73.5884354 76.4455782,73.3843537 C76.3095238,73.1802721 76.0034014,72.7891156 75.7653061,72.5170068 C75.5272109,72.2619048 75.1530612,71.8027211 74.914966,71.5136054 C74.6768707,71.2244898 74.3027211,70.7653061 74.0646259,70.5102041 C73.8265306,70.2380952 73.5204082,69.8469388 73.3843537,69.6428571 C73.2482993,69.4387755 72.9421769,69.047619 72.7040816,68.792517 C72.4659864,68.537415 72.1598639,68.1462585 72.0238095,67.9421769 C71.8877551,67.7380952 71.5816327,67.3469388 71.3435374,67.0918367 C71.1054422,66.8367347 70.7993197,66.4455782 70.6632653,66.2414966 C70.5272109,66.037415 70.2891156,65.7312925 70.1530612,65.5612245 C70.0170068,65.3911565 69.7789116,65.085034 69.6428571,64.8809524 C69.5068027,64.6768707 69.2006803,64.2857143 68.962585,64.0306122 C68.7244898,63.7755102 68.4183673,63.3843537 68.2823129,63.1802721 C68.1462585,62.9761905 67.8401361,62.585034 67.6020408,62.329932 C67.3639456,62.0748299 67.0578231,61.6836735 66.9217687,61.4795918 C66.7857143,61.2755102 66.547619,60.9693878 66.4115646,60.7993197 C66.2755102,60.6292517 66.037415,60.3231293 65.9013605,60.1190476 C65.7653061,59.914966 65.5272109,59.6088435 65.3911565,59.4387755 C65.255102,59.2687075 65.0170068,58.962585 64.8809524,58.7585034 C64.744898,58.5544218 64.4387755,58.1632653 64.2006803,57.9081633 C63.962585,57.6530612 63.6564626,57.2619048 63.5204082,57.0578231 C63.3843537,56.8537415 63.1462585,56.547619 63.0102041,56.377551 C62.8741497,56.207483 62.6360544,55.9013605 62.5,55.6972789 C62.3639456,55.4931973 62.1258503,55.1870748 61.9897959,55.0170068 C61.8537415,54.8469388 61.6156463,54.5408163 61.4795918,54.3367347 C61.3435374,54.1326531 61.1054422,53.8265306 60.9693878,53.6564626 C60.8333333,53.4863946 60.5952381,53.1802721 60.4591837,52.9761905 C60.3231293,52.7721088 60.085034,52.4659864 59.9489796,52.2959184 C59.8129252,52.1258503 59.5748299,51.8197279 59.4387755,51.6156463 C59.3027211,51.4115646 59.0646259,51.1054422 58.9285714,50.9353741 C58.792517,50.7653061 58.5544218,50.4591837 58.4183673,50.255102 C58.2823129,50.0510204 58.0272109,49.7278912 57.8741497,49.5408163 C57.7040816,49.3367347 57.5680272,49.1326531 57.5680272,49.0646259 C57.5680272,48.9795918 57.3469388,48.6904762 57.0578231,48.3843537 C56.7857143,48.0782313 56.547619,47.7891156 56.547619,47.7040816 C56.547619,47.6360544 56.4115646,47.4319728 56.2585034,47.2278912 C56.0884354,47.0408163 55.8333333,46.7176871 55.6972789,46.5136054 C55.5612245,46.3095238 55.3231293,46.0034014 55.1870748,45.8333333 C55.0510204,45.6632653 54.8129252,45.3571429 54.6768707,45.1530612 C54.5408163,44.9489796 54.2857143,44.6258503 54.1326531,44.4387755 C53.962585,44.2517007 53.792517,43.9455782 53.7414966,43.7755102 C53.6734694,43.5884354 53.5544218,43.452381 53.4693878,43.452381 C53.3843537,43.452381 53.3163265,43.3333333 53.3163265,43.1972789 C53.3163265,42.7040816 53.6734694,42.9591837 55.4081633,44.7108844 C56.377551,45.6802721 57.2619048,46.4965986 57.3639456,46.5306122 C57.4659864,46.5646259 58.622449,47.6530612 59.9489796,48.9285714 C61.2585034,50.2210884 62.3979592,51.2755102 62.4659864,51.2755102 C62.5340136,51.2755102 63.3673469,52.0408163 64.3367347,52.9761905 C65.2891156,53.9115646 66.1394558,54.6768707 66.207483,54.6768707 C66.2755102,54.6768707 67.0408163,55.3741497 67.9081633,56.207483 C68.7755102,57.0578231 69.5408163,57.7380952 69.6088435,57.7380952 C69.6768707,57.7380952 70.2891156,58.2823129 70.9693878,58.9285714 C71.6326531,59.5918367 72.244898,60.1190476 72.329932,60.1190476 C72.3979592,60.1190476 73.0102041,60.6632653 73.6904762,61.3095238 C74.3537415,61.9727891 74.9659864,62.5 75.0510204,62.5 C75.1190476,62.5 75.6462585,62.9591837 76.2414966,63.5204082 C76.8197279,64.0816327 77.3639456,64.5408163 77.4319728,64.5408163 C77.5,64.5408163 78.0272109,65 78.622449,65.5612245 C79.2006803,66.122449 79.744898,66.5816327 79.8129252,66.5816327 C79.8809524,66.5816327 80.3401361,66.9727891 80.8163265,67.4319728 C81.3095238,67.9081633 81.7687075,68.2823129 81.8367347,68.2823129 C81.9217687,68.2823129 82.3809524,68.6734694 82.8571429,69.1326531 C83.3503401,69.6088435 83.8095238,69.9829932 83.877551,69.9829932 C83.962585,69.9829932 84.4217687,70.3741497 84.8979592,70.8333333 C85.3911565,71.3095238 85.8503401,71.6836735 85.9183673,71.6836735 C86.0034014,71.6836735 86.3605442,71.9897959 86.7346939,72.3639456 C87.1088435,72.7210884 87.5,73.0272109 87.585034,73.0442177 C87.6870748,73.0442177 88.1632653,73.4353741 88.6394558,73.8945578 C89.1326531,74.3707483 89.5918367,74.744898 89.6598639,74.744898 C89.744898,74.744898 90.1190476,75.0510204 90.5272109,75.4251701 C90.9183673,75.7993197 91.292517,76.1054422 91.377551,76.1054422 C91.4455782,76.1054422 91.8197279,76.4115646 92.2278912,76.7857143 C92.6190476,77.1598639 92.9931973,77.4659864 93.0782313,77.4659864 C93.1462585,77.4659864 93.5204082,77.7721088 93.9285714,78.1462585 C94.3197279,78.5204082 94.6938776,78.8265306 94.7789116,78.8265306 C94.8469388,78.8265306 95.1360544,79.0646259 95.4421769,79.3367347 C95.7482993,79.6258503 96.0544218,79.8469388 96.122449,79.8469388 C96.1904762,79.8469388 96.5816327,80.1530612 96.9897959,80.5272109 C97.3809524,80.9013605 97.755102,81.207483 97.8401361,81.207483 C97.9081633,81.207483 98.1972789,81.4455782 98.5034014,81.7176871 C98.8095238,82.0068027 99.1156463,82.2278912 99.1836735,82.2278912 C99.2517007,82.2278912 99.6428571,82.5340136 100.05102,82.9081633 C100.442177,83.2823129 100.833333,83.5884354 100.918367,83.5884354 C100.986395,83.5884354 101.292517,83.8265306 101.581633,84.0986395 C101.887755,84.3707483 102.176871,84.6088435 102.244898,84.6088435 C102.329932,84.6088435 102.619048,84.8469388 102.92517,85.1190476 C103.231293,85.4081633 103.537415,85.6292517 103.605442,85.6292517 C103.673469,85.6292517 103.979592,85.8673469 104.285714,86.1394558 C104.591837,86.4285714 104.897959,86.6496599 104.965986,86.6496599 C105.034014,86.6496599 105.340136,86.8877551 105.646259,87.1598639 C105.952381,87.4489796 106.258503,87.670068 106.326531,87.670068 C106.394558,87.670068 106.70068,87.9081633 107.006803,88.1802721 C107.312925,88.4693878 107.619048,88.6904762 107.704082,88.6904762 C107.789116,88.6904762 108.078231,88.8945578 108.35034,89.1666667 C108.622449,89.4217687 109.064626,89.7278912 109.319728,89.8639456 C109.57483,90 109.778912,90.170068 109.778912,90.255102 C109.778912,90.3231293 109.880952,90.3911565 110,90.3911565 C110.102041,90.3911565 110.442177,90.5952381 110.714286,90.8673469 C111.003401,91.122449 111.428571,91.4285714 111.70068,91.5646259 C111.955782,91.7006803 112.159864,91.8707483 112.159864,91.9557823 C112.159864,92.0238095 112.261905,92.0918367 112.380952,92.0918367 C112.482993,92.0918367 112.823129,92.329932 113.129252,92.6020408 C113.435374,92.8911565 113.741497,93.1122449 113.826531,93.1122449 C113.911565,93.1122449 114.115646,93.2653061 114.285714,93.452381 C114.455782,93.6394558 114.676871,93.792517 114.778912,93.792517 C114.880952,93.792517 115.204082,93.9965986 115.47619,94.2687075 C115.765306,94.5238095 116.190476,94.829932 116.462585,94.9659864 C116.717687,95.1020408 116.921769,95.2721088 116.921769,95.3571429 C116.921769,95.4251701 117.02381,95.4931973 117.142857,95.4931973 C117.244898,95.4931973 117.585034,95.6972789 117.857143,95.9693878 C118.146259,96.2244898 118.571429,96.5306122 118.843537,96.6666667 C119.098639,96.8027211 119.302721,96.9727891 119.302721,97.0578231 C119.302721,97.1258503 119.404762,97.1938776 119.52381,97.1938776 C119.642857,97.1938776 119.897959,97.329932 120.085034,97.5 C120.255102,97.6530612 120.612245,97.8911565 120.884354,98.0272109 C121.139456,98.1632653 121.343537,98.3333333 121.343537,98.4183673 C121.343537,98.4863946 121.445578,98.5544218 121.564626,98.5544218 C121.683673,98.5544218 121.955782,98.707483 122.159864,98.8945578 C122.363946,99.0816327 122.585034,99.2346939 122.670068,99.2346939 C122.755102,99.2346939 122.959184,99.3877551 123.129252,99.5748299 C123.29932,99.7619048 123.520408,99.914966 123.639456,99.914966 C123.758503,99.914966 123.979592,100.068027 124.14966,100.255102 C124.319728,100.442177 124.540816,100.595238 124.659864,100.595238 C124.778912,100.595238 125,100.748299 125.170068,100.935374 C125.340136,101.122449 125.561224,101.27551 125.680272,101.27551 C125.782313,101.27551 126.020408,101.411565 126.207483,101.581633 C126.377551,101.734694 126.734694,101.972789 127.006803,102.108844 C127.261905,102.244898 127.465986,102.414966 127.465986,102.5 C127.465986,102.568027 127.568027,102.636054 127.687075,102.636054 C127.806122,102.636054 128.061224,102.772109 128.248299,102.942177 C128.418367,103.112245 129.013605,103.452381 129.557823,103.72449 C130.085034,103.979592 130.629252,104.285714 130.748299,104.404762 C131.020408,104.676871 132.806122,105.527211 133.078231,105.527211 C133.469388,105.527211 134.268707,104.642857 134.268707,104.234694 C134.268707,104.013605 134.353741,103.792517 134.438776,103.741497 C134.540816,103.690476 134.608844,103.486395 134.608844,103.29932 C134.608844,103.129252 134.693878,102.97619 134.778912,102.97619 C134.880952,102.97619 134.94898,102.789116 134.94898,102.568027 C134.94898,102.329932 135.034014,102.091837 135.119048,102.040816 C135.221088,101.989796 135.289116,101.751701 135.289116,101.530612 C135.289116,101.309524 135.37415,101.071429 135.459184,101.020408 C135.561224,100.969388 135.629252,100.697279 135.629252,100.408163 C135.629252,100.136054 135.714286,99.914966 135.79932,99.914966 C135.901361,99.914966 135.969388,99.6598639 135.969388,99.3367347 C135.969388,99.0136054 136.054422,98.6904762 136.139456,98.6394558 C136.241497,98.5884354 136.309524,98.2823129 136.309524,97.9591837 C136.309524,97.6360544 136.394558,97.329932 136.479592,97.2789116 C136.581633,97.2278912 136.64966,96.9217687 136.64966,96.5986395 C136.64966,96.2755102 136.734694,95.9693878 136.819728,95.9183673 C136.921769,95.8673469 136.989796,95.5612245 136.989796,95.2380952 C136.989796,94.914966 137.07483,94.6088435 137.159864,94.5578231 C137.261905,94.5068027 137.329932,94.1156463 137.329932,93.707483 C137.329932,93.2993197 137.397959,92.9251701 137.482993,92.8741497 C137.568027,92.8231293 137.670068,92.3809524 137.738095,91.8877551 C137.789116,91.3945578 137.92517,90.4591837 138.010204,89.7959184 C138.503401,86.2414966 138.588435,84.6598639 138.588435,78.4863946 C138.605442,70.7823129 138.418367,68.5884354 137.312925,62.5 C136.972789,60.5782313 136.819728,59.8809524 136.309524,57.8741497 C136.207483,57.5170068 136.071429,56.9217687 135.969388,56.547619 C135.884354,56.1734694 135.714286,55.5442177 135.612245,55.1530612 C135.510204,54.744898 135.391156,54.1666667 135.340136,53.877551 C135.289116,53.5714286 135.187075,53.3163265 135.102041,53.3163265 C135.017007,53.3163265 134.94898,53.1632653 134.94898,52.9761905 C134.94898,52.6190476 132.908163,46.3265306 132.738095,46.1734694 C132.687075,46.122449 132.482993,45.6292517 132.278912,45.0680272 C131.768707,43.622449 131.479592,42.8741497 131.377551,42.7721088 C131.292517,42.6870748 130.952381,41.8537415 130.629252,40.952381 C130.527211,40.6462585 130.391156,40.3911565 130.323129,40.3911565 C130.238095,40.3911565 130.187075,40.2721088 130.187075,40.1360544 C130.187075,39.8129252 126.122449,31.6496599 125.918367,31.5816327 C125.833333,31.547619 125.765306,31.377551 125.765306,31.1904762 C125.765306,31.0204082 125.697279,30.8673469 125.629252,30.8673469 C125.544218,30.8673469 125.238095,30.3401361 124.914966,29.6768707 C124.591837,29.0306122 124.285714,28.4863946 124.234694,28.4863946 C124.166667,28.4863946 123.945578,28.1122449 123.72449,27.6360544 C123.503401,27.1768707 123.265306,26.7857143 123.214286,26.7857143 C123.146259,26.7857143 122.993197,26.5646259 122.87415,26.2755102 C122.755102,26.0034014 122.602041,25.7653061 122.534014,25.7653061 C122.465986,25.7653061 122.278912,25.4591837 122.108844,25.085034 C121.938776,24.7108844 121.751701,24.4047619 121.683673,24.4047619 C121.615646,24.4047619 121.462585,24.1836735 121.343537,23.8945578 C121.22449,23.622449 121.071429,23.3843537 120.986395,23.3843537 C120.901361,23.3843537 120.833333,23.3163265 120.833333,23.2142857 C120.833333,23.1292517 120.952381,23.0442177 121.088435,23.0442177 C121.22449,23.0442177 121.343537,23.1292517 121.343537,23.2142857 C121.343537,23.3163265 121.445578,23.3843537 121.564626,23.3843537 C121.683673,23.3843537 121.955782,23.537415 122.159864,23.7244898 C122.363946,23.9115646 122.585034,24.0646259 122.670068,24.0646259 C122.755102,24.0646259 122.959184,24.2176871 123.129252,24.4047619 C123.29932,24.5918367 123.520408,24.744898 123.622449,24.744898 C123.72449,24.744898 124.047619,24.9829932 124.353741,25.255102 C124.659864,25.5442177 124.965986,25.7653061 125.034014,25.7653061 C125.102041,25.7653061 125.408163,26.0034014 125.714286,26.2755102 C126.020408,26.5646259 126.326531,26.7857143 126.394558,26.7857143 C126.462585,26.7857143 126.768707,27.0238095 127.07483,27.2959184 C127.380952,27.585034 127.687075,27.8061224 127.755102,27.8061224 C127.823129,27.8061224 128.129252,28.0442177 128.435374,28.3163265 C128.741497,28.6054422 129.047619,28.8265306 129.115646,28.8265306 C129.183673,28.8265306 129.659864,29.2176871 130.136054,29.6768707 C130.629252,30.1530612 131.088435,30.5272109 131.173469,30.5272109 C131.241497,30.5272109 131.70068,30.9183673 132.193878,31.377551 C132.687075,31.8537415 133.146259,32.2278912 133.214286,32.2278912 C133.282313,32.2278912 133.979592,32.8401361 134.744898,33.5884354 C135.527211,34.3367347 136.207483,34.9489796 136.27551,34.9489796 C136.428571,34.9489796 143.112245,41.6326531 143.112245,41.7857143 C143.112245,41.8537415 143.72449,42.5340136 144.472789,43.3163265 C145.221088,44.0816327 145.833333,44.7789116 145.833333,44.8469388 C145.833333,44.914966 146.207483,45.3741497 146.683673,45.8673469 C147.142857,46.3605442 147.534014,46.8197279 147.534014,46.8877551 C147.534014,46.9727891 147.908163,47.4319728 148.384354,47.9251701 C148.843537,48.4013605 149.234694,48.877551 149.234694,48.9455782 C149.234694,49.0136054 149.455782,49.3197279 149.744898,49.6258503 C150.017007,49.9319728 150.255102,50.2380952 150.255102,50.3061224 C150.255102,50.3741497 150.47619,50.6802721 150.765306,50.9863946 C151.037415,51.292517 151.27551,51.5986395 151.27551,51.6666667 C151.27551,51.7346939 151.496599,52.0408163 151.785714,52.3469388 C152.057823,52.6530612 152.295918,52.9931973 152.295918,53.1122449 C152.295918,53.2142857 152.363946,53.3163265 152.431973,53.3163265 C152.517007,53.3163265 152.687075,53.5204082 152.823129,53.792517 C152.959184,54.047619 153.265306,54.4897959 153.520408,54.7619048 C153.792517,55.0510204 153.996599,55.3571429 153.996599,55.4591837 C153.996599,55.5612245 154.14966,55.7823129 154.336735,55.952381 C154.52381,56.122449 154.676871,56.3435374 154.676871,56.462585 C154.676871,56.5816327 154.829932,56.8027211 155.017007,56.9727891 C155.204082,57.1428571 155.357143,57.3809524 155.357143,57.4829932 C155.357143,57.6020408 155.47619,57.7891156 155.612245,57.9081633 C155.765306,58.0272109 156.003401,58.4013605 156.156463,58.7414966 C156.326531,59.0816327 156.581633,59.5068027 156.751701,59.6768707 C156.921769,59.8639456 157.057823,60.1020408 157.057823,60.2210884 C157.057823,60.3231293 157.176871,60.5102041 157.312925,60.6292517 C157.44898,60.7482993 157.772109,61.2585034 158.027211,61.8027211 C158.282313,62.329932 158.588435,62.8571429 158.690476,62.9591837 C158.809524,63.0782313 159.115646,63.622449 159.370748,64.1496599 C159.642857,64.6938776 159.914966,65.1870748 159.982993,65.2380952 C160.221088,65.4081633 163.520408,72.0748299 163.520408,72.3979592 C163.520408,72.5680272 163.605442,72.7040816 163.690476,72.7040816 C163.792517,72.7040816 163.860544,72.8061224 163.860544,72.9421769 C163.860544,73.0782313 164.098639,73.622449 164.370748,74.1496599 C164.642857,74.6768707 164.880952,75.2210884 164.880952,75.3571429 C164.880952,75.4761905 165.034014,75.8503401 165.221088,76.1904762 C165.408163,76.5306122 165.561224,76.9387755 165.561224,77.1258503 C165.561224,77.3129252 165.646259,77.4659864 165.731293,77.4659864 C165.833333,77.4659864 165.901361,77.6190476 165.901361,77.7891156 C165.901361,77.9761905 165.986395,78.1802721 166.071429,78.2312925 C166.173469,78.2823129 166.241497,78.5204082 166.241497,78.7414966 C166.241497,78.962585 166.326531,79.2006803 166.411565,79.2517007 C166.513605,79.3027211 166.581633,79.5408163 166.581633,79.7789116 C166.581633,80 166.666667,80.1870748 166.751701,80.1870748 C166.853741,80.1870748 166.921769,80.3401361 166.921769,80.5102041 C166.921769,80.6972789 167.006803,80.9013605 167.091837,80.952381 C167.193878,81.0034014 167.261905,81.2414966 167.261905,81.462585 C167.261905,81.6836735 167.346939,81.9217687 167.431973,81.9727891 C167.534014,82.0238095 167.602041,82.2619048 167.602041,82.4829932 C167.602041,82.7040816 167.687075,82.9421769 167.772109,82.9931973 C167.87415,83.0442177 167.942177,83.2823129 167.942177,83.5034014 C167.942177,83.7244898 168.027211,83.962585 168.112245,84.0136054 C168.214286,84.0646259 168.282313,84.3027211 168.282313,84.5238095 C168.282313,84.744898 168.367347,84.9829932 168.452381,85.0340136 C168.554422,85.085034 168.622449,85.3911565 168.622449,85.7142857 C168.622449,86.037415 168.707483,86.3435374 168.792517,86.3945578 C168.894558,86.4455782 168.962585,86.6836735 168.962585,86.9047619 C168.962585,87.1258503 169.047619,87.3639456 169.132653,87.414966 C169.234694,87.4659864 169.302721,87.7721088 169.302721,88.0952381 C169.302721,88.4183673 169.387755,88.7244898 169.472789,88.7755102 C169.57483,88.8265306 169.642857,89.1326531 169.642857,89.4557823 C169.642857,89.7789116 169.727891,90.085034 169.812925,90.1360544 C169.914966,90.1870748 169.982993,90.4931973 169.982993,90.8163265 C169.982993,91.1394558 170.068027,91.4455782 170.153061,91.4965986 C170.255102,91.547619 170.323129,91.8537415 170.323129,92.1768707 C170.323129,92.5 170.408163,92.8061224 170.493197,92.8571429 C170.595238,92.9081633 170.663265,93.2993197 170.663265,93.707483 C170.663265,94.1156463 170.731293,94.4897959 170.816327,94.5408163 C170.901361,94.5918367 171.003401,95.0340136 171.071429,95.5272109 C171.122449,96.0204082 171.241497,96.8877551 171.343537,97.4489796 C172.091837,101.921769 172.244898,104.013605 172.244898,110.544218 C172.261905,114.489796 172.193878,117.329932 172.040816,118.537415 C171.921769,119.57483 171.785714,120.833333 171.734694,121.343537 C171.70068,121.853741 171.581633,122.346939 171.496599,122.431973 C171.411565,122.534014 171.343537,123.010204 171.343537,123.486395 C171.343537,123.979592 171.27551,124.438776 171.173469,124.489796 C171.088435,124.540816 171.003401,124.931973 171.003401,125.340136 C171.003401,125.748299 170.935374,126.139456 170.833333,126.190476 C170.748299,126.241497 170.663265,126.547619 170.663265,126.870748 C170.663265,127.193878 170.595238,127.5 170.493197,127.55102 C170.408163,127.602041 170.323129,127.908163 170.323129,128.231293 C170.323129,128.554422 170.255102,128.860544 170.153061,128.911565 C170.068027,128.962585 169.982993,129.268707 169.982993,129.591837 C169.982993,129.914966 169.914966,130.221088 169.812925,130.272109 C169.57483,130.42517 169.608844,131.989796 169.863946,132.431973 C169.965986,132.636054 170.357143,133.112245 170.714286,133.486395 C171.054422,133.877551 171.343537,134.251701 171.343537,134.319728 C171.343537,134.387755 171.564626,134.693878 171.853741,135 C172.12585,135.306122 172.363946,135.646259 172.363946,135.765306 C172.363946,135.867347 172.431973,135.969388 172.5,135.969388 C172.585034,135.969388 172.755102,136.173469 172.891156,136.445578 C173.027211,136.70068 173.265306,137.057823 173.418367,137.227891 C173.588435,137.414966 173.72449,137.670068 173.72449,137.789116 C173.72449,137.908163 173.792517,138.010204 173.860544,138.010204 C173.945578,138.010204 174.115646,138.214286 174.234694,138.486395 C174.370748,138.741497 174.608844,139.098639 174.761905,139.285714 C174.914966,139.472789 175.136054,139.880952 175.272109,140.187075 C175.408163,140.47619 175.561224,140.731293 175.629252,140.731293 C175.714286,140.731293 175.765306,140.884354 175.765306,141.071429 C175.765306,141.258503 175.833333,141.411565 175.918367,141.411565 C175.986395,141.411565 176.309524,141.921769 176.632653,142.568027 C176.955782,143.197279 177.261905,143.741497 177.329932,143.758503 C177.414966,143.792517 177.465986,143.962585 177.465986,144.14966 C177.465986,144.319728 177.55102,144.472789 177.636054,144.472789 C177.738095,144.472789 177.806122,144.62585 177.806122,144.812925 C177.806122,145 177.891156,145.153061 177.97619,145.153061 C178.078231,145.153061 178.146259,145.306122 178.146259,145.493197 C178.146259,145.680272 178.231293,145.833333 178.316327,145.833333 C178.418367,145.833333 178.486395,145.935374 178.486395,146.071429 C178.486395,146.207483 178.72449,146.751701 178.996599,147.278912 C179.285714,147.806122 179.506803,148.401361 179.506803,148.571429 C179.506803,148.741497 179.591837,148.894558 179.676871,148.894558 C179.778912,148.894558 179.846939,149.047619 179.846939,149.217687 C179.846939,149.404762 179.931973,149.608844 180.017007,149.659864 C180.119048,149.710884 180.187075,149.94898 180.187075,150.187075 C180.187075,150.408163 180.272109,150.595238 180.357143,150.595238 C180.459184,150.595238 180.527211,150.748299 180.527211,150.918367 C180.527211,151.105442 180.612245,151.309524 180.697279,151.360544 C180.79932,151.411565 180.867347,151.64966 180.867347,151.870748 C180.867347,152.091837 180.952381,152.329932 181.037415,152.380952 C181.139456,152.431973 181.207483,152.670068 181.207483,152.891156 C181.207483,153.112245 181.292517,153.35034 181.377551,153.401361 C181.479592,153.452381 181.547619,153.690476 181.547619,153.911565 C181.547619,154.132653 181.632653,154.370748 181.717687,154.421769 C181.819728,154.472789 181.887755,154.710884 181.887755,154.931973 C181.887755,155.153061 181.972789,155.391156 182.057823,155.442177 C182.159864,155.493197 182.227891,155.79932 182.227891,156.122449 C182.227891,156.445578 182.312925,156.751701 182.397959,156.802721 C182.5,156.853741 182.568027,157.091837 182.568027,157.312925 C182.568027,157.534014 182.653061,157.772109 182.738095,157.823129 C182.840136,157.87415 182.908163,158.265306 182.908163,158.673469 C182.908163,159.081633 182.993197,159.472789 183.078231,159.52381 C183.180272,159.57483 183.248299,159.880952 183.248299,160.204082 C183.248299,160.527211 183.316327,160.816327 183.401361,160.867347 C183.486395,160.918367 183.588435,161.360544 183.656463,161.853741 C183.707483,162.346939 183.843537,163.29932 183.928571,163.945578 C184.438776,167.482993 184.52381,174.897959 184.081633,175.187075 C183.996599,175.238095 183.928571,175.578231 183.928571,175.952381 C183.928571,176.343537 183.809524,176.751701 183.673469,176.887755 C183.452381,177.12585 183.384354,177.12585 183.163265,176.887755 C183.027211,176.751701 182.908163,176.513605 182.908163,176.377551 C182.908163,176.22449 182.840136,176.105442 182.755102,176.105442 C182.670068,176.105442 182.517007,175.884354 182.397959,175.595238 C182.278912,175.323129 182.12585,175.085034 182.057823,175.085034 C181.989796,175.085034 181.836735,174.863946 181.717687,174.57483 C181.598639,174.302721 181.445578,174.064626 181.360544,174.064626 C181.292517,174.064626 181.190476,173.911565 181.122449,173.741497 C181.071429,173.554422 180.816327,173.163265 180.561224,172.891156 C180.306122,172.602041 179.914966,172.142857 179.676871,171.853741 C179.064626,171.088435 176.64966,168.622449 176.513605,168.622449 C176.462585,168.622449 176.190476,168.401361 175.935374,168.112245 C175.680272,167.840136 175.37415,167.602041 175.272109,167.602041 C175.170068,167.602041 175.085034,167.534014 175.085034,167.431973 C175.085034,167.346939 174.982993,167.261905 174.863946,167.261905 C174.744898,167.261905 174.540816,167.108844 174.404762,166.921769 C174.268707,166.734694 174.064626,166.581633 173.945578,166.581633 C173.826531,166.581633 173.72449,166.513605 173.72449,166.411565 C173.72449,166.326531 173.605442,166.241497 173.469388,166.241497 C173.333333,166.241497 173.214286,166.173469 173.214286,166.071429 C173.214286,165.986395 173.061224,165.901361 172.87415,165.901361 C172.687075,165.901361 172.534014,165.833333 172.534014,165.731293 C172.534014,165.646259 172.414966,165.561224 172.278912,165.561224 C172.142857,165.561224 172.02381,165.493197 172.02381,165.391156 C172.02381,165.306122 171.870748,165.221088 171.683673,165.221088 C171.496599,165.221088 171.343537,165.153061 171.343537,165.05102 C171.343537,164.965986 171.156463,164.880952 170.918367,164.880952 C170.680272,164.880952 170.493197,164.812925 170.493197,164.710884 C170.493197,164.62585 170.340136,164.540816 170.153061,164.540816 C169.965986,164.540816 169.812925,164.472789 169.812925,164.370748 C169.812925,164.285714 169.62585,164.20068 169.387755,164.20068 C169.14966,164.20068 168.962585,164.132653 168.962585,164.030612 C168.962585,163.945578 168.741497,163.860544 168.452381,163.860544 C168.180272,163.860544 167.942177,163.792517 167.942177,163.690476 C167.942177,163.605442 167.670068,163.520408 167.346939,163.520408 C167.02381,163.520408 166.751701,163.452381 166.751701,163.35034 C166.751701,163.265306 166.377551,163.180272 165.901361,163.180272 C165.442177,163.180272 165.05102,163.112245 165.05102,163.010204 C165.05102,162.908163 164.540816,162.840136 163.860544,162.840136 C163.180272,162.840136 162.670068,162.772109 162.670068,162.670068 C162.670068,162.568027 161.717687,162.5 160.136054,162.5 C158.622449,162.5 157.55102,162.568027 157.482993,162.670068 C157.431973,162.772109 156.734694,162.840136 155.952381,162.840136 C155.170068,162.840136 154.472789,162.92517 154.421769,163.010204 C154.370748,163.112245 153.979592,163.180272 153.571429,163.180272 C153.163265,163.180272 152.772109,163.265306 152.721088,163.35034 C152.670068,163.452381 152.363946,163.520408 152.040816,163.520408 C151.717687,163.520408 151.411565,163.605442 151.360544,163.690476 C151.309524,163.792517 151.003401,163.860544 150.680272,163.860544 C150.357143,163.860544 150.05102,163.945578 150,164.030612 C149.94898,164.132653 149.710884,164.20068 149.489796,164.20068 C149.268707,164.20068 149.030612,164.285714 148.979592,164.370748 C148.928571,164.472789 148.690476,164.540816 148.469388,164.540816 C148.248299,164.540816 148.010204,164.62585 147.959184,164.710884 C147.908163,164.812925 147.670068,164.880952 147.44898,164.880952 C147.227891,164.880952 146.989796,164.965986 146.938776,165.05102 C146.887755,165.153061 146.683673,165.221088 146.513605,165.221088 C146.326531,165.221088 145.918367,165.37415 145.578231,165.561224 C145.238095,165.748299 144.863946,165.901361 144.727891,165.901361 C144.591837,165.901361 144.472789,165.986395 144.472789,166.071429 C144.472789,166.173469 144.319728,166.241497 144.14966,166.241497 C143.826531,166.241497 141.921769,167.159864 141.751701,167.397959 C141.70068,167.465986 141.003401,167.857143 140.187075,168.265306 C139.353741,168.673469 138.690476,169.081633 138.690476,169.14966 C138.690476,169.234694 138.537415,169.302721 138.35034,169.302721 C138.163265,169.302721 138.010204,169.387755 138.010204,169.472789 C138.010204,169.57483 137.857143,169.642857 137.670068,169.642857 C137.482993,169.642857 137.329932,169.727891 137.329932,169.812925 C137.329932,169.914966 137.176871,169.982993 136.989796,169.982993 C136.802721,169.982993 136.64966,170.068027 136.64966,170.153061 C136.64966,170.255102 136.496599,170.323129 136.326531,170.323129 C136.156463,170.323129 135.561224,170.561224 135.034014,170.833333 C134.506803,171.122449 133.962585,171.343537 133.826531,171.343537 C133.690476,171.343537 133.588435,171.428571 133.588435,171.513605 C133.588435,171.615646 133.435374,171.683673 133.248299,171.683673 C133.061224,171.683673 132.653061,171.836735 132.312925,172.02381 C131.972789,172.210884 131.564626,172.363946 131.377551,172.363946 C131.207483,172.363946 131.003401,172.44898 130.952381,172.534014 C130.901361,172.636054 130.697279,172.704082 130.510204,172.704082 C130.340136,172.704082 130.187075,172.789116 130.187075,172.87415 C130.187075,172.97619 129.965986,173.044218 129.676871,173.044218 C129.404762,173.044218 129.166667,173.129252 129.166667,173.214286 C129.166667,173.316327 128.945578,173.384354 128.656463,173.384354 C128.384354,173.384354 128.146259,173.469388 128.146259,173.554422 C128.146259,173.656463 127.92517,173.72449 127.636054,173.72449 C127.363946,173.72449 127.12585,173.809524 127.12585,173.894558 C127.12585,173.996599 126.870748,174.064626 126.547619,174.064626 C126.22449,174.064626 125.901361,174.14966 125.85034,174.234694 C125.79932,174.336735 125.561224,174.404762 125.340136,174.404762 C125.119048,174.404762 124.880952,174.489796 124.829932,174.57483 C124.778912,174.676871 124.472789,174.744898 124.14966,174.744898 C123.826531,174.744898 123.520408,174.829932 123.469388,174.914966 C123.418367,175.017007 123.112245,175.085034 122.789116,175.085034 C122.465986,175.085034 122.159864,175.170068 122.108844,175.255102 C122.057823,175.357143 121.751701,175.42517 121.428571,175.42517 C121.105442,175.42517 120.79932,175.510204 120.748299,175.595238 C120.697279,175.697279 120.306122,175.765306 119.897959,175.765306 C119.489796,175.765306 119.098639,175.85034 119.047619,175.935374 C118.996599,176.037415 118.605442,176.105442 118.197279,176.105442 C117.789116,176.105442 117.397959,176.190476 117.346939,176.27551 C117.295918,176.377551 116.836735,176.445578 116.326531,176.445578 C115.816327,176.445578 115.357143,176.530612 115.306122,176.615646 C115.255102,176.717687 114.642857,176.785714 113.945578,176.785714 C113.248299,176.785714 112.636054,176.870748 112.585034,176.955782 C112.534014,177.057823 111.70068,177.12585 110.714286,177.12585 C109.727891,177.12585 108.894558,177.193878 108.843537,177.295918 C108.77551,177.397959 106.598639,177.465986 102.87415,177.465986 C99.0816327,177.465986 97.0238095,177.397959 97.0238095,177.295918 Z" id="路径"></path>
        </g>
    </g>
</svg>