<?xml version="1.0" encoding="UTF-8"?>
<svg width="128px" height="128px" viewBox="0 0 128 128" version="1.1" xmlns="http://www.w3.org/2000/svg" xmlns:xlink="http://www.w3.org/1999/xlink">
    <title>煨-Icon</title>
    <g id="煨-Icon" stroke="none" stroke-width="1" fill="none" fill-rule="evenodd">
        <g id="编组">
            <path d="M127.347306,63.744 C127.347306,64.7785785 127.321917,65.8110413 127.27114,66.8435041 C127.220364,67.8759669 127.144198,68.906314 127.042645,69.9356033 C126.942149,70.9638347 126.815207,71.9899504 126.662876,73.0128926 C126.511603,74.0347769 126.334942,75.0534876 126.13395,76.0669091 C125.931901,77.0813884 125.705521,78.0895207 125.453752,79.0923636 C125.203041,80.0941488 124.926942,81.0906446 124.62757,82.0797355 C124.32714,83.0688264 124.00238,84.0505124 123.654347,85.0237355 C123.306314,85.9969587 122.93395,86.9606612 122.539372,87.9159008 C122.143736,88.8711405 121.724826,89.8158017 121.282645,90.7498843 C120.840463,91.6850248 120.376066,92.6085289 119.888397,93.5193388 C119.400727,94.4312066 118.891901,95.3303802 118.36086,96.2168595 C117.82876,97.1043967 117.276562,97.977124 116.702149,98.837157 C116.127736,99.6961322 115.532165,100.541355 114.916496,101.371769 C114.300826,102.201124 113.665058,103.016727 113.00919,103.815405 C112.353322,104.614083 111.678413,105.396893 110.984463,106.162777 C110.290512,106.928661 109.577521,107.67762 108.846545,108.408595 C108.11557,109.13957 107.366612,109.852562 106.600727,110.546512 C105.834843,111.240463 105.052033,111.915372 104.253355,112.57124 C103.454678,113.227107 102.640132,113.862876 101.809719,114.478545 C100.979306,115.094215 100.134083,115.688727 99.2751074,116.26314 C98.4150744,116.837554 97.5423471,117.39081 96.6558678,117.921851 C95.7683306,118.45395 94.869157,118.962777 93.9583471,119.450446 C93.0464793,119.938116 92.1229752,120.402512 91.1888926,120.844694 C90.2537521,121.286876 89.3090909,121.705785 88.3538512,122.100364 C87.3996694,122.496 86.4349091,122.868364 85.461686,123.216397 C84.4884628,123.56443 83.5067769,123.88919 82.517686,124.18962 C81.528595,124.488992 80.533157,124.765091 79.530314,125.015802 C78.5274711,125.26757 77.5193388,125.492893 76.5048595,125.694942 C75.491438,125.896992 74.4727273,126.073653 73.450843,126.224926 C72.4279008,126.377256 71.4017851,126.50314 70.3735537,126.604694 C69.3442645,126.706248 68.3139174,126.782413 67.2814545,126.83319 C66.2489917,126.883967 65.2165289,126.909355 64.1819504,126.909355 C63.1484298,126.909355 62.1149091,126.883967 61.0835041,126.83319 C60.0499835,126.782413 59.0196364,126.706248 57.991405,126.604694 C56.9621157,126.50314 55.936,126.377256 54.9141157,126.224926 C53.8911736,126.073653 52.8735207,125.896992 51.8590413,125.694942 C50.8456198,125.492893 49.8374876,125.26757 48.8346446,125.015802 C47.8318017,124.765091 46.8353058,124.488992 45.8462149,124.18962 C44.857124,123.88919 43.8764959,123.56443 42.9022149,123.216397 C41.9289917,122.868364 40.9652893,122.496 40.0100496,122.100364 C39.0548099,121.705785 38.1101488,121.286876 37.1760661,120.844694 C36.2409256,120.402512 35.3184793,119.938116 34.4066116,119.450446 C33.4947438,118.962777 32.5955702,118.45395 31.7090909,117.921851 C30.8226116,117.39081 29.9488264,116.837554 29.0898512,116.26314 C28.2298182,115.688727 27.3856529,115.094215 26.5552397,114.478545 C25.7248264,113.862876 24.910281,113.227107 24.1105455,112.57124 C23.3118678,111.915372 22.5290579,111.240463 21.7631736,110.546512 C20.9972893,109.852562 20.2483306,109.13957 19.5173554,108.408595 C18.787438,107.67762 18.0744463,106.928661 17.3804959,106.162777 C16.6854876,105.396893 16.0116364,104.614083 15.3547107,103.815405 C14.698843,103.016727 14.0641322,102.201124 13.4484628,101.371769 C12.8317355,100.541355 12.2372231,99.6961322 11.6628099,98.837157 C11.0883967,97.977124 10.5351405,97.1043967 10.0040992,96.2168595 C9.472,95.3303802 8.96317355,94.4312066 8.47656198,93.5193388 C7.98889256,92.6085289 7.52449587,91.6850248 7.08231405,90.7498843 C6.64013223,89.8158017 6.22122314,88.8711405 5.82558678,87.9159008 C5.42995041,86.9606612 5.05758678,85.9969587 4.70955372,85.0237355 C4.36152066,84.0505124 4.03676033,83.0688264 3.73738843,82.0797355 C3.43695868,81.0906446 3.16191736,80.0941488 2.91014876,79.0923636 C2.65943802,78.0895207 2.43305785,77.0813884 2.23100826,76.0669091 C2.02895868,75.0534876 1.85335537,74.0347769 1.70102479,73.0128926 C1.54975207,71.9899504 1.42280992,70.9638347 1.3212562,69.9356033 C1.22076033,68.906314 1.14459504,67.8759669 1.09381818,66.8435041 C1.04304132,65.8110413 1.01765289,64.7785785 1.01765289,63.744 C1.01765289,62.7104793 1.04304132,61.6769587 1.09381818,60.6455537 C1.14459504,59.6120331 1.22076033,58.581686 1.3212562,57.5523967 C1.42280992,56.5241653 1.54975207,55.4980496 1.70102479,54.4761653 C1.85335537,53.4532231 2.02895868,52.4355702 2.23100826,51.4210909 C2.43305785,50.4076694 2.65943802,49.3995372 2.91014876,48.3966942 C3.16191736,47.3938512 3.43695868,46.3973554 3.73738843,45.4082645 C4.03676033,44.4191736 4.36152066,43.4374876 4.70955372,42.4642645 C5.05758678,41.4910413 5.42995041,40.5273388 5.82558678,39.5720992 C6.22122314,38.6168595 6.64013223,37.6721983 7.08231405,36.7381157 C7.52449587,35.8029752 7.98889256,34.8805289 8.47656198,33.9686612 C8.96317355,33.0567934 9.472,32.1576198 10.0040992,31.2711405 C10.5351405,30.3846612 11.0883967,29.510876 11.6628099,28.6519008 C12.2372231,27.7918678 12.8317355,26.9466446 13.4484628,26.1172893 C14.0641322,25.286876 14.698843,24.4723306 15.3547107,23.672595 C16.0116364,22.8739174 16.6854876,22.0911074 17.3804959,21.3252231 C18.0744463,20.5593388 18.787438,19.8103802 19.5173554,19.079405 C20.2483306,18.3484298 20.9972893,17.6364959 21.7631736,16.9425455 C22.5290579,16.2475372 23.3118678,15.5726281 24.1105455,14.9167603 C24.910281,14.2608926 25.7248264,13.625124 26.5552397,13.0094545 C27.3856529,12.3937851 28.2298182,11.7992727 29.0898512,11.2248595 C29.9488264,10.6504463 30.8226116,10.0971901 31.7090909,9.56614876 C32.5955702,9.03404959 33.4947438,8.52522314 34.4066116,8.03755372 C35.3184793,7.5498843 36.2409256,7.0854876 37.1760661,6.64330579 C38.1101488,6.20218182 39.0548099,5.78327273 40.0100496,5.38763636 C40.9652893,4.992 41.9289917,4.61963636 42.9022149,4.27160331 C43.8764959,3.92357025 44.857124,3.59880992 45.8462149,3.29943802 C46.8353058,2.99900826 47.8318017,2.72396694 48.8346446,2.47219835 C49.8374876,2.2214876 50.8456198,1.99510744 51.8590413,1.79305785 C52.8735207,1.59100826 53.8911736,1.41434711 54.9141157,1.26307438 C55.936,1.11180165 56.9621157,0.984859504 57.991405,0.883305785 C59.0196364,0.781752066 60.0499835,0.706644628 61.0835041,0.655867769 C62.1149091,0.604033058 63.1484298,0.579702479 64.1819504,0.579702479 C65.2165289,0.579702479 66.2489917,0.604033058 67.2814545,0.655867769 C68.3139174,0.706644628 69.3442645,0.781752066 70.3735537,0.883305785 C71.4017851,0.984859504 72.4279008,1.11180165 73.450843,1.26307438 C74.4727273,1.41434711 75.491438,1.59100826 76.5048595,1.79305785 C77.5193388,1.99510744 78.5274711,2.2214876 79.530314,2.47219835 C80.533157,2.72396694 81.528595,2.99900826 82.517686,3.29943802 C83.5067769,3.59880992 84.4884628,3.92357025 85.461686,4.27160331 C86.4349091,4.61963636 87.3996694,4.992 88.3538512,5.38763636 C89.3090909,5.78327273 90.2537521,6.20218182 91.1888926,6.64330579 C92.1229752,7.0854876 93.0464793,7.5498843 93.9583471,8.03755372 C94.869157,8.52522314 95.7683306,9.03404959 96.6558678,9.56614876 C97.5423471,10.0971901 98.4150744,10.6504463 99.2751074,11.2248595 C100.134083,11.7992727 100.979306,12.3937851 101.809719,13.0094545 C102.640132,13.625124 103.454678,14.2608926 104.253355,14.9167603 C105.052033,15.5726281 105.834843,16.2475372 106.600727,16.9425455 C107.366612,17.6364959 108.11557,18.3484298 108.846545,19.079405 C109.577521,19.8103802 110.290512,20.5593388 110.984463,21.3252231 C111.678413,22.0911074 112.353322,22.8739174 113.00919,23.672595 C113.665058,24.4723306 114.300826,25.286876 114.916496,26.1172893 C115.532165,26.9466446 116.127736,27.7918678 116.702149,28.6519008 C117.276562,29.510876 117.82876,30.3846612 118.36086,31.2711405 C118.891901,32.1576198 119.400727,33.0567934 119.888397,33.9686612 C120.376066,34.8805289 120.840463,35.8029752 121.282645,36.7381157 C121.724826,37.6721983 122.143736,38.6168595 122.539372,39.5720992 C122.93395,40.5273388 123.306314,41.4910413 123.654347,42.4642645 C124.00238,43.4374876 124.32714,44.4191736 124.62757,45.4082645 C124.926942,46.3973554 125.203041,47.3938512 125.453752,48.3966942 C125.705521,49.3995372 125.931901,50.4076694 126.13395,51.4210909 C126.334942,52.4355702 126.511603,53.4532231 126.662876,54.4761653 C126.815207,55.4980496 126.942149,56.5241653 127.042645,57.5523967 C127.144198,58.581686 127.220364,59.6120331 127.27114,60.6455537 C127.321917,61.6769587 127.347306,62.7104793 127.347306,63.744" id="Fill-27" fill="#DFF1F6"></path>
            <path d="M64.1819504,127.425587 C29.0676364,127.425587 0.500363636,98.858314 0.500363636,63.744 C0.500363636,28.629686 29.0676364,0.0624132231 64.1819504,0.0624132231 C99.2962645,0.0624132231 127.863537,28.629686 127.863537,63.744 C127.863537,98.858314 99.2962645,127.425587 64.1819504,127.425587 Z M64.1819504,1.09699174 C29.638876,1.09699174 1.53494215,29.2009256 1.53494215,63.744 C1.53494215,98.2881322 29.638876,126.392066 64.1819504,126.392066 C98.7260826,126.392066 126.830017,98.2881322 126.830017,63.744 C126.830017,29.2009256 98.7260826,1.09699174 64.1819504,1.09699174 L64.1819504,1.09699174 Z" id="Fill-29" fill="#3C2010"></path>
            <path d="M103.791074,62.9537851 C103.791074,63.6064793 103.775207,64.2591736 103.743471,64.9108099 C103.710678,65.5624463 103.663074,66.2130248 103.598545,66.8625455 C103.535074,67.5120661 103.454678,68.1605289 103.359471,68.8058182 C103.263207,69.4521653 103.152132,70.094281 103.024132,70.734281 C102.89719,71.374281 102.75438,72.0111074 102.595702,72.6447603 C102.437025,73.2784132 102.262479,73.9067769 102.073124,74.5309091 C101.883769,75.1560992 101.679603,75.776 101.45957,76.3906116 C101.239537,77.0052231 101.004694,77.6134876 100.755041,78.2164628 C100.505388,78.819438 100.240926,79.4160661 99.9616529,80.0063471 C99.6823802,80.5966281 99.3893554,81.1795041 99.0815207,81.7549752 C98.773686,82.3304463 98.4520992,82.8985124 98.1167603,83.4581157 C97.7814215,84.017719 97.4323306,84.5699174 97.0694876,85.112595 C96.7066446,85.6552727 96.3311074,86.1884298 95.9418182,86.713124 C95.5525289,87.2367603 95.1516033,87.7519339 94.7379835,88.2565289 C94.3233058,88.761124 93.8969917,89.2551405 93.4590413,89.7385785 C93.0200331,90.2220165 92.5704463,90.694876 92.1092231,91.1560992 C91.648,91.6173223 91.1751405,92.0679669 90.6906446,92.5059174 C90.2072066,92.9449256 89.7131901,93.3701818 89.208595,93.7848595 C88.704,94.1995372 88.1898843,94.6004628 87.6651901,94.9897521 C87.1415537,95.3779835 86.6073388,95.7535207 86.0646612,96.1163636 C85.5219835,96.4792066 84.970843,96.8282975 84.4112397,97.1636364 C83.8516364,97.5000331 83.2835702,97.820562 82.7080992,98.1283967 C82.1315702,98.4362314 81.5486942,98.7292562 80.9594711,99.0095868 C80.3691901,99.2878017 79.772562,99.5522645 79.1695868,99.8019174 C78.5666116,100.05157 77.9572893,100.286413 77.3426777,100.506446 C76.7280661,100.726479 76.1081653,100.931702 75.4840331,101.121058 C74.8599008,101.310413 74.2304793,101.483901 73.5978843,101.642579 C72.9642314,101.801256 72.327405,101.945124 71.687405,102.072066 C71.047405,102.199008 70.4042314,102.31114 69.7578843,102.406347 C69.112595,102.502612 68.4651901,102.58195 67.8156694,102.646479 C67.1661488,102.70995 66.5155702,102.758612 65.862876,102.790347 C65.2112397,102.822083 64.5596033,102.83795 63.9058512,102.83795 C63.253157,102.83795 62.6015207,102.822083 61.9488264,102.790347 C61.2971901,102.758612 60.6466116,102.70995 59.9970909,102.646479 C59.3475702,102.58195 58.6991074,102.502612 58.0538182,102.406347 C57.4085289,102.31114 56.7653554,102.199008 56.1253554,102.072066 C55.4842975,101.945124 54.8485289,101.801256 54.214876,101.642579 C53.582281,101.483901 52.9528595,101.310413 52.3276694,101.121058 C51.7035372,100.931702 51.0836364,100.726479 50.4690248,100.506446 C49.8554711,100.286413 49.2461488,100.05157 48.6431736,99.8019174 C48.0401983,99.5522645 47.4435702,99.2878017 46.8532893,99.0095868 C46.2630083,98.7292562 45.6801322,98.4362314 45.1046612,98.1283967 C44.5291901,97.820562 43.961124,97.5000331 43.4015207,97.1636364 C42.8408595,96.8282975 42.289719,96.4792066 41.7470413,96.1163636 C41.2043636,95.7535207 40.6712066,95.3779835 40.1475702,94.9897521 C39.622876,94.6004628 39.1087603,94.1995372 38.6041653,93.7848595 C38.0995702,93.3701818 37.6044959,92.9449256 37.1210579,92.5059174 C36.6376198,92.0679669 36.1647603,91.6173223 35.7035372,91.1560992 C35.2412562,90.694876 34.7916694,90.2220165 34.353719,89.7385785 C33.9157686,89.2551405 33.4883967,88.761124 33.0747769,88.2565289 C32.661157,87.7519339 32.2591736,87.2367603 31.8709421,86.713124 C31.4816529,86.1884298 31.1061157,85.6552727 30.7432727,85.112595 C30.3804298,84.5699174 30.0313388,84.017719 29.696,83.4581157 C29.3606612,82.8985124 29.0390744,82.3304463 28.7312397,81.7549752 C28.423405,81.1795041 28.1293223,80.5966281 27.8511074,80.0063471 C27.5718347,79.4160661 27.3073719,78.819438 27.057719,78.2164628 C26.8080661,77.6134876 26.5732231,77.0052231 26.3531901,76.3906116 C26.133157,75.776 25.9289917,75.1560992 25.7385785,74.5309091 C25.5492231,73.9067769 25.3757355,73.2784132 25.2170579,72.6447603 C25.0583802,72.0111074 24.9155702,71.374281 24.7875702,70.734281 C24.6606281,70.094281 24.5495537,69.4521653 24.4532893,68.8058182 C24.3570248,68.1605289 24.277686,67.5120661 24.213157,66.8625455 C24.149686,66.2130248 24.1020826,65.5624463 24.0692893,64.9108099 C24.0375537,64.2591736 24.021686,63.6064793 24.021686,62.9537851 C24.021686,62.3010909 24.0375537,61.6483967 24.0692893,60.9967603 C24.1020826,60.345124 24.149686,59.6934876 24.213157,59.0439669 C24.277686,58.3944463 24.3570248,57.7470413 24.4532893,57.1017521 C24.5495537,56.455405 24.6606281,55.8132893 24.7875702,55.1722314 C24.9155702,54.5322314 25.0583802,53.895405 25.2170579,53.2628099 C25.3757355,52.629157 25.5492231,52.0007934 25.7385785,51.3756033 C25.9289917,50.7514711 26.133157,50.1315702 26.3531901,49.5169587 C26.5732231,48.9023471 26.8080661,48.2930248 27.057719,47.6900496 C27.3073719,47.0870744 27.5718347,46.4904463 27.8511074,45.9012231 C28.1293223,45.3109421 28.423405,44.7280661 28.7312397,44.1515372 C29.0390744,43.5760661 29.3606612,43.0090579 29.696,42.4483967 C30.0313388,41.8887934 30.3804298,41.3376529 30.7432727,40.7949752 C31.1061157,40.2522975 31.4816529,39.7180826 31.8709421,39.1944463 C32.2591736,38.6697521 32.661157,38.1556364 33.0747769,37.6510413 C33.4883967,37.1464463 33.9157686,36.6524298 34.353719,36.1689917 C34.7916694,35.6855537 35.2412562,35.2126942 35.7035372,34.7504132 C36.1647603,34.2891901 36.6376198,33.8396033 37.1210579,33.400595 C37.6044959,32.9626446 38.0995702,32.5363306 38.6041653,32.1227107 C39.1087603,31.7080331 39.622876,31.3071074 40.1475702,30.9178182 C40.6712066,30.5285289 41.2043636,30.1529917 41.7470413,29.7912066 C42.289719,29.4283636 42.8408595,29.0792727 43.4015207,28.742876 C43.961124,28.4075372 44.5291901,28.0859504 45.1046612,27.7781157 C45.6801322,27.470281 46.2630083,27.1772562 46.8532893,26.8979835 C47.4435702,26.6187107 48.0401983,26.3553058 48.6431736,26.104595 C49.2461488,25.8549421 49.8554711,25.6200992 50.4690248,25.4000661 C51.0836364,25.1810909 51.7035372,24.9758678 52.3276694,24.7865124 C52.9528595,24.597157 53.582281,24.4226116 54.214876,24.2639339 C54.8485289,24.1052562 55.4842975,23.9624463 56.1253554,23.8355041 C56.7653554,23.7075041 57.4085289,23.5964298 58.0538182,23.5012231 C58.6991074,23.4049587 59.3475702,23.324562 59.9970909,23.2610909 C60.6466116,23.1976198 61.2971901,23.1489587 61.9488264,23.1172231 C62.6015207,23.0854876 63.253157,23.068562 63.9058512,23.068562 C64.5596033,23.068562 65.2112397,23.0854876 65.862876,23.1172231 C66.5155702,23.1489587 67.1661488,23.1976198 67.8156694,23.2610909 C68.4651901,23.324562 69.112595,23.4049587 69.7589421,23.5012231 C70.4042314,23.5964298 71.047405,23.7075041 71.687405,23.8355041 C72.327405,23.9624463 72.9642314,24.1052562 73.5978843,24.2639339 C74.2304793,24.4226116 74.8599008,24.597157 75.4840331,24.7865124 C76.1081653,24.9758678 76.7280661,25.1810909 77.3426777,25.4000661 C77.9572893,25.6200992 78.5666116,25.8549421 79.1695868,26.104595 C79.772562,26.3553058 80.3691901,26.6187107 80.9594711,26.8979835 C81.5486942,27.1772562 82.1315702,27.470281 82.7080992,27.7781157 C83.2835702,28.0859504 83.8516364,28.4075372 84.4112397,28.742876 C84.970843,29.0792727 85.5219835,29.4283636 86.0646612,29.7912066 C86.6073388,30.1529917 87.1415537,30.5285289 87.6651901,30.9178182 C88.1898843,31.3071074 88.704,31.7080331 89.208595,32.1227107 C89.7131901,32.5363306 90.2072066,32.9626446 90.6906446,33.400595 C91.1751405,33.8396033 91.648,34.2891901 92.1092231,34.7504132 C92.5704463,35.2126942 93.0200331,35.6855537 93.4590413,36.1689917 C93.8969917,36.6524298 94.3233058,37.1464463 94.7379835,37.6510413 C95.1516033,38.1556364 95.5525289,38.6697521 95.9418182,39.1944463 C96.3311074,39.7180826 96.7066446,40.2522975 97.0694876,40.7949752 C97.4323306,41.3376529 97.7814215,41.8887934 98.1167603,42.4483967 C98.4520992,43.0090579 98.773686,43.5760661 99.0815207,44.1515372 C99.3893554,44.7280661 99.6823802,45.3109421 99.9616529,45.9012231 C100.240926,46.4904463 100.505388,47.0870744 100.755041,47.6900496 C101.004694,48.2930248 101.239537,48.9023471 101.45957,49.5169587 C101.679603,50.1315702 101.883769,50.7514711 102.073124,51.3756033 C102.262479,52.0007934 102.437025,52.629157 102.595702,53.2628099 C102.75438,53.895405 102.89719,54.5322314 103.024132,55.1722314 C103.152132,55.8132893 103.263207,56.455405 103.359471,57.1017521 C103.454678,57.7470413 103.535074,58.3944463 103.598545,59.0439669 C103.663074,59.6934876 103.710678,60.345124 103.743471,60.9967603 C103.775207,61.6483967 103.791074,62.3010909 103.791074,62.9537851" id="Fill-30" fill="#BAE0EE"></path>
            <path d="M63.9058512,103.35524 C41.628562,103.35524 23.5043967,85.2310744 23.5043967,62.9537851 C23.5043967,40.675438 41.628562,22.5544463 63.9058512,22.5544463 C86.1841983,22.5544463 104.308364,40.6786116 104.308364,62.9559008 C104.308364,85.2342479 86.1810248,103.35524 63.9058512,103.35524 Z M63.9058512,23.5890248 C42.1987438,23.5890248 24.5410909,41.2487934 24.5410909,62.9537851 C24.5410909,84.657719 42.2019174,102.318545 63.9058512,102.318545 C85.610843,102.318545 103.270612,84.657719 103.270612,62.9537851 C103.270612,41.2487934 85.610843,23.5890248 63.9058512,23.5890248 L63.9058512,23.5890248 Z" id="Fill-31" fill="#3C2010"></path>
            <path d="M118.720529,11.8934215 L119.610182,124.352529 C119.610182,124.352529 116.715901,130.106182 110.485157,124.352529 L110.485157,70.6126281 C110.485157,70.6126281 90.8979835,37.5240992 118.720529,11.8934215" id="Fill-32" fill="#FADDA3"></path>
            <path d="M115.614678,127.42876 C113.912595,127.42876 112.07405,126.525355 110.13395,124.733355 L109.967868,124.579967 L109.967868,70.7522645 C109.35114,69.6616198 104.977983,61.6187769 103.656727,50.9291901 C102.34605,40.3379835 103.836562,24.9018182 118.371438,11.5136529 L119.232529,10.7223802 L120.13276,124.473124 L120.076694,124.585256 C120.028033,124.679405 118.881322,126.914645 116.453554,127.353653 C116.177455,127.402314 115.89924,127.42876 115.614678,127.42876 Z M111.002446,124.124033 C112.942545,125.869488 114.709157,126.614215 116.254678,126.338116 C117.911273,126.04086 118.860165,124.614876 119.092893,124.221355 L118.213818,13.0835041 C104.81719,25.9713058 103.434579,40.6384132 104.680727,50.7652231 C106.063339,62.0101818 110.885025,70.2698843 110.932628,70.350281 L111.004562,70.470876 L111.004562,124.124033 L111.002446,124.124033 L111.002446,124.124033 Z" id="Fill-33" fill="#3C2010"></path>
            <path d="M34.4647934,23.0717355 C34.4647934,23.0717355 32.2591736,23.0717355 29.2770909,23.0717355 L29.2770909,42.2029752 L27.3771901,42.2029752 L27.3771901,23.0717355 C25.3239008,23.0717355 23.0759669,23.0717355 20.9962314,23.0717355 L20.9962314,42.2029752 L19.0984463,42.2029752 L19.0984463,23.0717355 C15.9090248,23.0717355 13.4918347,23.0717355 13.4918347,23.0717355 C13.4918347,23.0717355 13.0337851,38.5745455 13.4918347,49.891438 C13.9509421,61.2115041 20.1943802,63.2404628 20.1943802,63.2404628 L20.2430413,124.939636 C23.3594711,129.36886 26.4769587,124.939636 26.4769587,124.939636 L26.4769587,62.6850909 C32.5162314,60.4720661 33.877686,56.2893223 34.2796694,47.8497851 C34.6520331,40.0058182 35.0307438,30.9104132 34.4647934,23.0717355" id="Fill-34" fill="#FAD1AD"></path>
            <path d="M23.2441653,127.425587 C21.9927273,127.425587 20.8407273,126.689322 19.8199008,125.236893 L19.7257521,125.102545 L19.7257521,124.939636 L19.6770909,63.5884959 C18.2860165,62.9590744 13.3849917,60.024595 12.9756033,49.9104793 C12.522843,38.7036033 12.970314,23.2081983 12.9756033,23.0526942 L12.9914711,22.5512727 L19.6157355,22.5512727 L19.6157355,41.6835702 L20.4810579,41.6835702 L20.4810579,22.5544463 L27.896595,22.5544463 L27.896595,41.685686 L28.7619174,41.685686 L28.7619174,22.5544463 L34.9471736,22.5544463 L34.9820826,23.0347107 C35.534281,30.7115372 35.1936529,39.5149752 34.7980165,47.8762314 C34.4119008,56.0364959 33.0842975,60.664595 26.9963636,63.0447603 L26.9963636,125.105719 L26.9022149,125.239008 C26.837686,125.327868 25.3376529,127.425587 23.2441653,127.425587 Z M20.7603306,124.775669 C21.5484298,125.850446 22.3841322,126.394182 23.2441653,126.394182 C24.5569587,126.394182 25.6433719,125.167074 25.9586116,124.768264 L25.9586116,62.3264793 L26.2992397,62.2037686 C32.1681983,60.0510413 33.3826116,55.8524298 33.7623802,47.8286281 C34.1484959,39.6736529 34.4838347,31.0976529 33.9824132,23.5890248 L29.7964959,23.5890248 L29.7964959,42.7202645 L26.8620165,42.7202645 L26.8620165,23.5890248 L21.5156364,23.5890248 L21.5156364,42.7202645 L18.581157,42.7202645 L18.581157,23.5890248 L13.9985455,23.5890248 C13.9266116,26.3436694 13.6050248,39.836562 14.0122975,49.870281 C14.4491901,60.6466116 20.2991074,62.7284628 20.3583471,62.7496198 L20.7116694,62.8680992 L20.714843,63.2404628 L20.7603306,124.775669 L20.7603306,124.775669 Z" id="Fill-35" fill="#3C2010"></path>
        </g>
    </g>
</svg>