<?xml version="1.0" encoding="UTF-8"?>
<svg width="444px" height="512px" viewBox="0 0 444 512" version="1.1" xmlns="http://www.w3.org/2000/svg" xmlns:xlink="http://www.w3.org/1999/xlink">
    <title>画板</title>
    <g id="画板" stroke="none" stroke-width="1" fill="none" fill-rule="evenodd">
        <g id="illustration-02" fill="#878787" fill-rule="nonzero">
            <path d="M136.652,136.8 C133.317,134.343 128.619,135.057 126.164,138.394 L111.319,158.563 L106.243,151.591 C103.805,148.243 99.113,147.503 95.763,149.942 C92.414,152.381 91.675,157.074 94.114,160.423 L102.871,172.449 C104.821,175.126 107.962,176.729 111.273,176.738 L111.299,176.738 C114.601,176.738 117.738,175.153 119.696,172.493 L138.248,147.289 C140.702,143.952 139.988,139.256 136.652,136.8 L136.652,136.8 Z" id="路径"></path>
            <path d="M136.652,259.827 C133.317,257.37 128.619,258.084 126.164,261.421 L111.319,281.589 L106.243,274.618 C103.804,271.269 99.114,270.529 95.762,272.968 C92.413,275.407 91.674,280.099 94.113,283.448 L102.87,295.476 C104.819,298.152 107.96,299.756 111.271,299.764 C111.28,299.765 111.289,299.765 111.297,299.765 C114.599,299.765 117.737,298.179 119.695,295.519 L138.247,270.316 C140.702,266.979 139.988,262.282 136.652,259.827 L136.652,259.827 Z" id="路径"></path>
            <path d="M136.652,377.611 C133.317,375.154 128.619,375.868 126.164,379.205 L111.319,399.373 L106.243,392.402 C103.804,389.054 99.114,388.313 95.762,390.752 C92.413,393.191 91.674,397.883 94.113,401.232 L102.87,413.26 C104.819,415.936 107.96,417.54 111.271,417.548 C111.28,417.549 111.289,417.549 111.297,417.549 C114.599,417.549 117.737,415.963 119.695,413.303 L138.247,388.1 C140.702,384.764 139.988,380.067 136.652,377.611 L136.652,377.611 Z" id="路径"></path>
            <path d="M194.027,147.871 L286.743,147.871 C290.886,147.871 294.245,144.513 294.245,140.369 C294.245,136.225 290.886,132.867 286.743,132.867 L194.027,132.867 C189.884,132.867 186.525,136.225 186.525,140.369 C186.525,144.513 189.884,147.871 194.027,147.871 Z" id="路径"></path>
            <path d="M194.027,179.212 L240.385,179.212 C244.528,179.212 247.887,175.854 247.887,171.71 C247.887,167.566 244.528,164.208 240.385,164.208 L194.027,164.208 C189.884,164.208 186.525,167.566 186.525,171.71 C186.525,175.854 189.884,179.212 194.027,179.212 Z" id="路径"></path>
            <path d="M194.027,268.276 L256.235,268.276 C260.378,268.276 263.737,264.918 263.737,260.774 C263.737,256.63 260.378,253.272 256.235,253.272 L194.027,253.272 C189.884,253.272 186.525,256.63 186.525,260.774 C186.525,264.918 189.884,268.276 194.027,268.276 L194.027,268.276 Z" id="路径"></path>
            <path d="M240.385,299.618 C244.528,299.618 247.887,296.26 247.887,292.116 C247.887,287.972 244.528,284.614 240.385,284.614 L194.027,284.614 C189.884,284.614 186.525,287.972 186.525,292.116 C186.525,296.26 189.884,299.618 194.027,299.618 L240.385,299.618 Z" id="路径"></path>
            <path d="M145.087,108.047 L87.293,108.047 C76.764,108.047 68.197,116.614 68.197,127.143 L68.197,184.937 C68.197,195.466 76.764,204.033 87.293,204.033 L145.087,204.033 C155.616,204.033 164.183,195.466 164.183,184.937 L164.183,127.143 C164.183,116.614 155.617,108.047 145.087,108.047 Z M149.18,184.937 C149.18,187.193 147.344,189.029 145.088,189.029 L87.294,189.029 C85.038,189.029 83.202,187.194 83.202,184.937 L83.202,127.143 C83.202,124.887 85.038,123.051 87.294,123.051 L145.088,123.051 C147.344,123.051 149.18,124.886 149.18,127.143 L149.18,184.937 Z" id="形状"></path>
            <path d="M145.087,228.453 L87.293,228.453 C76.764,228.453 68.197,237.02 68.197,247.549 L68.197,305.343 C68.197,315.872 76.764,324.439 87.293,324.439 L145.087,324.439 C155.616,324.439 164.183,315.872 164.183,305.343 L164.183,247.549 C164.183,237.019 155.617,228.453 145.087,228.453 L145.087,228.453 Z M149.18,305.343 C149.18,307.599 147.344,309.435 145.088,309.435 L87.294,309.435 C85.038,309.435 83.202,307.6 83.202,305.343 L83.202,247.549 C83.202,245.293 85.038,243.457 87.294,243.457 L145.088,243.457 C147.344,243.457 149.18,245.292 149.18,247.549 L149.18,305.343 Z" id="形状"></path>
            <path d="M145.087,348.857 L87.293,348.857 C76.764,348.857 68.197,357.424 68.197,367.953 L68.197,425.747 C68.197,436.276 76.764,444.843 87.293,444.843 L145.087,444.843 C155.616,444.843 164.183,436.276 164.183,425.747 L164.183,367.953 C164.183,357.424 155.617,348.857 145.087,348.857 Z M149.18,425.747 C149.18,428.003 147.344,429.839 145.088,429.839 L87.294,429.839 C85.038,429.839 83.202,428.004 83.202,425.747 L83.202,367.953 C83.202,365.697 85.038,363.861 87.294,363.861 L145.088,363.861 C147.344,363.861 149.18,365.696 149.18,367.953 L149.18,425.747 Z" id="形状"></path>
            <path d="M431.253,128.318 L419.347,120.778 C413.165,116.862 405.827,115.591 398.689,117.194 C391.55,118.799 385.463,123.088 381.55,129.271 L370.632,146.523 L355.472,170.478 L338.328,197.569 L338.328,84.961 C338.328,77.206 332.019,70.897 324.264,70.897 L270.508,70.897 L270.508,55.894 L342.474,55.894 C348.461,55.894 353.332,60.764 353.332,66.751 L353.332,131.719 C353.332,135.863 356.691,139.221 360.834,139.221 C364.977,139.221 368.336,135.863 368.336,131.719 L368.336,66.751 C368.336,52.492 356.735,40.89 342.475,40.89 L268.957,40.89 C265.885,33.473 258.576,28.239 250.062,28.239 L230.682,28.239 L230.682,20.684 C230.682,9.28 221.403,0 209.997,0 L158.359,0 C146.953,0 137.674,9.28 137.674,20.685 L137.674,28.24 L118.294,28.24 C109.78,28.24 102.471,33.474 99.4,40.891 L25.881,40.891 C11.621,40.891 0.02,52.492 0.02,66.752 L0.02,486.14 C0.02,500.399 11.621,512.001 25.881,512.001 L342.476,512.001 C356.736,512.001 368.337,500.399 368.337,486.14 L368.337,317.932 C368.337,313.788 364.978,310.43 360.835,310.43 C356.692,310.43 353.333,313.788 353.333,317.932 L353.333,486.139 C353.333,492.126 348.462,496.996 342.475,496.996 L25.881,496.996 C19.894,496.996 15.023,492.126 15.023,486.139 L15.023,66.751 C15.023,60.764 19.894,55.894 25.881,55.894 L97.847,55.894 L97.847,70.898 L44.091,70.898 C36.336,70.898 30.027,77.207 30.027,84.962 L30.027,467.929 C30.027,475.684 36.336,481.993 44.091,481.993 L324.265,481.993 C332.02,481.993 338.329,475.684 338.329,467.929 L338.329,326.357 L413.66,207.32 C413.661,207.318 413.663,207.315 413.664,207.313 L428.819,183.366 L439.744,166.103 C447.817,153.344 444.008,136.394 431.253,128.318 Z M401.979,131.833 C405.208,131.105 408.525,131.682 411.32,133.453 L423.226,140.994 C428.994,144.646 430.716,152.31 427.065,158.079 L420.153,169.001 L387.321,148.21 L394.229,137.295 C395.998,134.498 398.75,132.558 401.979,131.833 L401.979,131.833 Z M259.897,422.239 C258.477,424.481 256.887,426.595 255.146,428.574 C252.791,425.416 250.115,422.557 247.172,420.037 L386.959,199.293 L396.972,205.634 L259.897,422.239 Z M208.67,466.98 C208.618,466.962 208.553,466.927 208.528,466.927 C208.523,466.927 208.52,466.928 208.518,466.932 C224.768,399.444 216.857,432.299 219.116,422.917 C228.862,424.546 237.923,430.025 243.885,438.602 C204.163,470.61 209.234,466.467 208.67,466.98 Z M379.298,160.888 L412.13,181.679 L404.994,192.955 L372.162,172.164 L379.298,160.888 Z M112.85,48.854 C112.855,48.762 112.861,48.67 112.863,48.577 C112.864,48.545 112.86,48.514 112.861,48.482 C112.969,45.576 115.361,43.242 118.294,43.242 L139.785,43.242 C146.894,43.242 152.678,37.458 152.678,30.349 L152.678,20.684 C152.678,17.551 155.227,15.003 158.36,15.003 L209.998,15.003 C213.131,15.003 215.68,17.551 215.68,20.684 L215.68,30.349 C215.68,37.458 221.464,43.242 228.573,43.242 L250.064,43.242 C252.997,43.242 255.389,45.575 255.497,48.482 C255.497,48.514 255.494,48.545 255.495,48.577 C255.497,48.668 255.503,48.76 255.508,48.852 L255.508,70.897 L112.85,70.897 L112.85,48.854 Z M45.03,85.901 L323.325,85.901 L323.325,221.278 L244.809,345.35 C242.593,348.851 243.635,353.486 247.136,355.701 C250.622,357.906 255.262,356.89 257.487,353.373 L364.138,184.842 L374.282,191.265 L234.495,412.01 C230.959,410.427 227.231,409.23 223.369,408.452 C224.415,406.032 225.645,403.69 227.065,401.446 L238.727,383.019 C240.943,379.518 239.901,374.884 236.4,372.668 C232.898,370.453 228.264,371.495 226.049,374.996 L214.388,393.422 C210.535,399.507 207.727,406.14 206.04,413.138 C206.04,413.14 206.039,413.141 206.039,413.143 L193.951,463.294 C193.652,464.533 193.513,465.772 193.516,466.99 L45.03,466.99 L45.03,85.901 Z M323.325,466.989 L232.572,466.989 L258.319,446.242 C263.923,441.726 268.719,436.351 272.573,430.264 L323.325,350.066 L323.325,466.989 Z" id="形状"></path>
        </g>
    </g>
</svg>