<svg id="Capa_1" enable-background="new 0 0 512 512" height="512" viewBox="0 0 512 512" width="512" xmlns="http://www.w3.org/2000/svg"><g><g><circle cx="256" cy="235.812" r="7.607"/></g><g><path d="m122.763 379.79c-7.391 2.354-15.069 3.962-22.821 4.779-19.376 2.041-36.359 13.554-45.427 30.796-9.45 17.968-2.461 40.396 15.628 49.836l13.548 7.071c15.086 7.872 33.604 1.896 41.379-13.001l24.765-47.457c9.471-18.153-7.944-38.121-27.072-32.024zm13.774 25.084-24.765 47.457c-3.996 7.658-13.482 10.639-21.141 6.642l-13.548-7.07c-10.696-5.582-14.889-18.915-9.293-29.556 6.732-12.8 19.339-21.346 33.725-22.862 8.761-.923 17.442-2.741 25.801-5.404 6.668-2.122 12.368 4.764 9.221 10.793z"/><path d="m412.058 384.569c-7.752-.817-15.429-2.425-22.821-4.779-19.134-6.094-36.542 13.873-27.072 32.023l24.765 47.457c7.802 14.95 26.349 20.845 41.379 13.001l13.548-7.07c18.072-9.431 25.089-31.849 15.628-49.836-9.068-17.242-26.051-28.755-45.427-30.796zm22.859 67.335-13.548 7.07c-7.661 3.998-17.144 1.018-21.141-6.642l-24.765-47.457c-2.851-5.463 1.513-11.2 6.711-11.2 3.549 0 10.271 3.911 28.312 5.811 14.385 1.516 26.992 10.062 33.725 22.862 5.592 10.634 1.408 23.971-9.294 29.556z"/><path d="m489.044 399.111c-14.566-27.913-41.956-46.547-73.269-49.846-26.3-2.77-49.306-18.422-61.541-41.868-4.014-7.69-11.731-12.252-20.034-12.452l-149.847-287.149c-3.705-7.103-12.453-9.853-19.558-6.146-17.283 9.018-25.393 29-19.285 47.512l62.187 188.492-29.897 57.292c-8.299.199-16.019 4.759-20.034 12.452-12.235 23.446-35.241 39.097-61.542 41.868-31.313 3.298-58.702 21.932-73.268 49.846-18.476 35.406-4.778 79.012 30.631 97.491l15.529 8.103c31.215 16.292 69.989 4.4 86.462-27.165l3.421-6.554c1.916-3.672.493-8.202-3.18-10.119-3.671-1.917-8.201-.494-10.119 3.179l-3.421 6.555c-12.549 24.05-42.172 33.359-66.225 20.807l-15.529-8.103c-28.053-14.64-38.916-49.194-24.272-77.254 12.234-23.446 35.24-39.097 61.541-41.868 31.313-3.298 58.703-21.932 73.269-49.846 2.092-4.011 7.035-5.565 11.048-3.472l26.947 14.063c4.012 2.093 5.567 7.035 3.472 11.048l-50.51 96.791c-1.916 3.672-.492 8.202 3.18 10.118 3.669 1.915 8.202.494 10.119-3.179l50.51-96.791c2.865-5.491 3.421-11.769 1.564-17.679-.697-2.217-1.702-4.282-2.975-6.148 5.088-9.48 14.884-15.215 25.665-15.024 10.233.187 27.962-2.742 37.497 15.024-4.634 6.791-5.546 15.903-1.411 23.828l70.253 134.624c16.377 31.381 55.042 43.563 86.462 27.166l15.529-8.103c35.406-18.478 49.11-62.083 30.631-97.493zm-276.582-89.326-20.031-10.453 21.82-41.814c4.703 11.771 5.264 24.118 17.546 35.294-7.892 3.512-14.665 9.349-19.335 16.973zm49.165-20.717c-12.571.237-23.688-7.623-27.631-19.576l-74.242-225.03c-3.741-11.339 1.106-23.568 11.536-29.277l148.279 284.146-20.03 10.452c-8.057-13.152-22.334-21.052-37.912-20.715zm189.847 194.236-15.529 8.104c-24.05 12.551-53.673 3.246-66.225-20.807l-70.253-134.624c-2.095-4.012-.542-8.954 3.472-11.048l26.947-14.063c4.027-2.101 8.963-.526 11.048 3.472 14.566 27.914 41.957 46.547 73.268 49.845 26.302 2.771 49.308 18.422 61.542 41.868 14.643 28.052 3.791 62.61-24.27 77.253z"/><path d="m268.716 136.934c3.669 1.914 8.202.494 10.119-3.179l61.875-118.57c10.429 5.709 15.277 17.937 11.536 29.277l-52.008 157.639c-1.298 3.933.839 8.174 4.772 9.472 3.925 1.294 8.171-.831 9.471-4.773l52.009-157.638c6.108-18.512-2.002-38.494-19.285-47.513-7.103-3.706-15.852-.958-19.558 6.145l-62.11 119.021c-1.916 3.673-.492 8.203 3.179 10.119z"/></g></g></svg>