<svg id="Capa_1" enable-background="new 0 0 512.002 512.002" height="512" viewBox="0 0 512.002 512.002" width="512" xmlns="http://www.w3.org/2000/svg"><path d="m380.501 374.002h-5.5v-13.5c0-20.678-16.822-37.5-37.5-37.5h-15.884v-57.389c0-36.019 9.773-72.414 28.264-105.252 9.014-16.007 13.778-34.23 13.778-52.701 0-29.841-11.929-57.588-33.589-78.129-21.647-20.528-50.035-30.963-79.925-29.373-24.604 1.305-48.253 11.242-66.592 27.982-3.059 2.793-3.275 7.536-.482 10.596 2.792 3.06 7.535 3.275 10.596.482 15.783-14.408 36.123-22.96 57.273-24.082 25.735-1.366 50.179 7.61 68.81 25.279 18.643 17.68 28.91 41.561 28.91 67.244 0 15.897-4.097 31.576-11.849 45.342-14.187 25.195-23.57 52.381-27.731 80h-106.072c-4.051-28.177-13.228-54.962-27.122-78.788-8.756-15.016-13.075-32.213-12.49-49.731.467-13.975 4.012-27.344 10.535-39.737 1.929-3.665.522-8.2-3.143-10.13-3.665-1.931-8.2-.521-10.13 3.144-7.587 14.414-11.71 29.966-12.253 46.224-.68 20.345 4.342 40.328 14.523 57.788 17.962 30.802 27.457 66.991 27.457 104.653v56.578h-15.884c-20.678 0-37.5 16.822-37.5 37.5v13.5h-5.5c-11.365 0-22.625 2.843-32.561 8.221-3.643 1.972-4.998 6.522-3.026 10.166 1.971 3.642 6.521 4.997 10.166 3.025 7.751-4.194 16.542-6.412 25.421-6.412h249c27.299 0 49.872 20.556 53.091 47h-355.189c.822-6.731 2.907-13.27 6.16-19.197 1.993-3.631.665-8.19-2.966-10.184-3.632-1.992-8.191-.664-10.183 2.967-5.504 10.028-8.413 21.409-8.413 32.914v16c0 11.902 9.291 21.669 21 22.444v18.556c0 6.893 5.607 12.5 12.5 12.5h319c6.893 0 12.5-5.607 12.5-12.5v-18.556c11.709-.775 21-10.543 21-22.444v-16c0-37.771-30.728-68.5-68.5-68.5zm-73.16-126c-.408 4.998-.641 10.001-.701 15h-21.32c-4.143 0-7.5 3.357-7.5 7.5s3.357 7.5 7.5 7.5h21.297v15h-101.232v-15h44.893c4.142 0 7.5-3.357 7.5-7.5s-3.358-7.5-7.5-7.5h-44.92c-.072-5.028-.303-10.031-.691-15zm-101.956 60h101.232v15h-101.232zm-53.384 52.5c0-12.406 10.093-22.5 22.5-22.5h163c12.406 0 22.5 10.094 22.5 22.5v13.5h-208zm274.5 105.5h-49.245c-4.143 0-7.5 3.357-7.5 7.5s3.357 7.5 7.5 7.5h35.745v16h-314v-16h243.191c4.143 0 7.5-3.357 7.5-7.5s-3.357-7.5-7.5-7.5h-256.691c-4.136 0-7.5-3.364-7.5-7.5v-7.5h356v7.5c0 4.136-3.364 7.5-7.5 7.5z"/></svg>