<?xml version="1.0" encoding="UTF-8"?>
<svg width="468px" height="512px" viewBox="0 0 468 512" version="1.1" xmlns="http://www.w3.org/2000/svg" xmlns:xlink="http://www.w3.org/1999/xlink">
    <title>画板</title>
    <g id="画板" stroke="none" stroke-width="1" fill="none" fill-rule="evenodd">
        <g id="illustration-03" fill="#878787" fill-rule="nonzero">
            <path d="M234.022,342.037 C321.16,342.037 394.217,276.833 403.958,190.366 C404.432,186.164 401.409,182.373 397.206,181.9 C393.009,181.427 389.213,184.449 388.74,188.652 C385.512,217.303 374.641,243.384 358.301,264.977 C352.636,256.552 344.655,249.762 335.296,245.643 C319.407,238.649 290.737,234.305 275.062,232.339 C274.139,232.223 273.441,231.438 273.437,230.512 L273.348,209.385 C274.853,208.259 276.336,207.076 277.789,205.814 C289.092,195.999 296.359,182.071 298.319,166.824 C302.046,166.184 305.474,164.408 308.19,161.67 C311.637,158.194 313.524,153.584 313.503,148.69 L313.453,136.868 C313.431,131.733 311.287,126.961 307.648,123.567 L307.525,94.434 C307.405,65.795 284.228,42.075 254.951,42.075 C254.876,42.075 254.798,42.075 254.724,42.075 L208.393,42.269 C197.066,42.317 186.962,49.448 183.106,60.063 C168.296,60.332 156.361,72.495 156.423,87.355 L156.579,124.203 C152.967,127.628 150.864,132.419 150.887,137.553 L150.937,149.375 C150.976,158.57 157.723,165.986 166.273,167.382 C168.362,182.611 175.746,196.477 187.132,206.197 C188.595,207.446 190.088,208.617 191.602,209.73 L191.691,230.857 C191.695,231.783 191.003,232.575 190.082,232.698 C174.421,234.798 145.787,239.384 129.962,246.509 C121.518,250.311 114.283,256.181 108.845,263.51 C89.673,237.631 78.318,205.628 78.318,171.021 C78.318,85.165 148.167,15.316 234.023,15.316 C313.564,15.316 380.511,75.405 388.859,154.47 C389.304,158.675 393.069,161.709 397.279,161.28 C401.484,160.835 404.533,157.067 404.089,152.86 C394.942,66.249 321.649,-2.84217094e-14 234.022,-2.84217094e-14 C139.722,-2.84217094e-14 63.003,76.718 63.003,171.019 C63.003,265.337 139.754,342.037 234.022,342.037 Z M220.848,326.16 L225.743,305.072 L239.985,305.012 L245.125,326.333 C236.886,326.913 228.905,326.839 220.848,326.16 L220.848,326.16 Z M241.419,289.692 L224.191,289.765 L219.64,281.415 L232.741,274.668 L245.902,281.338 L241.419,289.692 Z M206.95,218.344 C214.94,221.575 223.456,223.25 232.447,223.312 L232.5,223.312 C232.539,223.312 232.579,223.312 232.618,223.311 C241.607,223.173 250.109,221.426 258.071,218.129 L258.123,230.574 C258.136,233.781 259.046,236.806 260.622,239.394 L232.675,257.038 L204.579,239.63 C206.133,237.029 207.017,233.997 207.004,230.79 L206.95,218.344 Z M329.126,259.657 C337.201,263.211 343.848,269.544 347.875,277.365 C325.076,301.746 294.566,318.663 260.432,324.486 L254.137,298.375 L260.158,287.154 C261.335,287.327 262.517,287.423 263.697,287.423 C270.431,287.423 277.063,284.627 281.777,279.376 L305.607,252.839 C314.453,254.705 323.057,256.986 329.126,259.657 Z M275.866,247.881 C279.188,248.318 283.343,248.9 287.917,249.622 L270.384,269.147 C267.712,272.121 263.378,272.954 259.796,271.207 C259.791,271.204 259.786,271.201 259.781,271.198 C259.714,271.165 259.648,271.135 259.581,271.104 L248.21,265.341 L275.866,247.881 Z M183.552,75.37 C189.825,75.343 195.403,71.365 197.432,65.473 C199.051,60.773 203.482,57.601 208.456,57.58 L254.786,57.386 L254.949,57.386 C275.462,57.386 292.124,73.939 292.211,94.495 L292.323,120.804 C289.012,121.641 285.14,123.17 281.68,125.956 C281.607,125.955 281.532,125.953 281.457,125.951 L281.368,104.927 C281.312,91.694 270.642,80.519 256.777,80.549 L256.583,80.55 C247.34,80.586 243.144,84.389 232.986,84.43 L230.907,84.439 C230.857,84.439 230.808,84.439 230.758,84.439 C220.259,84.439 217.292,80.808 207.275,80.757 L207.079,80.758 C193.58,80.815 182.643,91.844 182.7,105.344 L182.774,122.676 C179.105,121.56 175.23,120.972 171.878,120.669 L171.73589,87.288 C171.708,80.743 177.009,75.397 183.552,75.37 L183.552,75.37 Z M180.992,159.749 C180.885,155.597 177.489,152.289 173.339,152.289 C173.328,152.289 173.317,152.289 173.306,152.289 L169.272,152.306 C169.267,152.306 169.263,152.306 169.259,152.306 C167.604,152.306 166.255,150.964 166.248,149.308 L166.197972,137.486 C166.195,136.767 166.437,136.174 166.781,135.71 C172.872,135.918 180.092,137.204 181.844,138.918 C187.897,144.836 198.161,140.565 198.126,132.04 L198.012,105.28 C197.991,100.224 202.087,96.094 207.147,96.073 L207.344,96.072 C213.854,96.102 218.722,99.857 230.97,99.754 L233.049,99.745 C245.505,99.693 250.334,95.89 256.649,95.864 L256.846,95.864 L256.887,95.864 C259.32,95.864 261.611,96.807 263.34,98.522 C265.08,100.246 266.043,102.544 266.053,104.992 L266.166,131.753 C266.207,142.605 285.745,143.326 290.64,138.459 C292.564,136.546 295.507,135.676 297.655,135.324 C297.94,135.76 298.136,136.296 298.138,136.932 L298.18805,148.753 C298.208,153.063 292.244,151.49 291.155,151.793 C286.99,151.811 283.603,155.154 283.531,159.318 C283.296,173.012 277.542,185.744 267.746,194.251 C257.583,203.078 245.678,207.778 232.467,208.001 C219.034,207.888 207.133,203.138 197.072,194.55 C187.205,186.123 181.344,173.44 180.992,159.749 L180.992,159.749 Z M189.407,248.245 L217.183,265.454 L205.862,271.285 C205.796,271.316 205.726,271.349 205.673,271.376 C205.67,271.377 205.668,271.379 205.665,271.381 C202.106,273.148 197.77,272.352 195.079,269.412 L177.389,250.085 C181.949,249.326 186.092,248.709 189.407,248.245 L189.407,248.245 Z M136.247,260.471 C142.293,257.748 150.88,255.394 159.712,253.455 L183.781,279.751 C188.488,284.894 195.053,287.623 201.711,287.623 C202.949,287.623 204.189,287.519 205.422,287.328 L211.537,298.547 L205.602,324.115 C171.588,317.816 141.417,300.43 118.997,275.853 C123.03,269.102 129.019,263.725 136.247,260.471 L136.247,260.471 Z" id="形状"></path>
            <path d="M420.405,374.036 L302.635,425.891 L302.639,425.534 C302.643,425.25 302.631,424.965 302.602,424.682 C300.542,403.964 284.705,387.455 264.089,384.539 C264.023,384.529 263.957,384.521 263.892,384.513 L185.588,375.497 C149.938,370.416 133.944,338.362 70.763,338.362 L65.882,338.362 L65.882,330.441 C65.882,318.776 56.393,309.287 44.728,309.287 L21.801,309.287 C10.136,309.287 0.647,318.776 0.647,330.441 L0.647,476.854 C0.647,488.519 10.136,498.009 21.801,498.009 L44.728,498.009 C55.975,498.009 65.173,489.18 65.819,478.092 C137.997,503.51 147.166,512 172.339,512 L277.956,512 C294.146,512 309.933,507.439 323.626,498.807 L455.701,424.293 C464.87,419.109 473.093,399.136 462.047,382.903 C452.861,369.4 437.301,366.087 420.405,374.036 L420.405,374.036 Z M447.394,411.397 L315.935,485.563 C315.821,485.627 315.71,485.695 315.599,485.764 C304.323,492.909 291.306,496.686 277.957,496.686 L172.339,496.686 C151.219,496.686 145.093,489.977 65.882,461.775 L65.882,406.243 C65.882,402.014 62.454,398.586 58.225,398.586 C53.996,398.586 50.568,402.014 50.568,406.243 L50.568,476.854 C50.568,480.075 47.948,482.695 44.728,482.695 L21.801,482.695 C18.581,482.695 15.961,480.075 15.961,476.854 L15.961,330.441 C15.961,327.221 18.581,324.601 21.801,324.601 L44.728,324.601 C47.948,324.601 50.568,327.221 50.568,330.441 L50.568,370.448 C50.568,374.677 53.996,378.105 58.225,378.105 C62.454,378.105 65.882,374.677 65.882,370.448 L65.882,353.676 L70.763,353.676 C130.685,353.676 141.868,384.776 183.538,390.673 C183.604,390.683 183.67,390.691 183.735,390.699 L262.036,399.715 C275.465,401.656 285.802,412.34 287.321,425.796 L287.269,430.036 L232.998,430.036 C220.444,430.036 207.781,429.116 195.364,427.302 L181.81,425.323 C177.629,424.714 173.737,427.608 173.127,431.792 C172.516,435.976 175.412,439.865 179.596,440.475 L193.15,442.454 C206.298,444.375 219.705,445.349 232.998,445.349 L294.831,445.349 C295.808,445.349 296.92,445.133 297.889,444.71 C298.632,444.386 426.563,388.056 426.668,388.01 C435.611,384.036 443.837,383.36 449.387,391.516 C453.633,397.758 452.747,406.171 447.394,411.397 L447.394,411.397 Z" id="形状"></path>
        </g>
    </g>
</svg>