<?xml version="1.0" encoding="UTF-8"?>
<svg width="512px" height="512px" viewBox="0 0 512 512" version="1.1" xmlns="http://www.w3.org/2000/svg" xmlns:xlink="http://www.w3.org/1999/xlink">
    <title>画板</title>
    <g id="画板" stroke="none" stroke-width="1" fill="none" fill-rule="evenodd">
        <g id="stationery-(1)" transform="translate(0.000000, -1.000000)" fill="#000000" fill-rule="nonzero">
            <path d="M496.196267,2.97973333 C486.641299,-1.09241865 475.566795,1.11299652 468.3008,8.53493333 L7.5008,469.334933 C0.205905152,476.659548 -1.96777865,487.652817 1.99058057,497.202522 C5.94893978,506.752227 15.2624366,512.984051 25.6,513 L486.4,513 C500.538489,513 512.000972,501.538489 512.000972,487.4 L512.000972,26.6 C512.090736,16.2257912 505.820317,6.8540201 496.196267,2.97973333 Z M494.933683,487.4 C494.933683,492.112829 491.112829,495.933333 486.4,495.933333 L460.8,495.933333 L460.8,478.866667 C460.8,474.153837 456.979496,470.333333 452.266667,470.333333 C447.553837,470.333333 443.733333,474.153837 443.733333,478.866667 L443.733333,495.933333 L409.6,495.933333 L409.6,478.866667 C409.6,474.153837 405.779496,470.333333 401.066667,470.333333 C396.353837,470.333333 392.533333,474.153837 392.533333,478.866667 L392.533333,495.933333 L358.4,495.933333 L358.4,478.866667 C358.4,474.153837 354.579496,470.333333 349.866667,470.333333 C345.153837,470.333333 341.333333,474.153837 341.333333,478.866667 L341.333333,495.933333 L307.2,495.933333 L307.2,478.866667 C307.2,474.153837 303.379496,470.333333 298.666667,470.333333 C293.953837,470.333333 290.133333,474.153837 290.133333,478.866667 L290.133333,495.933333 L256,495.933333 L256,478.866667 C256,474.153837 252.179496,470.333333 247.466667,470.333333 C242.753837,470.333333 238.933333,474.153837 238.933333,478.866667 L238.933333,495.933333 L204.8,495.933333 L204.8,478.866667 C204.8,474.153837 200.979496,470.333333 196.266667,470.333333 C191.553837,470.333333 187.733333,474.153837 187.733333,478.866667 L187.733333,495.933333 L153.6,495.933333 L153.6,478.866667 C153.6,474.153837 149.779496,470.333333 145.066667,470.333333 C140.353837,470.333333 136.533333,474.153837 136.533333,478.866667 L136.533333,495.933333 L102.4,495.933333 L102.4,478.866667 C102.4,474.153837 98.5794961,470.333333 93.8666667,470.333333 C89.1538372,470.333333 85.3333333,474.153837 85.3333333,478.866667 L85.3333333,495.933333 L25.6,495.933333 C22.1600157,495.908607 19.0712739,493.820733 17.7660634,490.637883 C16.4608528,487.455034 17.1944461,483.799711 19.6266667,481.366933 L39.1509333,461.8 L53.7002667,476.306667 C55.8427688,478.524963 59.0154913,479.414614 61.9989958,478.633683 C64.9825004,477.852751 67.312484,475.522767 68.0934158,472.539262 C68.8743475,469.555758 67.9846961,466.383036 65.7664,464.240533 L51.2,449.750933 L73.2842667,427.666667 L87.8336,442.173333 C91.1818999,445.407229 96.5041903,445.36098 99.7957854,442.069385 C103.08738,438.77779 103.133629,433.4555 99.8997333,430.1072 L85.3930667,415.600533 L107.4176,393.533333 L121.966933,408.04 C125.315233,411.273896 130.637524,411.227647 133.929119,407.936052 C137.220714,404.644457 137.266963,399.322167 134.033067,395.973867 L119.5264,381.4672 L141.550933,359.4 L156.0576,373.906667 C159.4059,377.140563 164.72819,377.094314 168.019785,373.802719 C171.31138,370.511124 171.357629,365.188833 168.123733,361.840533 L153.6,347.350933 L175.684267,325.266667 L190.190933,339.773333 C193.539233,343.007229 198.861524,342.96098 202.153119,339.669385 C205.444714,336.37779 205.490963,331.0555 202.257067,327.7072 L187.733333,313.2176 L209.8176,291.133333 L224.324267,305.64 C227.672567,308.873896 232.994857,308.827647 236.286452,305.536052 C239.578047,302.244457 239.624296,296.922167 236.3904,293.573867 L221.866667,279.084267 L243.950933,257 L258.4576,271.549333 C261.8059,274.783229 267.12819,274.73698 270.419785,271.445385 C273.71138,268.15379 273.757629,262.8315 270.523733,259.4832 L256,244.950933 L278.084267,222.866667 L292.590933,237.416 C295.939233,240.649896 301.261524,240.603647 304.553119,237.312052 C307.844714,234.020457 307.890963,228.698167 304.657067,225.349867 L290.1504,210.8432 L312.2176,188.733333 L326.724267,203.282667 C330.072567,206.516563 335.394857,206.470314 338.686452,203.178719 C341.978047,199.887124 342.024296,194.564833 338.7904,191.216533 L324.283733,176.709867 L346.350933,154.6 L360.8576,169.149333 C364.2059,172.383229 369.52819,172.33698 372.819785,169.045385 C376.11138,165.75379 376.157629,160.4315 372.923733,157.0832 L358.417067,142.576533 L380.484267,120.466667 L394.990933,135.016 C398.339233,138.249896 403.661524,138.203647 406.953119,134.912052 C410.244714,131.620457 410.290963,126.298167 407.057067,122.949867 L392.5504,108.4432 L414.6176,86.3333333 L429.124267,100.882667 C432.472567,104.116563 437.794857,104.070314 441.086452,100.778719 C444.378047,97.4871236 444.424296,92.1648333 441.1904,88.8165333 L426.666667,74.2842667 L448.750933,52.2 L463.2576,66.7493333 C466.6059,69.9832295 471.92819,69.9369802 475.219785,66.6453852 C478.51138,63.3537901 478.557629,58.0314999 475.323733,54.6832 L460.8,40.1509333 L480.366933,20.6266667 C481.890413,18.9998271 484.0176,18.0736213 486.2464,18.0666667 C487.416514,18.0740696 488.574662,18.3028037 489.659733,18.7408 C492.870387,20.0220146 494.964796,23.1432934 494.933683,26.6 L494.933683,487.4 Z" id="Shape"></path>
            <path d="M416.136533,196.2768 C409.757396,193.634574 402.414687,195.09638 397.533867,199.980267 L198.980267,398.533867 C194.100772,403.414835 192.641333,410.754225 195.282295,417.130638 C197.923259,423.507051 204.14471,427.666667 211.0464,427.666667 L409.6,427.666667 C419.02566,427.666667 426.666711,420.02566 426.666711,410.6 L426.666711,212.0464 C426.682299,205.13994 422.52169,198.90914 416.136533,196.2768 L416.136533,196.2768 Z M409.6,410.6 L211.003733,410.659733 L211.003733,410.6 L409.6,212.0464 L409.6,410.6 Z" id="Shape"></path>
        </g>
    </g>
</svg>