<?xml version="1.0" encoding="UTF-8"?>
<svg width="512px" height="486px" viewBox="0 0 512 486" version="1.1" xmlns="http://www.w3.org/2000/svg" xmlns:xlink="http://www.w3.org/1999/xlink">
    <title>画板</title>
    <g id="画板" stroke="none" stroke-width="1" fill="none" fill-rule="evenodd">
        <g id="illustration-05" fill="#878787" fill-rule="nonzero">
            <path d="M307.039,160.619 L428.961,160.619 C433.107,160.619 436.467,157.259 436.467,153.113 C436.467,148.968 433.107,145.607 428.961,145.607 L307.039,145.607 C302.893,145.607 299.533,148.967 299.533,153.113 C299.533,157.259 302.893,160.619 307.039,160.619 Z" id="路径"></path>
            <path d="M307.039,196.782 L428.961,196.782 C433.107,196.782 436.467,193.422 436.467,189.276 C436.467,185.131 433.107,181.77 428.961,181.77 L307.039,181.77 C302.893,181.77 299.533,185.13 299.533,189.276 C299.533,193.422 302.893,196.782 307.039,196.782 Z" id="路径"></path>
            <path d="M307.039,232.945 L428.961,232.945 C433.107,232.945 436.467,229.585 436.467,225.439 C436.467,221.293 433.107,217.933 428.961,217.933 L307.039,217.933 C302.893,217.933 299.533,221.293 299.533,225.439 C299.533,229.585 302.893,232.945 307.039,232.945 Z" id="路径"></path>
            <path d="M307.039,269.107 L368,269.107 C372.146,269.107 375.506,265.747 375.506,261.601 C375.506,257.456 372.146,254.095 368,254.095 L307.039,254.095 C302.893,254.095 299.533,257.455 299.533,261.601 C299.533,265.746 302.893,269.107 307.039,269.107 L307.039,269.107 Z" id="路径"></path>
            <path d="M477.049,34.315 L338.468,34.315 L335.223,22.17 C331.83,9.478 320.286,0.613 307.148,0.613 L204.852,0.613 C191.714,0.613 180.17,9.478 176.777,22.17 L173.532,34.315 L34.951,34.315 C15.679,34.315 0,49.994 0,69.266 L0,343.812 C0,363.084 15.679,378.763 34.951,378.763 L143.833,378.763 L111.436,454.744 C105.254,469.235 115.882,485.388 131.681,485.388 L149.682,485.388 C159.165,485.388 167.695,479.751 171.414,471.029 L187.868,432.441 L324.133,432.441 L340.587,471.029 C344.307,479.752 352.836,485.388 362.319,485.388 L380.32,485.388 C396.075,485.388 406.763,469.278 400.566,454.745 L390.544,431.241 C388.918,427.429 384.511,425.655 380.696,427.281 C376.883,428.907 375.11,433.316 376.735,437.129 L386.758,460.633 C388.718,465.229 385.375,470.376 380.321,470.376 L362.32,470.376 C358.862,470.376 355.753,468.321 354.397,465.141 L317.566,378.764 L351.849,378.764 L362.958,404.816 C364.584,408.629 368.995,410.402 372.806,408.776 C376.619,407.15 378.392,402.741 376.767,398.928 L368.169,378.764 L477.051,378.764 C496.323,378.764 512.002,363.085 512.002,343.813 L512.002,69.266 C512.002,49.994 496.321,34.315 477.049,34.315 L477.049,34.315 Z M191.28,26.046 C192.92,19.91 198.5,15.625 204.852,15.625 L307.148,15.625 C313.499,15.625 319.08,19.91 320.72,26.046 L322.93,34.316 L189.071,34.316 L191.28,26.046 Z M157.604,465.141 C156.248,468.321 153.139,470.376 149.681,470.376 L131.68,470.376 C126.684,470.376 123.259,465.282 125.243,460.633 L160.152,378.764 L194.435,378.764 L157.604,465.141 Z M317.731,417.429 L194.269,417.429 L210.756,378.764 L301.245,378.764 L317.731,417.429 Z M496.989,343.812 C496.989,354.807 488.044,363.752 477.049,363.752 C426.875,363.752 80.048,363.752 34.951,363.752 C23.956,363.752 15.011,354.807 15.011,343.812 L15.011,69.266 C15.011,58.271 23.956,49.326 34.951,49.326 L332.676,49.326 C332.684,49.326 332.692,49.326 332.7,49.326 C332.71,49.326 332.72,49.326 332.73,49.326 L477.049,49.326 C488.044,49.326 496.989,58.271 496.989,69.266 L496.989,343.812 Z" id="形状"></path>
            <path d="M463.382,67.34 L48.618,67.34 C40.02,67.34 33.025,74.335 33.025,82.933 L33.025,189.002 C33.025,193.147 36.385,196.508 40.531,196.508 C44.677,196.508 48.037,193.148 48.037,189.002 L48.037,82.933 C48.037,82.612 48.298,82.352 48.618,82.352 L463.382,82.352 C463.703,82.352 463.963,82.613 463.963,82.933 L463.963,330.146 C463.963,330.467 463.702,330.727 463.382,330.727 L48.618,330.727 C48.297,330.727 48.037,330.466 48.037,330.146 L48.037,224.088 C48.037,219.943 44.677,216.582 40.531,216.582 C36.385,216.582 33.025,219.942 33.025,224.088 L33.025,330.146 C33.025,338.744 40.02,345.739 48.618,345.739 L463.382,345.739 C471.98,345.739 478.975,338.744 478.975,330.146 L478.975,82.933 C478.975,74.335 471.981,67.34 463.382,67.34 Z" id="路径"></path>
            <path d="M251.058,201.28 C257.432,201.28 262.574,195.934 262.235,189.537 C260.095,148.963 227.884,116.754 187.311,114.613 C184.271,114.46 181.271,115.564 179.063,117.659 C176.843,119.766 175.568,122.73 175.568,125.791 L175.568,190.094 C175.568,196.262 180.586,201.281 186.755,201.281 L251.058,201.281 L251.058,201.28 Z M190.579,129.944 C220.189,133.362 243.485,156.658 246.904,186.268 L190.579,186.268 L190.579,129.944 Z" id="形状"></path>
            <path d="M161.34,143.295 C158.848,140.973 155.465,139.787 152.074,140.021 C109.821,143.017 77.506,178.588 78.505,221 C78.984,241.351 87.246,260.557 101.769,275.08 C116.292,289.603 135.498,297.865 155.848,298.344 C156.489,298.359 157.128,298.366 157.766,298.366 C178.285,298.366 197.656,290.594 212.525,276.364 C212.573,276.32 212.625,276.281 212.672,276.236 C226.871,262.588 235.451,244.298 236.831,224.738 C237.332,217.639 231.672,211.587 224.546,211.587 L165.262,211.587 L165.262,152.305 C165.262,148.901 163.832,145.616 161.34,143.295 L161.34,143.295 Z M156.201,283.336 C139.726,282.949 124.164,276.246 112.383,264.465 C100.602,252.683 93.9,237.122 93.512,220.646 C92.725,187.232 117.431,159.057 150.25,155.263 L150.25,219.092 C150.25,220.923 150.97,222.864 152.343,224.293 L196.557,270.301 C185.012,279.096 170.923,283.679 156.201,283.336 L156.201,283.336 Z M207.379,259.898 L194.004,245.981 L175.378,226.599 L221.583,226.599 C220.153,238.857 215.215,250.389 207.379,259.898 L207.379,259.898 Z" id="形状"></path>
        </g>
    </g>
</svg>