<?xml version="1.0" encoding="UTF-8"?>
<svg width="128px" height="128px" viewBox="0 0 128 128" version="1.1" xmlns="http://www.w3.org/2000/svg" xmlns:xlink="http://www.w3.org/1999/xlink">
    <title>煎-Icon</title>
    <defs>
        <polygon id="path-1" points="0.114117999 0.0269879518 70.4915289 0.0269879518 70.4915289 127.973012 0.114117999 127.973012"></polygon>
    </defs>
    <g id="煎-Icon" stroke="none" stroke-width="1" fill="none" fill-rule="evenodd">
        <g id="编组" transform="translate(28.530120, 0.000000)">
            <mask id="mask-2" fill="white">
                <use xlink:href="#path-1"></use>
            </mask>
            <g id="Clip-37"></g>
            <polygon id="Fill-36" fill="#F5B1AB" mask="url(#mask-2)" points="28.3755952 58.5083373 42.2713831 58.5083373 42.2713831 53.2224925 28.3755952 53.2224925"></polygon>
            <path d="M42.4936867,58.7304096 L28.1532916,58.7304096 L28.1532916,53.0004819 L42.4936867,53.0004819 L42.4936867,58.7304096 Z M28.5982072,58.2862651 L42.0490795,58.2862651 L42.0490795,53.4430843 L28.5982072,53.4430843 L28.5982072,58.2862651 L28.5982072,58.2862651 L28.5982072,58.2862651 Z" id="Fill-38" fill="#3E1313" mask="url(#mask-2)"></path>
            <polygon id="Fill-39" fill="#FBDFDA" mask="url(#mask-2)" points="28.5214072 58.8352771 35.129839 58.8352771 35.129839 53.5217195 28.5214072 53.5217195"></polygon>
            <path d="M70.2712289,92.7838072 C70.2712289,93.3559518 70.2573494,93.9280964 70.2295904,94.500241 C70.2010602,95.0716145 70.1594217,95.6422169 70.1023614,96.2120482 C70.0468434,96.7811084 69.9766747,97.3486265 69.8926265,97.9153735 C69.8085783,98.4813494 69.7106506,99.045012 69.5996145,99.6063614 C69.4878072,100.167711 69.3621205,100.725976 69.2233253,101.280386 C69.0845301,101.835566 68.9318554,102.387663 68.7653012,102.935133 C68.5995181,103.482602 68.4198554,104.026217 68.2270843,104.564434 C68.0343133,105.103422 67.8284337,105.637012 67.6094458,106.165976 C67.3904578,106.69494 67.1583614,107.217735 66.9139277,107.735133 C66.669494,108.25253 66.4119518,108.762988 66.1420723,109.268048 C65.8729639,109.773108 65.590747,110.270458 65.2961928,110.761639 C65.0024096,111.252048 64.6955181,111.735518 64.3778313,112.211277 C64.0601446,112.687036 63.7308916,113.155084 63.3900723,113.614651 C63.0484819,114.074217 62.6968675,114.525301 62.3336867,114.967904 C61.970506,115.410506 61.5973012,115.843084 61.2125301,116.267181 C60.8285301,116.691277 60.4337349,117.105349 60.0289157,117.510169 C59.6248675,117.914988 59.2102554,118.309783 58.786159,118.693783 C58.3620627,119.078554 57.9289446,119.451759 57.4864193,119.81494 C57.0442795,120.17812 56.593041,120.529735 56.1333976,120.870554 C55.6738313,121.211373 55.2060145,121.541398 54.7301012,121.859084 C54.2544964,122.176771 53.7711036,122.482892 53.2801542,122.777446 C52.7894361,123.072 52.291547,123.353446 51.7867181,123.623325 C51.2821976,123.893205 50.7711229,124.149976 50.2538795,124.395181 C49.7364819,124.639614 49.2132241,124.871711 48.6846458,125.090699 C48.1559904,125.309687 47.6223229,125.515566 47.083412,125.708337 C46.5445783,125.901108 46.0011952,126.080771 45.4536482,126.246554 C44.9060241,126.413108 44.3545446,126.565012 43.7993639,126.704578 C43.2442602,126.843373 42.6861494,126.96906 42.1250313,127.080096 C41.5635277,127.191904 41.0000193,127.289831 40.4337349,127.37388 C39.867759,127.457928 39.3000096,127.528096 38.7304096,127.584386 C38.1608096,127.639904 37.5903614,127.682313 37.0186795,127.710072 C36.4469976,127.738602 35.8753157,127.752482 35.3030169,127.752482 C34.7307181,127.752482 34.1587277,127.738602 33.5870458,127.710072 C33.0153639,127.682313 32.4449157,127.639904 31.8753157,127.584386 C31.3057157,127.528096 30.7379663,127.457928 30.1719904,127.37388 C29.6060145,127.289831 29.0421976,127.191904 28.4810024,127.080096 C27.9195759,126.96906 27.3614651,126.843373 26.8063614,126.704578 C26.2511807,126.565012 25.6997012,126.413108 25.1520771,126.246554 C24.6045301,126.080771 24.061147,125.901108 23.5223133,125.708337 C22.9834024,125.515566 22.4497349,125.309687 21.9210795,125.090699 C21.3925012,124.871711 20.8692434,124.639614 20.3520771,124.395181 C19.8346024,124.149976 19.3235277,123.893205 18.8190072,123.623325 C18.3141783,123.353446 17.8165976,123.072 17.3255711,122.777446 C16.8346217,122.482892 16.3512289,122.176771 15.8756241,121.859084 C15.3997108,121.541398 14.931894,121.211373 14.4723277,120.870554 C14.0126843,120.529735 13.5614458,120.17812 13.119306,119.81494 C12.6767807,119.451759 12.2436627,119.078554 11.8195663,118.693783 C11.3954699,118.309783 10.9813205,117.914988 10.5765012,117.510169 C10.1719904,117.105349 9.77742651,116.691277 9.39304096,116.267181 C9.00873253,115.843084 8.63491084,115.410506 8.27196145,114.967904 C7.90901205,114.525301 7.55693494,114.074217 7.21596145,113.614651 C6.87498795,113.155084 6.54581205,112.687036 6.22773976,112.211277 C5.9099759,111.735518 5.6036241,111.252048 5.30960964,110.761639 C5.01536386,110.270458 4.73345542,109.773108 4.4635759,109.268048 C4.19369639,108.762988 3.93646265,108.25253 3.6918747,107.735133 C3.44728675,107.217735 3.21534458,106.69494 2.99635663,106.165976 C2.77744578,105.637012 2.57141205,105.103422 2.37864096,104.564434 C2.18586988,104.026217 2.00636145,103.482602 1.84034699,102.935133 C1.6741012,102.387663 1.52165783,101.835566 1.38255422,101.280386 C1.24337349,100.725976 1.11807229,100.167711 1.00634217,99.6063614 C0.894843373,99.045012 0.796992771,98.4813494 0.712944578,97.9153735 C0.628896386,97.3486265 0.559036145,96.7811084 0.502978313,96.2120482 C0.446689157,95.6422169 0.404819277,95.0716145 0.376828916,94.500241 C0.34853012,93.9280964 0.334650602,93.3559518 0.334650602,92.7838072 C0.334650602,92.2116627 0.34853012,91.6395181 0.376828916,91.0681446 C0.404819277,90.4967711 0.446689157,89.9261687 0.502978313,89.3563373 C0.559036145,88.7872771 0.628896386,88.218988 0.712944578,87.653012 C0.796992771,87.0870361 0.894843373,86.5233735 1.00634217,85.9620241 C1.11807229,85.4006747 1.24337349,84.8424096 1.38255422,84.2872289 C1.52165783,83.7320482 1.6741012,83.1807229 1.84034699,82.633253 C2.00636145,82.0857831 2.18586988,81.5421687 2.37864096,81.0039518 C2.57141205,80.4649639 2.77744578,79.9313735 2.99635663,79.4024096 C3.21534458,78.8734458 3.44728675,78.3506506 3.6918747,77.833253 C3.93646265,77.3158554 4.19369639,76.8046265 4.4635759,76.3003373 C4.73345542,75.7952771 5.01536386,75.2979277 5.30960964,74.806747 C5.6036241,74.3163373 5.9099759,73.8328675 6.22773976,73.3563373 C6.54581205,72.8813494 6.87498795,72.4133012 7.21596145,71.9537349 C7.55693494,71.4933976 7.90901205,71.0430843 8.27196145,70.6004819 C8.63491084,70.1578795 9.00873253,69.7245301 9.39304096,69.3012048 C9.77742651,68.8771084 10.1719904,68.4622651 10.5765012,68.0574458 C10.9813205,67.6526265 11.3954699,67.2586024 11.8195663,66.8746024 C12.2436627,66.4898313 12.6767807,66.1166265 13.119306,65.7534458 C13.5614458,65.3902651 14.0126843,65.0378795 14.4723277,64.6970602 C14.931894,64.356241 15.3997108,64.026988 15.8756241,63.7093012 C16.3512289,63.3908434 16.8346217,63.0847229 17.3255711,62.7909398 C17.8165976,62.4963855 18.3141783,62.2141687 18.8190072,61.9450602 C19.3235277,61.6751807 19.8346024,61.4176386 20.3520771,61.1732048 C20.8692434,60.928 21.3925012,60.6966747 21.9210795,60.4776867 C22.4497349,60.2586988 22.9834024,60.0528193 23.5223133,59.8600482 C24.061147,59.6672771 24.6045301,59.4876145 25.1520771,59.3210602 C25.6997012,59.1552771 26.2511807,59.0026024 26.8063614,58.8638072 C27.3614651,58.725012 27.9195759,58.5993253 28.4810024,58.4875181 C29.0421976,58.3757108 29.6060145,58.2785542 30.1719904,58.194506 C30.7379663,58.1104578 31.3057157,58.0402892 31.8753157,57.984 C32.4449157,57.9277108 33.0153639,57.8860723 33.5870458,57.8575422 C34.1587277,57.8297831 34.7307181,57.8159036 35.3030169,57.8159036 C35.8753157,57.8159036 36.4469976,57.8297831 37.0186795,57.8575422 C37.5903614,57.8860723 38.1608096,57.9277108 38.7304096,57.984 C39.3000096,58.0402892 39.867759,58.1104578 40.4337349,58.194506 C41.0000193,58.2785542 41.5635277,58.3757108 42.1250313,58.4875181 C42.6861494,58.5993253 43.2442602,58.725012 43.7993639,58.8638072 C44.3545446,59.0026024 44.9060241,59.1552771 45.4536482,59.3210602 C46.0011952,59.4876145 46.5445783,59.6672771 47.083412,59.8600482 C47.6223229,60.0528193 48.1559904,60.2586988 48.6846458,60.4776867 C49.2132241,60.6966747 49.7364819,60.928 50.2538795,61.1732048 C50.7711229,61.4176386 51.2821976,61.6751807 51.7867181,61.9450602 C52.291547,62.2141687 52.7894361,62.4963855 53.2801542,62.7909398 C53.7711036,63.0847229 54.2544964,63.3908434 54.7301012,63.7093012 C55.2060145,64.026988 55.6738313,64.356241 56.1333976,64.6970602 C56.593041,65.0378795 57.0442795,65.3902651 57.4864193,65.7534458 C57.9289446,66.1166265 58.3620627,66.4898313 58.786159,66.8746024 C59.2102554,67.2586024 59.6248675,67.6526265 60.0289157,68.0574458 C60.4337349,68.4622651 60.8285301,68.8771084 61.2125301,69.3012048 C61.5973012,69.7245301 61.970506,70.1578795 62.3336867,70.6004819 C62.6968675,71.0430843 63.0484819,71.4933976 63.3900723,71.9537349 C63.7308916,72.4133012 64.0601446,72.8813494 64.3778313,73.3563373 C64.6955181,73.8328675 65.0024096,74.3163373 65.2961928,74.806747 C65.590747,75.2979277 65.8729639,75.7952771 66.1420723,76.3003373 C66.4119518,76.8046265 66.669494,77.3158554 66.9139277,77.833253 C67.1583614,78.3506506 67.3904578,78.8734458 67.6094458,79.4024096 C67.8284337,79.9313735 68.0343133,80.4649639 68.2270843,81.0039518 C68.4198554,81.5421687 68.5995181,82.0857831 68.7653012,82.633253 C68.9318554,83.1807229 69.0845301,83.7320482 69.2233253,84.2872289 C69.3621205,84.8424096 69.4878072,85.4006747 69.5996145,85.9620241 C69.7106506,86.5233735 69.8085783,87.0870361 69.8926265,87.653012 C69.9766747,88.218988 70.0468434,88.7872771 70.1023614,89.3563373 C70.1594217,89.9261687 70.2010602,90.4967711 70.2295904,91.0681446 C70.2573494,91.6395181 70.2712289,92.2116627 70.2712289,92.7838072" id="Fill-40" fill="#FFFFFF" mask="url(#mask-2)"></path>
            <path d="M35.2478843,127.973012 C30.1665928,127.973012 25.0087325,126.868819 20.1262265,124.534747 C2.61929639,116.16694 -4.81565301,95.1140241 3.55207711,77.6073253 C7.60605301,69.1253976 14.7201542,62.7315663 23.5837687,59.6009639 C32.447306,56.4719036 41.9997301,56.9792771 50.4794988,61.0336386 C67.986506,69.4006747 75.4213012,90.4535904 67.053494,107.96106 C61.0182169,120.585253 48.3876241,127.973012 35.2478843,127.973012 Z M35.3286169,58.0186988 C31.4280096,58.0186988 27.5177639,58.6833735 23.7313542,60.0196627 C14.9798554,63.1117108 7.95635663,69.4245783 3.95358072,77.7985542 C-4.3099759,95.0847229 3.03252048,115.870072 20.3189976,124.133783 C25.1385831,126.437783 30.2334458,127.528097 35.2497349,127.528097 C48.2265446,127.53041 60.6951325,120.235181 66.6540723,107.768289 C74.9177831,90.4813494 67.5755181,69.696 50.2888867,61.4330602 C45.5361542,59.1614458 40.4430651,58.0186988 35.3286169,58.0186988 L35.3286169,58.0186988 Z" id="Fill-41" fill="#3E1313" mask="url(#mask-2)"></path>
            <path d="M67.2462651,93.0791325 C67.2462651,93.6096386 67.2331566,94.1393735 67.2077108,94.6698795 C67.181494,95.1996145 67.1421687,95.7285783 67.090506,96.256 C67.0388434,96.7841928 66.9733012,97.3108434 66.8954217,97.8351807 C66.8175422,98.3602892 66.7273253,98.8823133 66.624,99.4027952 C66.5199036,99.922506 66.404241,100.440675 66.2754699,100.954988 C66.1466988,101.469301 66.0048193,101.98053 65.8506024,102.487904 C65.6971566,102.995277 65.5306024,103.498795 65.3517108,103.998458 C65.1728193,104.49812 64.9823614,104.992386 64.7795663,105.482795 C64.576,105.973205 64.3616386,106.457446 64.1349398,106.93706 C63.9074699,107.416675 63.6692048,107.89012 63.4193735,108.358169 C63.1695422,108.826217 62.9081446,109.287325 62.6351807,109.742265 C62.3622169,110.197205 62.0792289,110.645205 61.7839036,111.086265 C61.4893494,111.527325 61.184,111.961446 60.8678554,112.387084 C60.5524819,112.813494 60.2255422,113.231422 59.8893494,113.641639 C59.5523855,114.051084 59.2063229,114.452819 58.8503133,114.846072 C58.4939952,115.238554 58.128347,115.622554 57.7532916,115.998072 C57.3783133,116.372819 56.9940048,116.739084 56.6012145,117.094554 C56.2081157,117.451566 55.806612,117.797783 55.3963952,118.133976 C54.9864096,118.470169 54.5684048,118.797108 54.1421494,119.113253 C53.7162795,119.428627 53.282853,119.733976 52.8415614,120.02853 C52.4005783,120.323855 51.9527325,120.606843 51.4975614,120.879807 C51.0424675,121.152771 50.581359,121.414169 50.1135422,121.664 C49.645494,121.913831 49.1719711,122.152867 48.6924337,122.379566 C48.2129735,122.606265 47.7280386,122.821398 47.2379373,123.024193 C46.7479133,123.226988 46.2533398,123.417446 45.7539084,123.596337 C45.2542458,123.775229 44.7508819,123.941783 44.2430458,124.096 C43.7355181,124.249446 43.2243663,124.391325 42.7099759,124.520096 C42.1955084,124.648867 41.6780337,124.765301 41.1578602,124.868627 C40.6376867,124.971952 40.1150458,125.06294 39.5904,125.140048 C39.0656771,125.218699 38.5394892,125.28347 38.0114506,125.335133 C37.483412,125.387566 36.9548337,125.42612 36.4250217,125.452337 C35.8952096,125.478554 35.3650892,125.490892 34.8346602,125.490892 C34.3042313,125.490892 33.7738024,125.478554 33.2442988,125.452337 C32.7144867,125.42612 32.1855229,125.387566 31.6575614,125.335133 C31.1298313,125.28347 30.6033349,125.218699 30.078612,125.140048 C29.5538892,125.06294 29.0316337,124.971952 28.5111518,124.868627 C27.9909783,124.765301 27.4735036,124.648867 26.9590361,124.520096 C26.4445687,124.391325 25.9334169,124.249446 25.4258892,124.096 C24.918053,123.941783 24.4147663,123.775229 23.9153349,123.596337 C23.4156723,123.417446 22.9210988,123.226988 22.4309976,123.024193 C21.9409735,122.821398 21.4560386,122.606265 20.9765012,122.379566 C20.4969639,122.152867 20.0235181,121.913831 19.5557012,121.664 C19.087653,121.414169 18.6265446,121.152771 18.1713735,120.879807 C17.716588,120.606843 17.2683566,120.323855 16.8273735,120.02853 C16.3864675,119.733976 15.9527325,119.428627 15.5267855,119.113253 C15.1006072,118.797108 14.6825253,118.470169 14.2726169,118.133976 C13.8626313,117.797783 13.4608193,117.451566 13.068106,117.094554 C12.6750072,116.739084 12.2909301,116.372819 11.9156434,115.998072 C11.5406651,115.622554 11.1750169,115.238554 10.8186988,114.846072 C10.4626892,114.452819 10.116241,114.051084 9.77981687,113.641639 C9.44308434,113.231422 9.11683855,112.813494 8.8009253,112.387084 C8.48493494,111.961446 8.17950843,111.527325 7.88495422,111.086265 C7.5904,110.645205 7.30664096,110.197205 7.03375422,109.742265 C6.7611759,109.287325 6.4997012,108.826217 6.24971566,108.358169 C5.99973012,107.89012 5.76115663,107.416675 5.53430361,106.93706 C5.30752771,106.457446 5.09278072,105.973205 4.88975422,105.482795 C4.68672771,104.992386 4.49580723,104.49812 4.31714699,103.998458 C4.13856386,103.498795 3.97231807,102.995277 3.8181012,102.487904 C3.66419277,101.98053 3.52293012,101.469301 3.39400482,100.954988 C3.26507952,100.440675 3.1488,99.922506 3.04516627,99.4027952 C2.94184096,98.8823133 2.85123855,98.3602892 2.77320482,97.8351807 C2.69547952,97.3108434 2.63070843,96.7841928 2.57858313,96.256 C2.52653494,95.7285783 2.48767229,95.1996145 2.46145542,94.6698795 C2.43554699,94.1393735 2.42259277,93.6096386 2.42259277,93.0791325 C2.42259277,92.5486265 2.43554699,92.0188916 2.46145542,91.4891566 C2.48767229,90.9586506 2.52653494,90.4304578 2.57858313,89.9022651 C2.63070843,89.3740723 2.69547952,88.8481928 2.77320482,88.3238554 C2.85123855,87.798747 2.94184096,87.2759518 3.04516627,86.756241 C3.1488,86.235759 3.26507952,85.7183614 3.39400482,85.2040482 C3.52293012,84.6889639 3.66419277,84.178506 3.8181012,83.6703614 C3.97231807,83.162988 4.13856386,82.6594699 4.31714699,82.1598072 C4.49580723,81.6609157 4.68672771,81.1658795 4.88975422,80.6754699 C5.09278072,80.1858313 5.30752771,79.7008193 5.53430361,79.2212048 C5.76115663,78.7415904 5.99973012,78.2681446 6.24971566,77.8000964 C6.4997012,77.3328193 6.7611759,76.8709398 7.03375422,76.416 C7.30664096,75.9610602 7.5904,75.5130602 7.88495422,75.072 C8.17950843,74.6309398 8.48493494,74.1975904 8.8009253,73.7711807 C9.11683855,73.3455422 9.44308434,72.9276145 9.77981687,72.5173976 C10.116241,72.1071807 10.4626892,71.7054458 10.8186988,71.3129639 C11.1750169,70.9197108 11.5406651,70.5357108 11.9156434,70.1601928 C12.2909301,69.7854458 12.6750072,69.4199518 13.068106,69.0637108 C13.4608193,68.7074699 13.8626313,68.361253 14.2726169,68.0242892 C14.6825253,67.6880964 15.1006072,67.3619277 15.5267855,67.0457831 C15.9527325,66.7296386 16.3864675,66.4242892 16.8273735,66.1297349 C17.2683566,65.8351807 17.716588,65.5514217 18.1713735,65.2784578 C18.6265446,65.0062651 19.087653,64.7448675 19.5557012,64.4942651 C20.0235181,64.2444337 20.4969639,64.0061687 20.9765012,63.7794699 C21.4560386,63.5527711 21.9409735,63.3376386 22.4309976,63.1348434 C22.9210988,62.9312771 23.4156723,62.7408193 23.9153349,62.5619277 C24.4147663,62.3830361 24.918053,62.2164819 25.4258892,62.0630361 C25.9334169,61.9088193 26.4445687,61.7677108 26.9590361,61.6381687 C27.4735036,61.5093976 27.9909783,61.3937349 28.5111518,61.2904096 C29.0316337,61.1870843 29.5538892,61.0960964 30.078612,61.0182169 C30.6033349,60.9403373 31.1298313,60.8755663 31.6575614,60.8231325 C32.1855229,60.7714699 32.7144867,60.7321446 33.2442988,60.7066988 C33.7738024,60.6804819 34.3042313,60.6673735 34.8346602,60.6673735 C35.3650892,60.6673735 35.8952096,60.6804819 36.4250217,60.7066988 C36.9548337,60.7321446 37.483412,60.7714699 38.0114506,60.8231325 C38.5394892,60.8755663 39.0656771,60.9403373 39.5904,61.0182169 C40.1150458,61.0960964 40.6376867,61.1870843 41.1578602,61.2904096 C41.6780337,61.3937349 42.1955084,61.5093976 42.7099759,61.6381687 C43.2243663,61.7677108 43.7355181,61.9088193 44.2430458,62.0630361 C44.7508819,62.2164819 45.2542458,62.3830361 45.7539084,62.5619277 C46.2533398,62.7408193 46.7479133,62.9312771 47.2379373,63.1348434 C47.7280386,63.3376386 48.2129735,63.5527711 48.6924337,63.7794699 C49.1719711,64.0061687 49.645494,64.2444337 50.1135422,64.4942651 C50.581359,64.7448675 51.0427759,65.0062651 51.4975614,65.2784578 C51.9527325,65.5514217 52.4005783,65.8351807 52.8415614,66.1297349 C53.282853,66.4242892 53.7162795,66.7296386 54.1421494,67.0457831 C54.5684048,67.3619277 54.9864096,67.6880964 55.3963952,68.0242892 C55.806612,68.361253 56.2081157,68.7074699 56.6012145,69.0637108 C56.9940048,69.4199518 57.3783133,69.7854458 57.7532916,70.1601928 C58.128347,70.5357108 58.4939952,70.9197108 58.8503133,71.3129639 C59.2063229,71.7054458 59.5523855,72.1071807 59.8893494,72.5173976 C60.2255422,72.9276145 60.5524819,73.3455422 60.8678554,73.7711807 C61.184,74.1975904 61.4893494,74.6309398 61.7839036,75.072 C62.0792289,75.5130602 62.3622169,75.9610602 62.6351807,76.416 C62.9081446,76.8709398 63.1695422,77.3328193 63.4193735,77.8000964 C63.6692048,78.2681446 63.9074699,78.7415904 64.1349398,79.2212048 C64.3616386,79.7008193 64.576,80.1858313 64.7795663,80.676241 C64.9823614,81.1658795 65.1728193,81.6609157 65.3517108,82.1598072 C65.5306024,82.6594699 65.6971566,83.162988 65.8506024,83.6703614 C66.0048193,84.178506 66.1466988,84.6889639 66.2754699,85.2040482 C66.404241,85.7183614 66.5199036,86.235759 66.624,86.756241 C66.7273253,87.2759518 66.8175422,87.798747 66.8954217,88.3238554 C66.9733012,88.8481928 67.0388434,89.3740723 67.090506,89.9022651 C67.1421687,90.4304578 67.181494,90.9586506 67.2077108,91.4891566 C67.2331566,92.0188916 67.2462651,92.5486265 67.2462651,93.0791325" id="Fill-42" fill="#F5B1AB" mask="url(#mask-2)"></path>
            <path d="M34.7834602,125.711422 C30.0719807,125.711422 25.2879422,124.688193 20.7599036,122.523759 C4.52441446,114.764337 -2.36931084,95.2420241 5.39003373,79.0068434 C13.1496867,62.7708916 32.6716916,55.8750843 48.9072578,63.6368193 C65.142747,71.3985542 72.036241,90.9185542 64.2768193,107.153735 C58.6801349,118.861108 46.9689831,125.711422 34.7834602,125.711422 Z M34.8837012,60.891759 C22.8635759,60.891759 11.3117301,67.6472289 5.79153735,79.1973012 C-1.86355663,95.2127229 4.93763855,114.466699 20.9526747,122.122024 C36.967788,129.777349 56.2219952,122.976386 63.8773976,106.960964 C71.5327229,90.9463133 64.730988,71.6915663 48.7162602,64.036241 C44.2512193,61.9011084 39.5319518,60.891759 34.8837012,60.891759 L34.8837012,60.891759 Z" id="Fill-43" fill="#3E1313" mask="url(#mask-2)"></path>
            <path d="M60.1738795,92.6642892 C60.1738795,93.0737349 60.1638554,93.4831807 60.1438072,93.8918554 C60.123759,94.3005301 60.0936867,94.7092048 60.0535904,95.1171084 C60.0127229,95.524241 59.9626024,95.9306024 59.9032289,96.3361928 C59.8430843,96.741012 59.7729157,97.1442892 59.6927229,97.5460241 C59.6133012,97.947759 59.5230843,98.3471807 59.4236145,98.7442892 C59.3243759,99.1421687 59.2150361,99.5361928 59.0960578,99.9286747 C58.977388,100.320386 58.8487711,100.709012 58.7108241,101.094554 C58.5728771,101.480096 58.4256,101.861783 58.2689928,102.240386 C58.1120771,102.618988 57.9460627,102.992964 57.7711036,103.363084 C57.5960675,103.733205 57.4120867,104.09947 57.2190072,104.460337 C57.0259277,104.821976 56.8241349,105.177446 56.6135518,105.52906 C56.4030458,105.880675 56.1837494,106.22612 55.9563566,106.56694 C55.7288867,106.906988 55.4930892,107.24241 55.2491181,107.570892 C55.005147,107.900145 54.7533108,108.223229 54.4933783,108.539373 C54.2337542,108.856289 53.9662651,109.166265 53.6912964,109.469301 C53.4162506,109.773108 53.1337253,110.069205 52.8442602,110.359133 C52.5544867,110.648289 52.258159,110.930506 51.9548145,111.205783 C51.6512386,111.48106 51.3412627,111.747855 51.0247325,112.008482 C50.7081253,112.268337 50.3852723,112.519711 50.0563277,112.764145 C49.7273831,113.007807 49.3928096,113.242988 49.0521446,113.471229 C48.7117108,113.698699 48.3656482,113.917687 48.0144964,114.128193 C47.6632675,114.338699 47.3069494,114.540723 46.9457735,114.733494 C46.5846747,114.926265 46.2189494,115.110554 45.8488289,115.28559 C45.4783229,115.460627 45.1041928,115.627181 44.7258988,115.783711 C44.3472964,115.940241 43.9653783,116.087518 43.5798361,116.225542 C43.194294,116.363566 42.8054361,116.491566 42.4135711,116.611084 C42.021706,116.729831 41.6271422,116.838554 41.2298024,116.938795 C40.8325398,117.038265 40.4331181,117.127711 40.031306,117.207904 C39.6298024,117.287325 39.2262169,117.357494 38.8210892,117.417639 C38.4159614,117.477783 38.0096771,117.527904 37.6020819,117.568 C37.1945639,117.608096 36.7864289,117.638169 36.3774458,117.658217 C35.9683855,117.678265 35.5590169,117.688289 35.1494169,117.688289 C34.7397398,117.688289 34.3304482,117.678265 33.921388,117.658217 C33.5123277,117.638169 33.1041928,117.608096 32.6966747,117.568 C32.2888482,117.527904 31.8825639,117.477783 31.4774361,117.417639 C31.0726169,117.357494 30.6689542,117.287325 30.2674506,117.207904 C29.8656386,117.127711 29.466294,117.038265 29.0689542,116.938795 C28.6716916,116.838554 28.2771277,116.729831 27.8852627,116.611084 C27.4933976,116.491566 27.1045398,116.363566 26.7189976,116.225542 C26.3334554,116.087518 25.9512289,115.940241 25.5728578,115.783711 C25.1945639,115.627181 24.8202024,115.460627 24.4500048,115.28559 C24.0798072,115.110554 23.714159,114.926265 23.3529831,114.733494 C22.9918843,114.540723 22.6355663,114.338699 22.2843373,114.128193 C21.9331084,113.917687 21.5870458,113.698699 21.2466892,113.471229 C20.9060241,113.242988 20.5713735,113.007807 20.242506,112.764145 C19.9135614,112.519711 19.5906313,112.268337 19.2741012,112.008482 C18.957494,111.747855 18.6475952,111.48106 18.3439422,111.205783 C18.0406747,110.930506 17.7439614,110.648289 17.4544964,110.359133 C17.1650313,110.069205 16.882506,109.773108 16.6075373,109.469301 C16.3325687,109.166265 16.0650795,108.856289 15.8054554,108.539373 C15.5454458,108.222458 15.2936867,107.900145 15.0497157,107.570892 C14.8057446,107.24241 14.5698699,106.906988 14.3424771,106.56694 C14.1147759,106.22612 13.895788,105.880675 13.6852048,105.52906 C13.4746988,105.177446 13.272906,104.821976 13.0798265,104.460337 C12.886747,104.09947 12.7026892,103.733205 12.5277301,103.363084 C12.3523855,102.992964 12.1867566,102.618988 12.029841,102.240386 C11.8731566,101.861783 11.7258795,101.480096 11.5879325,101.094554 C11.4499855,100.709012 11.3213687,100.320386 11.2026988,99.9286747 C11.0837205,99.5361928 10.9743807,99.1421687 10.874988,98.7442892 C10.7755952,98.3471807 10.685841,97.947759 10.6060337,97.5460241 C10.5259181,97.1442892 10.4560578,96.741012 10.395759,96.3361928 C10.3358458,95.9306024 10.2855711,95.524241 10.2454747,95.1171084 C10.2054554,94.7092048 10.175306,94.3005301 10.1551036,93.8918554 C10.1352096,93.4831807 10.1250313,93.0737349 10.1250313,92.6642892 C10.1250313,92.2548434 10.1352096,91.8453976 10.1551036,91.4359518 C10.175306,91.0272771 10.2054554,90.6186024 10.2454747,90.2114699 C10.2855711,89.8035663 10.3358458,89.3972048 10.395759,88.9923855 C10.4560578,88.5867952 10.5259181,88.1835181 10.6060337,87.7817831 C10.685841,87.3800482 10.7755952,86.9813976 10.874988,86.5835181 C10.9743807,86.1864096 11.0837205,85.7916145 11.2026988,85.3999036 C11.3213687,85.0081928 11.4499855,84.6195663 11.5879325,84.2340241 C11.7258795,83.8477108 11.8731566,83.4660241 12.029841,83.0874217 C12.1867566,82.7095904 12.3523855,82.3348434 12.5277301,81.9647229 C12.7026892,81.5946024 12.886747,81.2291084 13.0798265,80.8674699 C13.272906,80.5066024 13.4746988,80.1503614 13.6852048,79.798747 C13.895788,79.4479036 14.1147759,79.1016867 14.3424771,78.7608675 C14.5698699,78.4208193 14.8057446,78.0861687 15.0497157,77.7569157 C15.2936867,77.4276627 15.5454458,77.1053494 15.8054554,76.7892048 C16.0650795,76.4722892 16.3325687,76.1623133 16.6075373,75.858506 C16.882506,75.5554699 17.1650313,75.2586024 17.4544964,74.9694458 C17.7439614,74.6795181 18.0406747,74.3973012 18.3439422,74.1220241 C18.6475952,73.8475181 18.957494,73.5799518 19.2741012,73.3200964 C19.5906313,73.060241 19.9135614,72.8080964 20.242506,72.5644337 C20.5713735,72.3207711 20.9060241,72.0848193 21.2466892,71.8565783 C21.5870458,71.6298795 21.9331084,71.4108916 22.2843373,71.1996145 C22.6355663,70.9891084 22.9918843,70.7878554 23.3529831,70.5943133 C23.714159,70.4015422 24.0798072,70.217253 24.4500048,70.0422169 C24.8202024,69.8671807 25.1945639,69.7013976 25.5728578,69.5448675 C25.9512289,69.3875663 26.3334554,69.2402892 26.7189976,69.1022651 C27.1045398,68.964241 27.4933976,68.836241 27.8852627,68.717494 C28.2771277,68.598747 28.6716916,68.489253 29.0689542,68.3897831 C29.466294,68.2903133 29.8656386,68.2000964 30.2674506,68.1206747 C30.6689542,68.0404819 31.0726169,67.9710843 31.4774361,67.9101687 C31.8825639,67.8507952 32.2888482,67.8006747 32.6966747,67.7605783 C33.1041928,67.7204819 33.5123277,67.6904096 33.921388,67.6695904 C34.3304482,67.6495422 34.7397398,67.6395181 35.1494169,67.6395181 C35.5590169,67.6395181 35.9683855,67.6495422 36.3774458,67.6695904 C36.7864289,67.6904096 37.1945639,67.7204819 37.6020819,67.7605783 C38.0096771,67.8006747 38.4159614,67.8507952 38.8210892,67.9101687 C39.2262169,67.9710843 39.6298024,68.0404819 40.031306,68.1206747 C40.4331181,68.2000964 40.8325398,68.2903133 41.2298024,68.3897831 C41.6271422,68.489253 42.021706,68.598747 42.4135711,68.717494 C42.8054361,68.836241 43.194294,68.964241 43.5798361,69.1022651 C43.9653783,69.2402892 44.3472964,69.3875663 44.7258988,69.5448675 C45.1041928,69.7013976 45.4783229,69.8671807 45.8488289,70.0422169 C46.2189494,70.217253 46.5846747,70.4015422 46.9457735,70.5943133 C47.3069494,70.7878554 47.6632675,70.9891084 48.0144964,71.1996145 C48.3656482,71.4108916 48.7117108,71.6298795 49.0521446,71.8565783 C49.3928096,72.0848193 49.7273831,72.3207711 50.0563277,72.5644337 C50.3852723,72.8080964 50.7081253,73.060241 51.0247325,73.3200964 C51.3412627,73.5799518 51.6512386,73.8475181 51.9548145,74.1220241 C52.258159,74.3973012 52.5544867,74.6795181 52.8442602,74.9694458 C53.1337253,75.2586024 53.4162506,75.5554699 53.6912964,75.858506 C53.9662651,76.1623133 54.2337542,76.4722892 54.4933783,76.7892048 C54.7533108,77.1053494 55.005147,77.4276627 55.2491181,77.7569157 C55.4930892,78.0861687 55.7288867,78.4208193 55.9563566,78.7608675 C56.1837494,79.1016867 56.4030458,79.4479036 56.6135518,79.798747 C56.8241349,80.1503614 57.0259277,80.5066024 57.2190072,80.8674699 C57.4120867,81.2291084 57.5960675,81.5946024 57.7711036,81.9647229 C57.9460627,82.3348434 58.1120771,82.7095904 58.2689928,83.0874217 C58.4256,83.4660241 58.5728771,83.8477108 58.7108241,84.2340241 C58.8487711,84.6195663 58.977388,85.0081928 59.0960578,85.3999036 C59.2150361,85.7916145 59.3243759,86.1864096 59.4236145,86.5835181 C59.5230843,86.9813976 59.6133012,87.3800482 59.6927229,87.7817831 C59.7729157,88.1835181 59.8430843,88.5867952 59.9032289,88.9923855 C59.9626024,89.3972048 60.0127229,89.8035663 60.0535904,90.2114699 C60.0936867,90.6186024 60.123759,91.0272771 60.1438072,91.4359518 C60.1638554,91.8453976 60.1738795,92.2548434 60.1738795,92.6642892" id="Fill-44" fill="#FBDFDA" mask="url(#mask-2)"></path>
            <path d="M35.1099373,117.908819 C31.4635566,117.908819 27.763894,117.115373 24.2608578,115.442892 C18.1759229,112.534361 13.588588,107.431325 11.3430361,101.072964 C9.09786988,94.7146024 9.46174458,87.8619759 12.370506,81.7773494 C18.3747084,69.2179277 33.4764723,63.8827952 46.0361253,69.8872289 C58.5954699,75.8908916 63.9306024,90.9933494 57.9261687,103.552771 C53.5969928,112.609157 44.5364434,117.908819 35.1099373,117.908819 Z M35.1867373,67.8639036 C25.9237783,67.8639036 17.024694,73.069494 12.7698506,81.9685783 C9.9126747,87.945253 9.55419759,94.6775904 11.7605783,100.923373 C13.9665735,107.169928 18.4731759,112.184289 24.4496964,115.041928 C36.788588,120.939181 51.6250217,115.698892 57.5228916,103.36 C63.4209157,91.0211084 58.1800867,76.1846747 45.8412723,70.2866506 C42.4050892,68.6434699 38.768347,67.8639036 35.1867373,67.8639036 L35.1867373,67.8639036 Z" id="Fill-45" fill="#3E1313" mask="url(#mask-2)"></path>
            <path d="M26.8918747,54.7022651 C27.1852723,54.948241 27.5984964,55.4679518 28.0017735,55.4679518 C28.3755952,55.4679518 37.2825446,53.2973494 43.194294,55.4679518 C43.194294,55.4679518 44.6900434,55.1101687 44.691894,54.5033253 C44.691894,53.586506 43.4816,52.0929157 43.117494,51.2724819 C41.8975614,48.5173976 41.1003373,45.5849639 40.6773976,42.6039518 C39.7819373,36.2887711 40.0063229,29.8810602 40.1539084,23.524241 C40.299412,17.242988 40.1617735,10.9632771 40.0888289,4.67971084 C40.081041,3.99653012 40.071094,3.30024096 39.8487904,2.65484337 C39.2349301,0.873638554 36.5722988,0.0940722892 34.8698988,0.27913253 C33.2168482,0.458024096 31.4653301,1.42033735 30.902747,3.06583133 C30.7274024,3.57551807 30.721388,4.12453012 30.7156819,4.66351807 C30.6722699,9.26072289 30.5858313,13.8563855 30.5069494,18.4528193 C30.4144964,23.9259759 30.3791807,29.3991325 30.3437108,34.8692048 C30.3102458,39.9074699 31.128906,45.6242892 28.8578313,50.2862651 C28.1494361,51.7428434 27.5433639,53.2441446 26.8779952,54.693012 C26.8819277,54.6945542 26.8861687,54.6984096 26.8918747,54.7022651" id="Fill-46" fill="#909FD0" mask="url(#mask-2)"></path>
            <path d="M43.1804145,55.698506 L43.117494,55.6746024 C39.7346699,54.4331566 34.8442988,54.4053976 28.5822458,55.5920964 C28.1945446,55.6645783 28.066853,55.6884819 28.0017735,55.6884819 C27.6042024,55.6884819 27.2499663,55.3461205 26.9665928,55.0723855 C26.8900241,54.9975904 26.8171566,54.9266506 26.7503036,54.8719036 L26.6144386,54.7593253 L26.6752771,54.5958554 C26.9451566,54.0113735 27.2026988,53.4176386 27.4626313,52.8208193 C27.8403855,51.9533494 28.2319422,51.0558072 28.6571952,50.1860241 C30.4183518,46.5711807 30.2963663,42.3086265 30.1783133,38.1856386 C30.1470072,37.0853012 30.1153928,35.9479518 30.1214072,34.8653494 L30.1271133,34.0981205 C30.1605783,28.9680964 30.1982072,23.6638072 30.2867277,18.4466506 L30.3241253,16.3022651 C30.3909783,12.4861687 30.4578313,8.54053012 30.4951518,4.65966265 C30.5012434,4.13455422 30.5050988,3.54004819 30.6940145,2.99103614 C31.3472771,1.08414458 33.3388337,0.218216867 34.8482313,0.054746988 C36.6036048,-0.136481928 39.3903807,0.637686747 40.0614554,2.57927711 C40.2975614,3.26631325 40.3072,4.01426506 40.3132916,4.67585542 C40.327094,5.85638554 40.342747,7.03691566 40.3584,8.21744578 C40.4253301,13.2364337 40.4964241,18.4235181 40.378294,23.5280964 L40.3487614,24.7363855 C40.209041,30.6051084 40.0632289,36.6743133 40.8979277,42.5723373 C41.3325108,45.6343133 42.1473157,48.5312771 43.322294,51.1822651 C43.4382651,51.4436627 43.6547855,51.7921928 43.8831036,52.1615422 C44.3671904,52.9449639 44.9162795,53.8309398 44.9162795,54.5033253 C44.9162795,55.2474217 43.5267855,55.6175422 43.2494265,55.6846265 L43.1804145,55.698506 Z M27.1475663,54.6313253 C27.1891277,54.6691084 27.2304578,54.7099759 27.2737928,54.7539277 C27.5000289,54.9721446 27.7834024,55.2451084 28.0017735,55.2451084 C28.0431036,55.2435663 28.2635566,55.2003855 28.4996627,55.1572048 C34.8030458,53.9627952 39.7503229,53.9897831 43.2080964,55.2358554 C43.7572627,55.0939759 44.4713639,54.7732048 44.4713639,54.5033253 C44.4713639,53.9589398 43.9361542,53.0906988 43.5051181,52.3959518 C43.269012,52.0142651 43.0448578,51.6518554 42.9168578,51.3626988 C41.7262265,48.6746988 40.8997012,45.7360964 40.4587181,42.6347952 C39.6186988,36.699759 39.7641253,30.6128193 39.9039229,24.7271325 L39.9334554,23.5203855 C40.0515084,18.4235181 39.9824964,13.2402892 39.9138699,8.22592771 C39.8979084,7.04462651 39.8822554,5.86409639 39.8683759,4.68356627 C39.8605108,4.02583133 39.8527229,3.34496386 39.6403663,2.7273253 C39.0538795,1.02708434 36.4638843,0.332337349 34.8954988,0.499662651 C33.4078458,0.660819277 31.6620337,1.53831325 31.1150265,3.13831325 C30.949706,3.6186988 30.9457735,4.15228916 30.9400675,4.66737349 C30.9024386,8.55055422 30.8337349,12.4961928 30.7686554,16.3115181 L30.7313349,18.4566747 C30.6427373,23.6722892 30.6072675,28.9758072 30.5719518,34.1042892 L30.5659373,34.8715181 C30.5581494,35.9464096 30.5897639,37.028241 30.6232289,38.1756145 C30.7430554,42.3518072 30.8672,46.6691084 29.0586988,50.3826506 C28.6394602,51.2447229 28.2496771,52.1384096 27.872,53.0020241 C27.6298024,53.5471807 27.3918458,54.0946506 27.1475663,54.6313253 L27.1475663,54.6313253 Z" id="Fill-47" fill="#3E1313" mask="url(#mask-2)"></path>
            <path d="M35.2614554,23.3592289 C33.4018313,23.3592289 31.8942843,21.851759 31.8942843,19.9919036 L31.8942843,6.36992771 C31.8942843,4.51007229 33.4018313,3.00260241 35.2614554,3.00260241 C37.121388,3.00260241 38.6286265,4.51007229 38.6286265,6.36992771 L38.6286265,19.9919036 C38.6286265,21.851759 37.121388,23.3592289 35.2614554,23.3592289" id="Fill-48" fill="#FBDFDA" mask="url(#mask-2)"></path>
            <path d="M35.2614554,23.5813012 C33.2819277,23.5813012 31.6719807,21.9720482 31.6719807,19.9919036 L31.6719807,6.36992771 C31.6719807,4.38978313 33.2819277,2.78053012 35.2614554,2.78053012 C37.2412916,2.78053012 38.8512386,4.38978313 38.8512386,6.36992771 L38.8512386,19.9919036 C38.8512386,21.9720482 37.239441,23.5813012 35.2614554,23.5813012 Z M35.2614554,3.2246747 C33.5277494,3.2246747 32.1147373,4.63575904 32.1147373,6.37146988 L32.1147373,19.9942169 C32.1147373,21.7276145 33.5258988,23.1386988 35.2614554,23.1386988 C36.9951614,23.1386988 38.4063229,21.7276145 38.4063229,19.9942169 L38.4063229,6.36992771 C38.4063229,4.63575904 36.9951614,3.2246747 35.2614554,3.2246747 L35.2614554,3.2246747 Z" id="Fill-49" fill="#3E1313" mask="url(#mask-2)"></path>
            <path d="M36.0331566,14.2851084 L34.5451952,14.2851084 C33.7325494,14.2851084 33.0731952,13.6258313 33.0731952,12.8131084 L33.0731952,6.27122892 C33.0731952,5.45850602 33.7325494,4.79922892 34.5451952,4.79922892 L36.0331566,4.79922892 C36.8458024,4.79922892 37.5051566,5.45850602 37.5051566,6.27122892 L37.5051566,12.8131084 C37.5051566,13.6258313 36.8458024,14.2851084 36.0331566,14.2851084" id="Fill-50" fill="#FFFFFF" mask="url(#mask-2)"></path>
            <path d="M35.2891373,14.5071807 C33.944906,14.5071807 32.8488096,13.413012 32.8488096,12.0674699 L32.8488096,7.0153253 C32.8488096,5.66901205 33.9430554,4.57484337 35.2891373,4.57484337 C36.6331373,4.57484337 37.7273831,5.66901205 37.7273831,7.0153253 L37.7273831,12.0674699 C37.7273831,13.413012 36.6331373,14.5071807 35.2891373,14.5071807 Z M35.2891373,5.0213012 C34.1891855,5.0213012 33.2936482,5.9173012 33.2936482,7.01686747 L33.2936482,12.069012 C33.2936482,13.1693494 34.1891855,14.0645783 35.2891373,14.0645783 C36.3891663,14.0645783 37.2846265,13.1693494 37.2846265,12.069012 L37.2846265,7.0153253 C37.2846265,5.91498795 36.3891663,5.0213012 35.2891373,5.0213012 L35.2891373,5.0213012 Z" id="Fill-51" fill="#3E1313" mask="url(#mask-2)"></path>
        </g>
    </g>
</svg>