<?xml version="1.0" encoding="UTF-8"?>
<svg width="27px" height="27px" viewBox="0 0 27 27" version="1.1" xmlns="http://www.w3.org/2000/svg" xmlns:xlink="http://www.w3.org/1999/xlink">
    <title>Settings-Dark</title>
    <g id="Settings-Dark" stroke="none" stroke-width="1" fill="none" fill-rule="evenodd">
        <g id="setting-lines" transform="translate(0.000000, 0.269103)" fill="#FFFFFF" fill-rule="nonzero">
            <path d="M5.75596374,4.39534884 L0.792209022,4.39534884 C0.354629761,4.39534884 0,4.05380969 0,3.63289037 C0,3.21197104 0.354629761,2.87043189 0.792209022,2.87043189 L5.75596374,2.87043189 C6.193543,2.87043189 6.54817276,3.21197104 6.54817276,3.63289037 C6.54817276,4.05380969 6.193543,4.39534884 5.75596374,4.39534884 Z" id="路径"></path>
            <path d="M8.56644518,7.26578073 C6.563208,7.26578073 4.93355482,5.6361408 4.93355482,3.63309709 C4.93355482,1.62963993 6.563208,0 8.56644518,0 C10.5696824,0 12.1993355,1.62963993 12.1993355,3.63309709 C12.1993355,5.63619986 10.5696824,7.26578073 8.56644518,7.26578073 Z M8.56644518,1.58628682 C7.43789662,1.58628682 6.51979547,2.50455771 6.51979547,3.63309709 C6.51979547,4.76163647 7.43789662,5.67949391 8.56644518,5.67949391 C9.69499374,5.67949391 10.6130949,4.76163647 10.6130949,3.63309709 C10.6130949,2.50455771 9.69499374,1.58628682 8.56644518,1.58628682 Z" id="形状"></path>
            <path d="M26.2060545,4.39534884 L14.3388551,4.39534884 C13.900284,4.39534884 13.5448505,4.05380969 13.5448505,3.63289037 C13.5448505,3.21197104 13.900284,2.87043189 14.3388551,2.87043189 L26.2059954,2.87043189 C26.6445665,2.87043189 27,3.21197104 27,3.63289037 C27,4.05380969 26.6446256,4.39534884 26.2060545,4.39534884 Z" id="路径"></path>
            <path d="M19.3305648,16.8637874 C17.3272685,16.8637874 15.6976744,15.2340547 15.6976744,13.230897 C15.6976744,11.2277393 17.3273276,9.59800664 19.3305648,9.59800664 C21.333802,9.59800664 22.9634551,11.2277393 22.9634551,13.230897 C22.9634551,15.2340547 21.333861,16.8637874 19.3305648,16.8637874 Z M19.3305648,11.1843837 C18.2020162,11.1843837 17.2839151,12.1022934 17.2839151,13.230897 C17.2839151,14.3595006 18.2020162,15.2774103 19.3305648,15.2774103 C20.4591133,15.2774103 21.3772145,14.3595006 21.3772145,13.230897 C21.3772145,12.1022934 20.4591133,11.1843837 19.3305648,11.1843837 Z" id="形状"></path>
            <path d="M13.5576868,13.9933555 L0.794472672,13.9933555 C0.355643076,13.9933555 0,13.6518163 0,13.230897 C0,12.8099777 0.355643076,12.4684385 0.794472672,12.4684385 L13.5576868,12.4684385 C13.9965164,12.4684385 14.3521595,12.8099777 14.3521595,13.230897 C14.3521595,13.6518163 13.9965164,13.9933555 13.5576868,13.9933555 Z" id="路径"></path>
            <path d="M26.1967373,13.9933555 L22.0623989,13.9933555 C21.6187141,13.9933555 21.2591362,13.6518163 21.2591362,13.230897 C21.2591362,12.8099777 21.6187141,12.4684385 22.0623989,12.4684385 L26.1967373,12.4684385 C26.6404221,12.4684385 27,12.8099777 27,13.230897 C27,13.6518163 26.6404221,13.9933555 26.1967373,13.9933555 Z" id="路径"></path>
            <path d="M7.66943522,26.461794 C5.66619803,26.461794 4.03654485,24.8321541 4.03654485,22.8286969 C4.03654485,20.8256532 5.66619803,19.1960133 7.66943522,19.1960133 C9.6726724,19.1960133 11.3023256,20.8256532 11.3023256,22.8286969 C11.3023256,24.8321541 9.6726724,26.461794 7.66943522,26.461794 Z M7.66943522,20.7823001 C6.54088666,20.7823001 5.6227855,21.7001575 5.6227855,22.8286969 C5.6227855,23.9572363 6.54088666,24.8755072 7.66943522,24.8755072 C8.79798377,24.8755072 9.71608493,23.9572363 9.71608493,22.8286969 C9.71608493,21.7001575 8.79798377,20.7823001 7.66943522,20.7823001 Z" id="形状"></path>
            <path d="M26.2055273,23.5913621 L13.4423132,23.5913621 C13.0034836,23.5913621 12.6478405,23.249823 12.6478405,22.8289037 C12.6478405,22.4079843 13.0034836,22.0664452 13.4423132,22.0664452 L26.2055273,22.0664452 C26.6443569,22.0664452 27,22.4079843 27,22.8289037 C27,23.249823 26.6443569,23.5913621 26.2055273,23.5913621 Z" id="路径"></path>
            <path d="M4.93760108,23.5913621 L0.803262709,23.5913621 C0.359577908,23.5913621 0,23.2498357 0,22.8288753 C0,22.4079716 0.359577908,22.0664452 0.803262709,22.0664452 L4.93760108,22.0664452 C5.38128588,22.0664452 5.74086379,22.4079716 5.74086379,22.8288753 C5.74086379,23.2498357 5.38128588,23.5913621 4.93760108,23.5913621 Z" id="路径"></path>
        </g>
    </g>
</svg>