<?xml version="1.0" encoding="UTF-8"?>
<svg width="27px" height="27px" viewBox="0 0 27 27" version="1.1" xmlns="http://www.w3.org/2000/svg" xmlns:xlink="http://www.w3.org/1999/xlink">
    <title>Beijing</title>
    <g id="Beijing" stroke="none" stroke-width="1" fill="none" fill-rule="evenodd">
        <g id="beijing" transform="translate(2.140969, 0.000000)" fill="#000000" fill-rule="nonzero">
            <path d="M21.9119868,24.8776454 L20.042207,24.8776454 L20.042207,20.4651079 C20.6125374,20.1612687 22.6841035,18.9854009 22.6606351,17.9552379 C22.6522269,17.5925815 22.4124978,17.3014097 21.9477885,17.089989 C21.1390374,16.7217423 20.0527335,16.3817445 18.8308943,16.0946167 L18.8308943,14.1899868 C19.4035441,13.8854339 21.095207,12.9094493 21.0749868,12.0192819 C21.0676123,11.6955198 20.8558348,11.436641 20.4458987,11.2500198 C19.5125551,10.8250969 18.1496498,10.4434692 16.6514471,10.1580661 L16.6514471,8.18337885 C17.0899295,7.94668282 18.2367159,7.26525991 18.221967,6.62344493 C18.2181013,6.44895595 18.1318678,6.20387445 17.7435198,6.02706608 C16.978837,5.6789207 15.8045749,5.37222687 14.5481828,5.16544493 C13.5628018,4.63151101 12.2468789,3.73325551 11.7538612,2.5552467 C11.927815,2.42762115 12.0415242,2.22226652 12.0415242,1.99044714 L12.0415242,1.59662775 C12.0415242,1.58128414 12.0409295,1.56594053 12.0397996,1.55047797 C12.1927004,1.38080617 12.2785771,1.16052423 12.2785771,0.929240088 C12.2785771,0.416894273 11.8618018,0 11.349337,0 C10.8369912,0 10.4200969,0.416894273 10.4200969,0.929180617 C10.4200969,1.1508304 10.5000859,1.36427313 10.6427577,1.53156608 C10.6407952,1.55321366 10.6397841,1.57498018 10.6397841,1.59662775 L10.6397841,1.99044714 C10.6397841,2.22018502 10.751293,2.42393392 10.92263,2.55179736 C10.4287203,3.7361696 9.10256828,4.63840969 8.1147489,5.17222467 C6.79270044,5.36675551 5.50770264,5.65911674 4.89722907,6.04062555 C4.52933921,6.27054185 4.4660022,6.53917401 4.47753965,6.72395154 C4.5187533,7.38265639 5.58888106,7.97748899 6.01463656,8.18885022 L6.01463656,10.1490264 C4.40813656,10.419859 2.93211674,10.7941123 2.18117181,11.2635198 C1.79050441,11.5076498 1.60334802,11.8075639 1.62511454,12.1548172 C1.68262335,13.0748987 3.31701542,13.9473436 3.82127313,14.1952203 L3.82127313,16.0549493 C2.48625991,16.3379736 1.33507269,16.6887357 0.671491189,17.103489 C0.227834802,17.380804 0.0153436123,17.7194934 0.0397863436,18.1103987 C0.106513216,19.1769581 2.04159251,20.1970705 2.60222907,20.4708172 L2.60222907,24.8777643 L0.763136564,24.8777643 C0.643063877,24.8777643 0.545709251,24.975 0.545709251,25.0952511 L0.545709251,26.7631256 C0.545709251,26.8831982 0.643182819,26.9805529 0.763136564,26.9805529 L21.9119868,26.9805529 C22.0321784,26.9805529 22.1294141,26.8830793 22.1294141,26.7631256 L22.1294141,25.0952511 C22.129533,24.9749405 22.0322974,24.8776454 21.9119868,24.8776454 Z M11.3493965,0.435151982 C11.6218348,0.435151982 11.8434251,0.656742291 11.8434251,0.929180617 C11.8434251,1.07506388 11.7793744,1.21268062 11.6672709,1.3070022 C11.6029824,1.36124009 11.575685,1.44765198 11.5970352,1.52888987 C11.6032203,1.55255947 11.6063722,1.57468282 11.6063722,1.59656828 L11.6063722,1.99038767 C11.6063722,2.13704405 11.4870727,2.25628414 11.3404163,2.25628414 C11.1938789,2.25628414 11.0746982,2.13704405 11.0746982,1.99038767 L11.0746982,1.59656828 C11.0746982,1.57176872 11.0783855,1.54655286 11.0857004,1.52169383 C11.1093106,1.44093172 11.0843326,1.3537467 11.0214714,1.29790308 C10.9157313,1.20381938 10.8550705,1.06947357 10.8550705,0.929121145 C10.8553084,0.656801762 11.0768987,0.435151982 11.3493965,0.435151982 Z M11.3375022,2.69595595 C11.7297159,3.66325771 12.5932401,4.44179736 13.4403502,5.01212775 C12.7515529,4.93469604 12.0665022,4.89104405 11.4365815,4.89104405 C10.8850441,4.89104405 10.075163,4.93963216 9.20253965,5.03389427 C10.0599978,4.46154185 10.9404714,3.67550881 11.3375022,2.69595595 Z M4.91179956,6.6968326 C4.90948018,6.66061454 4.90264097,6.55035463 5.12785903,6.4095859 C6.20327974,5.73744053 9.82359912,5.32607709 11.436522,5.32607709 C13.5207555,5.32607709 16.2118943,5.80803304 17.5633216,6.42314537 C17.664185,6.46905727 17.7850903,6.54280176 17.7871001,6.63343612 C17.7929405,6.88339427 17.2475881,7.33317621 16.6514471,7.68393833 L16.6514471,7.0372467 C16.6514471,6.94607709 16.594652,6.86466079 16.5090132,6.8330815 C16.4178436,6.79953965 14.2427974,6.00993833 11.329652,6.00761894 C8.42304846,6.00993833 6.24812115,6.79948018 6.15689207,6.8330815 C6.07137225,6.86454185 6.01457709,6.94601762 6.01457709,7.0372467 L6.01457709,7.69803304 C5.49562996,7.4123326 4.9304141,6.99389207 4.91179956,6.6968326 Z M6.44978855,7.19264537 C6.97724009,7.01970264 8.91422247,6.44443612 11.3360154,6.44253304 C13.7491256,6.44443612 15.6884868,7.01988106 16.2164736,7.19276432 L16.2164736,10.0789097 C14.641196,9.80296256 12.9517335,9.63519383 11.473989,9.63519383 C10.3062093,9.63519383 8.32646696,9.78732159 6.44978855,10.0785529 L6.44978855,7.19264537 L6.44978855,7.19264537 Z M2.05937445,12.1276388 C2.05538987,12.0621013 2.04296035,11.8629912 2.41180176,11.6324207 C3.96222026,10.6633348 9.16037445,10.0702269 11.4739295,10.0702269 C14.4630198,10.0702269 18.3244361,10.7624141 20.265522,11.6458612 C20.5107225,11.7574295 20.6365044,11.8864229 20.6400956,12.0289758 C20.6504207,12.4804229 19.6727115,13.2147159 18.8308348,13.6929846 L18.8308348,12.6079295 C18.8308348,12.5168194 18.7741586,12.4353436 18.6884604,12.4037643 C18.6568216,12.3921079 15.4664802,11.2336057 11.3305441,11.2302753 C11.3304846,11.2302753 11.3214449,11.2302753 11.3214449,11.2302753 C7.18562775,11.2335463 3.99534581,12.3920485 3.96358811,12.4036454 C3.87806828,12.4351057 3.82121366,12.5167004 3.82121366,12.6078106 L3.82121366,13.7075551 C3.05706608,13.3062423 2.09131057,12.6365947 2.05937445,12.1276388 Z M4.25648458,12.7630308 C4.91126432,12.5439383 7.75238987,11.6684604 11.3218018,11.6655463 L11.3216233,11.448 L11.3303062,11.6655463 C14.895793,11.6684009 17.7403084,12.5441167 18.3958612,12.7631498 L18.3958612,15.9961916 C16.2082665,15.5169119 13.6570044,15.2091476 11.4947445,15.2091476 C9.84090529,15.2091476 6.79002423,15.4705837 4.25648458,15.966337 L4.25648458,12.7630308 L4.25648458,12.7630308 Z M0.473986784,18.0832203 C0.460129956,17.8610352 0.600125551,17.661152 0.902002203,17.4723899 C2.71653304,16.3383899 8.79159251,15.6441806 11.4946256,15.6441806 C14.9862489,15.6441806 19.4987577,16.4532291 21.7674714,17.4861278 C22.0672665,17.6223767 22.2214163,17.7837225 22.2256236,17.9652291 C22.238663,18.5437665 21.0005286,19.4328634 20.0420881,19.9697709 L20.0420881,18.6416564 C20.0420881,18.5504273 19.9853524,18.4689515 19.8998326,18.4375507 C19.8627819,18.4238722 16.1464758,17.074348 11.3220991,17.0705419 C11.3207313,17.0705419 11.3182335,17.0705419 11.3156167,17.0705419 C6.49700881,17.074467 2.78153524,18.4238722 2.74454405,18.4375507 C2.65896476,18.4688326 2.6021696,18.5503084 2.6021696,18.6416564 L2.6021696,19.9842819 C1.69517181,19.514815 0.512821586,18.7030308 0.473986784,18.0832203 Z M3.03738106,18.796163 C3.75472467,18.5544119 7.10195154,17.5089053 11.3185903,17.5053965 C11.3214449,17.5055154 11.324359,17.5055154 11.3271542,17.5055154 C15.5387974,17.5090242 18.8891762,18.5546498 19.6068767,18.7963414 L19.6068767,24.8778238 L15.1568128,24.8778238 L15.1568128,20.9619912 C15.1568128,20.8417996 15.0592797,20.7445044 14.939207,20.7445044 L13.7305705,20.7445044 C13.6103789,20.7445044 13.5130837,20.841859 13.5130837,20.9619912 L13.5130837,24.8778238 L12.7639229,24.8778238 L12.7639229,20.9619912 C12.7639229,20.8417996 12.6664493,20.7445044 12.5463172,20.7445044 L10.129163,20.7445044 C10.0089714,20.7445044 9.91161674,20.841859 9.91161674,20.9619912 L9.91161674,24.8778238 L9.16239648,24.8778238 L9.16239648,20.9619912 C9.16239648,20.8417996 9.06504185,20.7445044 8.94485022,20.7445044 L7.73627313,20.7445044 C7.6160815,20.7445044 7.51872687,20.841859 7.51872687,20.9619912 L7.51872687,24.8778238 L3.03755947,24.8778238 L3.03755947,18.796163 L3.03738106,18.796163 Z M14.7216013,24.8776454 L13.9481167,24.8776454 L13.9481167,21.1795374 L14.7216013,21.1795374 L14.7216013,24.8776454 L14.7216013,24.8776454 Z M12.3287115,24.8776454 L10.3465308,24.8776454 L10.3465308,21.1795374 L12.3287115,21.1795374 L12.3287115,24.8776454 L12.3287115,24.8776454 Z M8.72712555,24.8776454 L7.9535815,24.8776454 L7.9535815,21.1795374 L8.72712555,21.1795374 L8.72712555,24.8776454 Z M21.6945,26.5455198 L0.980742291,26.5455198 L0.980742291,25.3127379 L2.81977533,25.3127379 L7.73603524,25.3127379 L8.94461233,25.3127379 L10.1289846,25.3127379 L12.5461388,25.3127379 L13.730511,25.3127379 L14.9390881,25.3127379 L19.8244229,25.3127379 L21.6945,25.3127379 L21.6945,26.5455198 L21.6945,26.5455198 Z" id="形状"></path>
        </g>
    </g>
</svg>